<?xml version="1.0" standalone="no"?>
<!DOCTYPE svg PUBLIC "-//W3C//DTD SVG 1.1//EN" "http://www.w3.org/Graphics/SVG/1.1/DTD/svg11.dtd" >
<svg xmlns="http://www.w3.org/2000/svg" xmlns:xlink="http://www.w3.org/1999/xlink" version="1.1">
<metadata>
Created by FontForge 20160405 at Sat May 19 22:57:41 2018
 By www-data
Copyright (c) 2011-2017, Omnibus-Type (www.omnibus-type.com omnibus.type@gmail.com) with Reserved Font Name 'Jaldi' and 'Asap'
</metadata>
<defs>
<font id="Asap-Regular" horiz-adv-x="557" >
  <font-face 
    font-family="Asap"
    font-weight="400"
    font-stretch="normal"
    units-per-em="1000"
    panose-1="2 15 5 4 3 2 2 6 2 3"
    ascent="800"
    descent="-200"
    x-height="523"
    cap-height="702"
    bbox="-371 -237 1266 1045"
    underline-thickness="70"
    underline-position="-163"
    unicode-range="U+000D-FB02"
  />
<missing-glyph horiz-adv-x="514" 
d="M7 700h500v-700h-500v700zM426 650h-340l171 -255zM227 350l-171 255v-510zM456 605l-169 -255l169 -255v510zM427 50l-171 255l-169 -255h340z" />
    <glyph glyph-name="fi" unicode="fi" horiz-adv-x="563" 
d="M473 501v-481q0 -22 -40 -22h-4q-40 0 -40 22v431h-197v-431q0 -22 -40 -22h-4q-40 0 -40 22v431h-40q-10 0 -15 7t-5 23v12q0 16 5 23t15 7h40v95q0 79 39 108.5t90 29.5q73 0 73 -30q0 -10 -6 -28.5t-15 -18.5q-5 0 -14.5 2.5t-28.5 2.5q-26 0 -40 -14.5t-14 -59.5v-87
h241q40 0 40 -22zM477 696v-56q0 -24 -48 -24q-44 0 -44 24v56q0 24 48 24q44 0 44 -24z" />
    <glyph glyph-name="fl" unicode="fl" horiz-adv-x="622" 
d="M108 20v431h-40q-10 0 -15 7t-5 23v12q0 16 5 23t15 7h40v95q0 79 39 108.5t90 29.5q73 0 73 -30q0 -10 -6 -28.5t-15 -18.5q-5 0 -14.5 2.5t-28.5 2.5q-26 0 -40 -14.5t-14 -59.5v-87h87q11 0 15.5 -7t4.5 -23v-12q0 -16 -4.5 -23t-15.5 -7h-87v-431q0 -22 -40 -22h-4
q-40 0 -40 22zM446.5 24.5q-39.5 30.5 -39.5 107.5v598q0 22 40 22h4q40 0 40 -22v-590q0 -42 14.5 -58t39.5 -16q19 0 28.5 2.5t14.5 2.5q9 0 15 -18.5t6 -28.5q0 -30 -73 -30q-50 0 -89.5 30.5z" />
    <glyph glyph-name="f_f" unicode="ff" horiz-adv-x="650" 
d="M619.5 516q4.5 -7 4.5 -23v-12q0 -16 -4.5 -23t-15.5 -7h-87v-431q0 -22 -40 -22h-4q-40 0 -40 22v431h-241v-431q0 -22 -40 -22h-4q-40 0 -40 22v431h-40q-10 0 -15 7t-5 23v12q0 16 5 23t15 7h40v95q0 79 39 108.5t90 29.5q73 0 73 -30q0 -10 -6 -28.5t-15 -18.5
q-5 0 -14.5 2.5t-28.5 2.5q-26 0 -40 -14.5t-14 -59.5v-87h241v95q0 79 39 108.5t90 29.5q73 0 73 -30q0 -10 -6 -28.5t-15 -18.5q-5 0 -14.5 2.5t-28.5 2.5q-26 0 -40 -14.5t-14 -59.5v-87h87q11 0 15.5 -7z" />
    <glyph glyph-name=".notdef" horiz-adv-x="514" 
d="M7 700h500v-700h-500v700zM426 650h-340l171 -255zM227 350l-171 255v-510zM456 605l-169 -255l169 -255v510zM427 50l-171 255l-169 -255h340z" />
    <glyph glyph-name=".null" horiz-adv-x="0" 
 />
    <glyph glyph-name="nonmarkingreturn" unicode="&#xd;" horiz-adv-x="240" 
 />
    <glyph glyph-name="space" unicode=" " horiz-adv-x="240" 
 />
    <glyph glyph-name="exclam" unicode="!" horiz-adv-x="294" 
d="M112 224v456q0 22 40 22h20q39 0 39 -22l-27 -456q-2 -22 -31 -22h-11q-30 0 -30 22zM100 20v66q0 22 40 22h17q40 0 40 -22v-66q0 -22 -40 -22h-17q-40 0 -40 22z" />
    <glyph glyph-name="quotedbl" unicode="&#x22;" horiz-adv-x="319" 
d="M72 484l-22 184v12q0 22 40 22h10q40 0 40 -22q0 -9 -23 -196q-3 -12 -22 -12h-1q-19 0 -22 12zM200 484l-22 184v12q0 22 40 22h10q40 0 40 -22q0 -9 -23 -196q-3 -12 -22 -12h-1q-19 0 -22 12z" />
    <glyph glyph-name="numbersign" unicode="#" horiz-adv-x="534" 
d="M83.5 2q-6.5 4 -6.5 13q0 3 15 89q0 2 17 92h-76q-10 0 -15 7t-5 23v17q0 16 5 23t15 7h91l26 147h-81q-10 0 -15 7t-5 23v17q0 16 5 23t15 7h94l31 167q3 12 10.5 17t33.5 5h4q28 0 28 -15l-33 -174h119l30 167q3 12 10.5 17t33.5 5h5q28 0 28 -15l-31 -174h68
q11 0 15.5 -7t4.5 -23v-17q0 -16 -4.5 -23t-15.5 -7h-83l-25 -147h76q11 0 15.5 -7t4.5 -23v-17q0 -16 -4.5 -23t-15.5 -7h-92l-31 -176q-2 -12 -10.5 -17t-32.5 -5h-4q-15 0 -21.5 4t-6.5 13q0 3 15 89q0 2 17 92h-118l-32 -176q-2 -12 -10 -17t-33 -5h-4q-15 0 -21.5 4z
M317 273l26 147h-118l-26 -147h118z" />
    <glyph glyph-name="dollar" unicode="$" horiz-adv-x="496" 
d="M253 -71q-20 0 -20 16v49q-68 1 -129 23q-32 11 -50.5 25t-18.5 25q0 12 13.5 33t21.5 21q4 0 21 -11q31 -18 64 -30.5t78 -13.5v258q-61 24 -97 43.5t-62 57t-26 97.5q0 73 50 121t135 57v42q0 16 20 16h2q18 0 18 -16v-40q32 -1 69.5 -8.5t61.5 -20.5q27 -13 27 -28
q0 -11 -12.5 -32t-19.5 -21q-5 0 -16.5 6t-14.5 8q-48 23 -95 24v-233q61 -22 99 -42.5t65 -60t27 -103.5q0 -85 -51 -136.5t-140 -59.5v-50q0 -16 -19 -16h-1zM233 627q-44 -8 -69 -35.5t-25 -73.5q0 -39 24 -63t70 -43v215zM345.5 110q27.5 33 27.5 81q0 43 -26 69.5
t-74 47.5v-239q45 8 72.5 41z" />
    <glyph glyph-name="percent" unicode="%" horiz-adv-x="765" 
d="M99.5 416q-39.5 35 -39.5 126q0 164 137 164q57 0 97 -36.5t40 -127.5q0 -90 -40 -125.5t-97 -35.5q-58 0 -97.5 35zM167.5 -4.5q-6.5 2.5 -6.5 6.5q0 5 4 10l373 675q10 19 40 19h5q11 0 17.5 -2.5t6.5 -6.5q0 -2 -4 -10l-373 -675q-10 -19 -40 -19h-5q-11 0 -17.5 2.5z
M270 542q0 48 -14 79t-59 31q-44 0 -57.5 -31t-13.5 -79q0 -47 14 -76.5t57 -29.5q73 0 73 106zM470.5 30q-39.5 35 -39.5 126q0 164 137 164q57 0 97 -36.5t40 -127.5q0 -90 -40 -125.5t-97 -35.5q-58 0 -97.5 35zM641 156q0 48 -14 79t-59 31q-44 0 -57.5 -31t-13.5 -79
q0 -47 14 -76.5t57 -29.5q73 0 73 106z" />
    <glyph glyph-name="ampersand" unicode="&#x26;" horiz-adv-x="624" 
d="M605 52.5q6 -18.5 6 -28.5q0 -30 -73 -30q-28 0 -55.5 9.5t-46.5 33.5q-30 -18 -71.5 -30.5t-91.5 -12.5q-54 0 -105 21.5t-84.5 68.5t-33.5 119q0 73 38 122t88 62v4q-45 18 -74 56t-29 91q0 82 55.5 125t146.5 43q33 0 59 -7t26 -25q0 -9 -6 -29t-16 -20
q-5 0 -22.5 4.5t-38.5 4.5q-69 0 -94.5 -32.5t-25.5 -72.5q0 -28 14 -55.5t44.5 -46.5t75.5 -19h118l12 105q3 22 32 22h10q30 0 30 -22v-105h84q11 0 15.5 -7t4.5 -23v-12q0 -16 -4.5 -23t-15.5 -7h-84v-196q0 -42 14.5 -58t39.5 -16q19 0 28.5 2.5t14.5 2.5q9 0 15 -18.5z
M181 98q44 -32 100 -32q33 0 67.5 11t62.5 26q-2 18 -2 29v204h-122q-73 0 -111.5 -30t-38.5 -102q0 -74 44 -106z" />
    <glyph glyph-name="quotesingle" unicode="'" horiz-adv-x="183" 
d="M72 484l-22 184v12q0 22 40 22h10q40 0 40 -22q0 -9 -23 -196q-3 -12 -22 -12h-1q-19 0 -22 12z" />
    <glyph glyph-name="parenleft" unicode="(" horiz-adv-x="301" 
d="M239 -201q-85 78 -134.5 207t-49.5 280q0 149 50 277.5t134 209.5q10 10 21 10q10 0 20 -7.5t10 -17.5q0 -12 -9 -22q-68 -80 -106.5 -197.5t-38.5 -252.5t38 -252.5t106 -197.5q9 -11 9 -20q0 -8 -9 -18t-19 -10q-11 0 -22 11z" />
    <glyph glyph-name="parenright" unicode=")" horiz-adv-x="301" 
d="M19.5 -202.5q-10.5 8.5 -10.5 17.5q0 6 7 15q69 80 109 199.5t40 256.5q0 135 -38 253t-106 197q-9 11 -9 20q0 8 9 18t19 10q11 0 22 -11q85 -78 134.5 -207t49.5 -280q0 -149 -50 -277.5t-134 -209.5q-10 -10 -21 -10t-21.5 8.5z" />
    <glyph glyph-name="asterisk" unicode="*" horiz-adv-x="373" 
d="M78.5 420.5q-7.5 6.5 -7.5 13.5t5 13l71 99l-98 32q-14 4 -14 15t5.5 17.5t12.5 6.5q6 0 9 -1l99 -32v105q0 20 20 20t20 -20v-105l99 32q3 1 9 1q7 0 12.5 -6.5t5.5 -16.5q0 -12 -14 -16l-99 -32l72 -99q5 -6 5 -13t-7.5 -13.5t-14.5 -6.5q-9 0 -15 9l-73 101l-73 -101
q-6 -9 -15 -9q-7 0 -14.5 6.5z" />
    <glyph glyph-name="plus" unicode="+" horiz-adv-x="560" 
d="M254 3q-7 5 -7 15v179h-179q-11 0 -15.5 5.5t-4.5 20.5v7q0 34 20 34h179v179q0 11 7 15.5t23 4.5h7q16 0 23 -5t7 -15v-179h178q11 0 15.5 -7t4.5 -23v-7q0 -16 -4.5 -23t-15.5 -7h-178v-179q0 -10 -7 -15t-23 -5h-7q-16 0 -23 5z" />
    <glyph glyph-name="comma" unicode="," horiz-adv-x="198" 
d="M21 -112.5q-9 3.5 -9 11.5q0 6 9 24q34 68 34 153q0 15 10 23.5t30 8.5h9q19 0 29.5 -7.5t10.5 -20.5q0 -56 -18 -100.5t-42.5 -70t-42.5 -25.5q-11 0 -20 3.5z" />
    <glyph glyph-name="hyphen" unicode="-" horiz-adv-x="320" 
d="M49 237q-5 7 -5 23v10q0 16 5 23t15 7h189q11 0 15.5 -7t4.5 -23v-10q0 -16 -4.5 -23t-15.5 -7h-189q-10 0 -15 7z" />
    <glyph glyph-name="period" unicode="." horiz-adv-x="198" 
d="M51 20v66q0 22 40 22h17q40 0 40 -22v-66q0 -22 -40 -22h-17q-40 0 -40 22z" />
    <glyph glyph-name="slash" unicode="/" horiz-adv-x="370" 
d="M-3.5 -70.5q-6.5 5.5 -6.5 14.5q0 7 3 15l310 721q10 23 35 23h4q24 0 24 -20q0 -7 -3 -15l-310 -721q-5 -12 -12.5 -17.5t-20.5 -5.5h-4q-13 0 -19.5 5.5z" />
    <glyph glyph-name="zero" unicode="0" horiz-adv-x="535" 
d="M152 32.5q-51 38.5 -82 118.5t-31 199t31 199t82 118.5t114 38.5t115 -38.5t83 -118.5t31 -199t-31 -199t-83 -118.5t-115 -38.5t-114 38.5zM337.5 95q32.5 29 52.5 92.5t20 162.5t-20 162.5t-52.5 92.5t-71.5 29q-38 0 -70.5 -28.5t-52 -92.5t-19.5 -163t19.5 -163
t52 -92.5t70.5 -28.5q39 0 71.5 29z" />
    <glyph glyph-name="one" unicode="1" horiz-adv-x="535" 
d="M48 7q-5 7 -5 23v12q0 16 5 23t15 7h174v539l-177 -30q-9 0 -14.5 17t-5.5 34q0 15 18 19l232 51q12 0 21.5 -6t9.5 -15v-609h148q11 0 15.5 -7t4.5 -23v-12q0 -16 -4.5 -23t-15.5 -7h-406q-10 0 -15 7z" />
    <glyph glyph-name="two" unicode="2" horiz-adv-x="535" 
d="M57 14q-6 14 -6 30q0 13 4 17l258 324q31 41 45.5 65t18.5 40.5t4 39.5q0 48 -33.5 76t-91.5 28q-42 0 -70.5 -11t-56.5 -29q-18 -11 -23 -11q-7 0 -19.5 19.5t-12.5 30.5q0 20 31 36.5t74 26.5t75 10q98 0 155.5 -45.5t57.5 -124.5q0 -50 -15 -87.5t-57.5 -93.5
t-156.5 -195l-73 -89h288q11 0 15.5 -7t4.5 -23v-11q0 -16 -4.5 -23t-15.5 -7h-382q-8 0 -14 14z" />
    <glyph glyph-name="three" unicode="3" horiz-adv-x="535" 
d="M144 3q-46 9 -72.5 22t-26.5 26q0 14 13 32t22 18q7 0 28 -8q64 -27 130 -27q56 0 100 32t44 106q0 72 -38.5 102t-111.5 30h-33q-10 0 -15 7t-5 23v11q0 16 5 23t15 7h29q48 0 77.5 21.5t42.5 51.5t13 58q0 37 -27 66.5t-92 29.5q-42 0 -69.5 -7.5t-52.5 -18.5
q-17 -7 -22 -7q-8 0 -20.5 20t-12.5 32q0 21 63 37t116 16q92 0 147 -45t55 -132q0 -49 -29.5 -85t-73.5 -53v-4q50 -13 88 -62t38 -122q0 -72 -33.5 -119t-84.5 -68.5t-105 -21.5q-56 0 -102 9z" />
    <glyph glyph-name="four" unicode="4" horiz-adv-x="535" 
d="M346 20v147h-304q-8 0 -16 18t-8 33q0 9 2 11l329 459q11 14 34 14h16q30 0 30 -22v-441h67q11 0 15.5 -7t4.5 -23v-12q0 -16 -4.5 -23t-15.5 -7h-67v-147q0 -22 -30 -22h-23q-30 0 -30 22zM346 239v294q0 11 5 31l-4 2l-230 -327h229z" />
    <glyph glyph-name="five" unicode="5" horiz-adv-x="535" 
d="M139 3.5q-43 9.5 -67.5 23.5t-24.5 27q0 14 13 32t22 18q5 0 27 -9q29 -13 57 -21t67 -8q65 0 110 38.5t45 108.5q0 67 -46 102t-134 35h-85q-16 0 -22 7t-6 23l17 290q1 16 8.5 23t23.5 7h266q11 0 15.5 -7t4.5 -23v-12q0 -16 -4.5 -23t-15.5 -7h-217l-13 -206h52
q60 0 115 -20t91 -66.5t36 -122.5q0 -119 -69.5 -169t-170.5 -50q-52 0 -95 9.5z" />
    <glyph glyph-name="six" unicode="6" horiz-adv-x="535" 
d="M105 60.5q-54 65.5 -54 186.5q0 132 62.5 235t142 161.5t120.5 58.5q14 0 23.5 -20t9.5 -33q0 -8 -8 -11q-99 -41 -160.5 -109.5t-86.5 -156.5q57 33 135 33q53 0 96.5 -25t69 -71t25.5 -106q0 -62 -28.5 -109.5t-77.5 -73t-110 -25.5q-105 0 -159 65.5zM327 81.5
q29 14.5 48.5 44.5t19.5 73q0 68 -38 101t-93 33q-65 0 -125 -34q-4 -40 -4 -60q0 -95 38.5 -133.5t95.5 -38.5q29 0 58 14.5z" />
    <glyph glyph-name="seven" unicode="7" horiz-adv-x="535" 
d="M107 2q-10 4 -10 14q0 2 4 12l289 600h-315q-10 0 -15 7t-5 23v12q0 16 5 23t15 7h395q6 0 13 -18t7 -33q0 -5 -2 -11l-296 -624q-4 -7 -14.5 -11.5t-25.5 -4.5h-12q-23 0 -33 4z" />
    <glyph glyph-name="eight" unicode="8" horiz-adv-x="535" 
d="M111.5 47q-60.5 53 -60.5 155q0 73 29 113t82 65q-38 23 -60.5 61t-22.5 92q0 82 53.5 127.5t136.5 45.5t137.5 -45.5t54.5 -127.5q0 -107 -97 -152q57 -26 88.5 -65t31.5 -114q0 -102 -60.5 -155t-156.5 -53q-95 0 -155.5 53zM377 533q0 51 -30 76t-78 25
q-47 0 -76.5 -25t-29.5 -76q0 -38 16.5 -61t42.5 -36t69 -28q86 50 86 125zM360.5 101.5q37.5 35.5 37.5 100.5q0 41 -18 66.5t-45 39t-74 30.5l-32 12q-43 -26 -67.5 -60.5t-24.5 -87.5q0 -65 37 -100.5t93 -35.5t93.5 35.5z" />
    <glyph glyph-name="nine" unicode="9" horiz-adv-x="535" 
d="M135.5 18q-9.5 20 -9.5 33q0 8 8 11q99 41 160.5 109.5t86.5 156.5q-57 -33 -135 -33q-53 0 -96.5 25t-69 71t-25.5 106q0 62 28.5 109.5t77.5 73t110 25.5q105 0 159 -65.5t54 -186.5q0 -132 -62.5 -235t-142 -161.5t-120.5 -58.5q-14 0 -23.5 20zM396 401q4 40 4 60
q0 95 -38.5 133.5t-95.5 38.5q-29 0 -58 -14.5t-48.5 -44.5t-19.5 -73q0 -68 38 -101t93 -33q66 0 125 34z" />
    <glyph glyph-name="colon" unicode=":" horiz-adv-x="198" 
d="M51 437v66q0 22 40 22h17q40 0 40 -22v-66q0 -22 -40 -22h-17q-40 0 -40 22zM51 20v66q0 22 40 22h17q40 0 40 -22v-66q0 -22 -40 -22h-17q-40 0 -40 22z" />
    <glyph glyph-name="semicolon" unicode=";" horiz-adv-x="198" 
d="M51 437v66q0 22 40 22h17q40 0 40 -22v-66q0 -22 -40 -22h-17q-40 0 -40 22zM21 -112.5q-9 3.5 -9 11.5q0 6 9 24q34 68 34 153q0 15 10 23.5t30 8.5h9q19 0 29.5 -7.5t10.5 -20.5q0 -56 -18 -100.5t-42.5 -70t-42.5 -25.5q-11 0 -20 3.5z" />
    <glyph glyph-name="less" unicode="&#x3c;" horiz-adv-x="560" 
d="M477 10l-411 174q-25 11 -25 35v17q0 24 25 35l411 174q8 3 15 3q9 0 15 -7t6 -19v-14q0 -24 -24 -35l-356 -145l356 -146q24 -10 24 -35v-14q0 -12 -6 -19t-15 -7q-7 0 -15 3z" />
    <glyph glyph-name="equal" unicode="=" horiz-adv-x="560" 
d="M56 279q-8 8 -8 22v7q0 30 30 30h404q30 0 30 -30v-7q0 -30 -30 -30h-404q-14 0 -22 8zM56 115q-8 8 -8 22v8q0 30 30 30h404q30 0 30 -30v-8q0 -30 -30 -30h-404q-14 0 -22 8z" />
    <glyph glyph-name="greater" unicode="&#x3e;" horiz-adv-x="560" 
d="M52 13q-6 7 -6 19v14q0 25 24 35l356 146l-356 145q-24 11 -24 35v14q0 12 6 19t15 7q8 0 15 -3l411 -174q25 -11 25 -35v-17q0 -24 -25 -35l-411 -174q-7 -3 -15 -3q-9 0 -15 7z" />
    <glyph glyph-name="question" unicode="?" horiz-adv-x="445" 
d="M149 225q0 34 22.5 76t63.5 83q50 50 72.5 80.5t22.5 63.5q0 104 -126 104q-28 0 -51 -7t-49 -18q-20 -9 -24 -9q-7 0 -19.5 20t-12.5 31q0 24 56 40.5t116 16.5q64 0 110.5 -22.5t70.5 -61t24 -84.5t-24 -83t-71 -85q-49 -48 -73.5 -79t-29.5 -69q-2 -10 -9 -15t-24 -5
h-15q-30 0 -30 23zM136 20v66q0 22 40 22h17q40 0 40 -22v-66q0 -22 -40 -22h-17q-40 0 -40 22z" />
    <glyph glyph-name="at" unicode="@" horiz-adv-x="974" 
d="M709 664.5q75 -40.5 116.5 -114t41.5 -170.5q0 -90 -27 -165t-74.5 -118t-108.5 -43q-45 0 -72 24t-27 59v7q-25 -46 -60 -68t-75 -22q-34 0 -66.5 16.5t-55.5 57t-23 108.5q0 78 26 139t74 95.5t111 34.5q37 0 65 -14.5t46 -32.5q3 8 7.5 21t10 18t17.5 5h6q22 0 22 -21
q-5 -48 -19 -182.5t-14 -149.5q0 -42 40 -42q36 0 69.5 38t53.5 101t20 134q0 84 -35 147.5t-98 98.5t-146 35q-109 0 -200 -56.5t-143.5 -153.5t-52.5 -214q0 -94 34 -166.5t96 -112.5t142 -40q43 0 71 6t54 16q21 7 29 7q14 0 14 -23q0 -26 -56.5 -38t-111.5 -12
q-96 0 -170 45.5t-115 128t-41 189.5q0 130 59.5 237t162.5 169t228 62q100 0 175 -40.5zM575 327q6 62 12 82q-41 34 -92 34q-79 0 -111.5 -57t-32.5 -145q0 -67 24 -96.5t64 -29.5q34 0 69 33t60 108q1 9 7 71z" />
    <glyph glyph-name="A" unicode="A" horiz-adv-x="613" 
d="M12 15q0 5 3 14l237 657q6 16 40 16h29q36 0 40 -16l237 -658q3 -7 3 -13q0 -17 -43 -17h-8q-35 0 -40 16l-59 164h-294l-57 -164q-5 -16 -40 -16h-5q-43 0 -43 17zM424 254l-105 298q-5 16 -12 58h-2q-8 -40 -15 -58l-105 -298h239z" />
    <glyph glyph-name="B" unicode="B" horiz-adv-x="593" 
d="M104 7q-7 7 -7 23v640q0 16 7 23t23 7h179q109 0 166.5 -48t57.5 -129q0 -50 -33 -95t-77 -57v-4q0 4 39 -15t70 -55.5t31 -95.5q0 -201 -261 -201h-172q-16 0 -23 7zM301 398q60 0 99 34t39 83q0 56 -34 82.5t-108 26.5h-112v-226h116zM331 76q66 0 102 34.5t36 94.5
q0 56 -39.5 86.5t-115.5 30.5h-129v-246h146z" />
    <glyph glyph-name="C" unicode="C" horiz-adv-x="619" 
d="M135.5 80.5q-78.5 86.5 -78.5 269.5q0 356 324 356q49 0 94.5 -10.5t72.5 -25.5q24 -14 24 -26q0 -14 -12.5 -36t-21.5 -22q-3 0 -25.5 12.5t-55 22t-74.5 9.5q-121 0 -178 -67t-57 -214q0 -144 56.5 -211.5t174.5 -67.5q49 0 84 11.5t69 29.5q14 9 19 9q9 0 22 -22
t13 -32q0 -15 -32 -33q-30 -17 -76 -28t-99 -11q-165 0 -243.5 86.5z" />
    <glyph glyph-name="D" unicode="D" horiz-adv-x="695" 
d="M104 7q-7 7 -7 23v640q0 16 7 23t23 7h202q140 0 224.5 -83.5t84.5 -266.5q0 -184 -84.5 -267t-224.5 -83h-202q-16 0 -23 7zM322 76q101 0 163 66t62 208q0 141 -62 207.5t-163 66.5h-137v-548h137z" />
    <glyph glyph-name="E" unicode="E" horiz-adv-x="546" 
d="M104 7q-7 7 -7 23v640q0 16 7 23t23 7h349q11 0 15.5 -7t4.5 -23v-16q0 -16 -4.5 -23t-15.5 -7h-291v-228h261q11 0 15.5 -7t4.5 -23v-16q0 -16 -4.5 -23t-15.5 -7h-261v-244h292q11 0 15.5 -7t4.5 -23v-16q0 -16 -4.5 -23t-15.5 -7h-350q-16 0 -23 7z" />
    <glyph glyph-name="F" unicode="F" horiz-adv-x="503" 
d="M97 20v650q0 16 7 23t23 7h315q11 0 15.5 -7t4.5 -23v-16q0 -16 -4.5 -23t-15.5 -7h-257v-228h239q11 0 15.5 -7t4.5 -23v-16q0 -16 -4.5 -23t-15.5 -7h-239v-300q0 -22 -40 -22h-8q-40 0 -40 22z" />
    <glyph glyph-name="G" unicode="G" horiz-adv-x="672" 
d="M582 354q7 -7 7 -23v-265q0 -39 -62.5 -55.5t-160.5 -16.5q-151 0 -230 87t-79 263q0 362 324 362q47 0 91.5 -9.5t72 -24.5t27.5 -28q0 -14 -12.5 -36t-21.5 -22q-3 0 -25.5 12.5t-55 22t-74.5 9.5q-127 0 -181 -70t-54 -207q0 -130 50 -206.5t174 -76.5q37 0 72.5 3.5
t56.5 9.5v202h-117q-10 0 -15 7t-5 23v16q0 16 5 23t15 7h175q16 0 23 -7z" />
    <glyph glyph-name="H" unicode="H" horiz-adv-x="733" 
d="M97 20v660q0 22 40 22h8q40 0 40 -22v-283h362v283q0 22 40 22h8q40 0 40 -22v-660q0 -22 -40 -22h-8q-40 0 -40 22v301h-362v-301q0 -22 -40 -22h-8q-40 0 -40 22z" />
    <glyph glyph-name="I" unicode="I" horiz-adv-x="283" 
d="M97 20v660q0 22 40 22h8q40 0 40 -22v-660q0 -22 -40 -22h-8q-40 0 -40 22z" />
    <glyph glyph-name="J" unicode="J" horiz-adv-x="402" 
d="M37 1q-31 7 -31 25q0 10 6 32.5t16 22.5q5 0 23.5 -4.5t39.5 -4.5q74 0 107 29t33 94v485q0 22 40 22h8q40 0 40 -22v-475q0 -211 -212 -211q-39 0 -70 7z" />
    <glyph glyph-name="K" unicode="K" horiz-adv-x="576" 
d="M97 20v660q0 22 40 22h8q40 0 40 -22v-306h4l246 314q11 14 54 14h10q17 0 26 -3.5t9 -9.5q0 -9 -10 -20l-250 -312l303 -329q9 -10 9 -16q0 -8 -10 -11t-34 -3h-12q-22 0 -34.5 2t-20.5 11l-286 322h-4v-313q0 -22 -40 -22h-8q-40 0 -40 22z" />
    <glyph glyph-name="L" unicode="L" horiz-adv-x="484" 
d="M104 7q-7 7 -7 23v650q0 22 40 22h8q40 0 40 -22v-604h275q11 0 15.5 -7t4.5 -23v-16q0 -16 -4.5 -23t-15.5 -7h-333q-16 0 -23 7z" />
    <glyph glyph-name="M" unicode="M" horiz-adv-x="843" 
d="M381 208l-178 310q-9 15 -24 45l-4 -1q2 -18 2 -55v-487q0 -22 -40 -22h-7q-40 0 -40 22v660q0 22 40 22h36q32 0 42 -18l189 -328q18 -31 26 -63q8 25 31 66l184 325q10 18 42 18h33q40 0 40 -22v-660q0 -22 -40 -22h-7q-40 0 -40 22v481q0 37 2 55l-4 1
q-15 -30 -24 -45l-175 -304q-7 -13 -22 -13h-40q-15 0 -22 13z" />
    <glyph glyph-name="N" unicode="N" horiz-adv-x="719" 
d="M90 20v660q0 22 40 22h21q16 0 25.5 -4t16.5 -15l314 -474q17 -25 33 -60l4 1q-2 23 -2 68v462q0 22 40 22h7q40 0 40 -22v-660q0 -22 -40 -22h-20q-26 0 -35 14l-322 486q-17 25 -33 60l-4 -1q2 -23 2 -68v-469q0 -22 -40 -22h-7q-40 0 -40 22z" />
    <glyph glyph-name="O" unicode="O" horiz-adv-x="731" 
d="M136 85.5q-79 91.5 -79 266.5t78.5 264.5t229.5 89.5t230 -89.5t79 -264.5t-79 -266.5t-230 -91.5q-150 0 -229 91.5zM527 142q56 72 56 210q0 137 -56 207.5t-162 70.5t-161.5 -70.5t-55.5 -207.5q0 -138 55.5 -210t161.5 -72t162 72z" />
    <glyph glyph-name="P" unicode="P" horiz-adv-x="570" 
d="M85 20v650q0 16 7 23t23 7h203q88 0 155.5 -42t67.5 -154q0 -83 -39 -129t-87 -61.5t-87 -15.5h-155v-278q0 -22 -40 -22h-8q-40 0 -40 22zM329 374q43 0 82 29t39 101q0 67 -40 93.5t-95 26.5h-142v-250h156z" />
    <glyph glyph-name="Q" unicode="Q" horiz-adv-x="731" 
d="M476 -85.5q-158 62.5 -230 91.5q-189 75 -189 341q0 176 79 267.5t229 91.5q151 0 230 -92t79 -267q0 -142 -51.5 -229t-149.5 -113v-4l197 -62q14 -5 14 -15q0 -7 -6 -25t-16 -32.5t-20 -14.5q-8 0 -166 62.5zM526.5 139.5q56.5 72.5 56.5 207.5q0 136 -57 209.5
t-161 73.5t-160.5 -73t-56.5 -210q0 -136 56.5 -208t160.5 -72q105 0 161.5 72.5z" />
    <glyph glyph-name="R" unicode="R" horiz-adv-x="610" 
d="M97 20v650q0 16 7 23t23 7h168q120 0 180.5 -42.5t60.5 -134.5q0 -62 -30 -104.5t-85 -64.5v-4q29 -10 48.5 -39t41.5 -86l78 -197q3 -9 3 -14q0 -16 -42 -16h-10q-15 0 -26 4.5t-14 11.5l-76 196q-22 57 -55 77.5t-94 20.5h-90v-288q0 -22 -40 -22h-8q-40 0 -40 22z
M317 384q35 0 64.5 17t46.5 45t17 61q0 59 -36 88t-99 29h-125v-240h132z" />
    <glyph glyph-name="S" unicode="S" horiz-adv-x="500" 
d="M133 8q-51 14 -77 34q-19 14 -19 25q0 12 13.5 33t21.5 21q4 0 21 -10q31 -17 66.5 -29t84.5 -12q58 0 94.5 32.5t36.5 85.5q0 37 -20 61.5t-48.5 39t-82.5 35.5q-58 23 -92 42t-58 56.5t-24 98.5q0 54 27.5 96t78 65.5t116.5 23.5q34 0 76 -9.5t65 -25.5q20 -12 20 -26
q0 -11 -12.5 -32t-19.5 -21q-5 0 -14.5 5t-12.5 7q-50 26 -104 26q-58 0 -93.5 -30t-35.5 -83q0 -34 17.5 -55t40 -31.5t78.5 -32.5q60 -23 98 -44.5t64.5 -62t26.5 -103.5q0 -90 -60 -142t-162 -52q-60 0 -111 14z" />
    <glyph glyph-name="T" unicode="T" horiz-adv-x="549" 
d="M232 20v604h-192q-10 0 -15 7t-5 23v16q0 16 5 23t15 7h469q11 0 15.5 -7t4.5 -23v-16q0 -16 -4.5 -23t-15.5 -7h-189v-604q0 -22 -40 -22h-8q-40 0 -40 22z" />
    <glyph glyph-name="U" unicode="U" horiz-adv-x="712" 
d="M153.5 54.5q-70.5 60.5 -70.5 169.5v456q0 22 40 22h8q40 0 40 -22v-459q0 -44 24 -78.5t66 -53.5t95 -19t95 19.5t66 54t24 77.5v459q0 22 40 22h8q40 0 40 -22v-456q0 -109 -71 -169.5t-202 -60.5q-132 0 -202.5 60.5z" />
    <glyph glyph-name="V" unicode="V" horiz-adv-x="617" 
d="M253 14l-229 658q-3 8 -3 13q0 17 43 17h9q35 0 40 -16l185 -534l10 -52h3l11 53l185 533q5 16 40 16h6q43 0 43 -17q0 -5 -3 -14l-229 -657q-5 -16 -40 -16h-31q-35 0 -40 16z" />
    <glyph glyph-name="W" unicode="W" horiz-adv-x="882" 
d="M189 14l-171 657q-3 12 -3 14q0 17 43 17h10q36 0 40 -16l127 -492q5 -19 11 -53.5t7 -39.5l24 96l121 488q4 17 39 17h16q35 0 39 -17l124 -492q6 -22 11 -52.5t6 -39.5l24 95l121 490q4 16 40 16h6q43 0 43 -17l-3 -14l-173 -657q-4 -16 -40 -16h-41q-36 0 -40 16
l-109 407l-21 130l-21 -130l-109 -407q-4 -16 -40 -16h-41q-36 0 -40 16z" />
    <glyph glyph-name="X" unicode="X" horiz-adv-x="611" 
d="M30.5 2q-10.5 4 -10.5 13q0 7 8 18l224 332l-200 302q-8 11 -8 18q0 17 46 17h14q17 0 27 -3t16 -12l160 -241l165 242q9 14 43 14h6q25 0 35.5 -4t10.5 -13q0 -7 -8 -18l-200 -297l225 -337q8 -11 8 -18q0 -17 -46 -17h-16q-17 0 -27 3t-16 12l-184 275l-186 -276
q-9 -14 -43 -14h-8q-25 0 -35.5 4z" />
    <glyph glyph-name="Y" unicode="Y" horiz-adv-x="559" 
d="M235 20v339l-209 308q-8 11 -8 18q0 17 46 17h11q17 0 27 -3t16 -12l164 -246l168 247q9 14 45 14h7q21 -1 30 -5t9 -12q0 -7 -8 -18l-210 -311v-336q0 -22 -40 -22h-8q-40 0 -40 22z" />
    <glyph glyph-name="Z" unicode="Z" horiz-adv-x="616" 
d="M46.5 19q-8.5 19 -8.5 34q0 8 3 12l410 559h-360q-11 0 -15.5 8t-4.5 26v8q0 18 4.5 26t15.5 8h458q6 0 14 -19t8 -34q0 -7 -3 -12l-410 -559h391q11 0 15.5 -8t4.5 -26v-8q0 -18 -4.5 -26t-15.5 -8h-487q-7 0 -15.5 19z" />
    <glyph glyph-name="bracketleft" unicode="[" horiz-adv-x="291" 
d="M97 -131q-7 7 -7 23v846q0 16 7 23t23 7h121q11 0 15.5 -6.5t4.5 -22.5v-5q0 -16 -4.5 -22.5t-15.5 -6.5h-77v-781h77q11 0 15.5 -6.5t4.5 -22.5v-4q0 -16 -4.5 -22.5t-15.5 -6.5h-121q-16 0 -23 7z" />
    <glyph glyph-name="backslash" unicode="\" horiz-adv-x="361" 
d="M306.5 -14.5q-7.5 5.5 -12.5 17.5l-286 664q-3 8 -3 15q0 20 24 20h4q25 0 35 -23l286 -664q3 -7 3 -15q0 -9 -6.5 -14.5t-19.5 -5.5h-4q-13 0 -20.5 5.5z" />
    <glyph glyph-name="bracketright" unicode="]" horiz-adv-x="291" 
d="M34.5 -131.5q-4.5 6.5 -4.5 22.5v4q0 16 4.5 22.5t15.5 6.5h77v781h-77q-11 0 -15.5 6.5t-4.5 22.5v5q0 16 4.5 22.5t15.5 6.5h121q16 0 23 -7t7 -23v-846q0 -16 -7 -23t-23 -7h-121q-11 0 -15.5 6.5z" />
    <glyph glyph-name="asciicircum" unicode="^" horiz-adv-x="450" 
d="M60 325.5q-7 5.5 -7 15.5q0 7 3 14l125 309q5 12 13 16t21 4h20q14 0 22 -4.5t12 -15.5l125 -309q3 -7 3 -14q0 -10 -7 -15.5t-20 -5.5h-4q-25 0 -35 23l-106 261l-107 -261q-10 -23 -34 -23h-4q-13 0 -20 5.5z" />
    <glyph glyph-name="underscore" unicode="_" horiz-adv-x="534" 
d="M-21 -118v8q0 20 20 20h536q20 0 20 -20v-8q0 -20 -20 -20h-536q-20 0 -20 20z" />
    <glyph glyph-name="grave" unicode="`" horiz-adv-x="320" 
d="M168 603l-38 43q-39 44 -47.5 55.5t-8.5 17.5q0 7 11.5 10t36.5 3q24 0 39 -6t23 -20q29 -50 43.5 -77t14.5 -34q0 -10 -23 -10q-34 0 -51 18z" />
    <glyph glyph-name="a" unicode="a" horiz-adv-x="545" 
d="M96 32q-47 38 -47 112q0 79 47.5 118.5t116.5 51t168 12.5v47q0 37 -26 60.5t-84 23.5q-44 0 -77 -10.5t-55 -21t-24 -10.5q-10 0 -22.5 20t-12.5 30q0 13 26.5 28t70.5 25.5t91 10.5q93 0 145 -41.5t52 -115.5v-224q0 -66 6 -94.5t6 -31.5q0 -12 -19 -17.5t-35 -5.5
q-14 0 -20.5 15.5t-10 32.5t-4.5 22q-68 -75 -168 -75q-77 0 -124 38zM308.5 85q35.5 18 72.5 51v118q-75 -1 -122.5 -6t-83.5 -28t-36 -71q0 -40 21.5 -61t63.5 -21q49 0 84.5 18z" />
    <glyph glyph-name="b" unicode="b" horiz-adv-x="569" 
d="M162 69q-5 -30 -16 -59q-5 -12 -27 -12h-4q-30 0 -30 22v710q0 22 40 22h4q40 0 40 -22v-252q32 25 65.5 38t77.5 13q60 0 106 -31t71.5 -91t25.5 -145q0 -78 -23.5 -139t-67.5 -95t-103 -34q-87 0 -159 75zM395 119.5q32 52.5 32 149.5q0 90 -34 138t-100 48
q-33 0 -65.5 -11.5t-58.5 -33.5v-274q30 -33 65.5 -51t69.5 -18q59 0 91 52.5z" />
    <glyph glyph-name="c" unicode="c" horiz-adv-x="485" 
d="M113 58q-61 64 -61 206q0 143 68 204t169 61q58 0 104 -14t46 -32q0 -13 -11.5 -33.5t-20.5 -20.5q-2 0 -4.5 1.5t-6.5 2.5q-54 24 -109 24q-145 0 -145 -191q0 -106 35.5 -153t119.5 -47q61 0 113 26l11 4q10 0 22 -19.5t12 -31.5t-21.5 -23.5t-57.5 -19.5t-78 -8
q-124 0 -185 64z" />
    <glyph glyph-name="d" unicode="d" horiz-adv-x="565" 
d="M143 28q-44 34 -67.5 95t-23.5 138q0 85 25.5 145.5t71.5 91.5t106 31q44 0 77.5 -13t65.5 -38v252q0 22 40 22h4q40 0 40 -22v-582q0 -66 6 -94.5t6 -31.5q0 -12 -19 -17.5t-35 -5.5q-14 0 -20.5 15.5t-10 32.5t-4.5 22q-72 -75 -159 -75q-59 0 -103 34zM332.5 85
q35.5 18 65.5 51v274q-54 45 -123 45q-67 0 -101 -48t-34 -138q0 -97 32 -149.5t91 -52.5q34 0 69.5 18z" />
    <glyph glyph-name="e" unicode="e" horiz-adv-x="539" 
d="M115 59q-60 65 -60 199q0 133 59 202t174 69q102 0 154 -66.5t52 -194.5q0 -9 -12 -25t-21 -16h-316q6 -83 43 -122t111 -39q42 0 72.5 10.5t50.5 21t23 10.5q10 0 22.5 -20t12.5 -30q0 -12 -25 -27.5t-66.5 -26t-88.5 -10.5q-125 0 -185 65zM405 299q0 158 -120 158
q-129 0 -140 -158h260z" />
    <glyph glyph-name="f" unicode="f" horiz-adv-x="325" 
d="M108 20v431h-40q-10 0 -15 7t-5 23v12q0 16 5 23t15 7h40v95q0 79 39 108.5t90 29.5q73 0 73 -30q0 -10 -6 -28.5t-15 -18.5q-5 0 -14.5 2.5t-28.5 2.5q-26 0 -40 -14.5t-14 -59.5v-87h87q11 0 15.5 -7t4.5 -23v-12q0 -16 -4.5 -23t-15.5 -7h-87v-431q0 -22 -40 -22h-4
q-40 0 -40 22z" />
    <glyph glyph-name="g" unicode="g" horiz-adv-x="546" 
d="M101.5 -182q-55.5 30 -55.5 94q0 44 25 76t66 49l1 2q-40 32 -40 82q0 65 56 104q-42 21 -64 58t-22 83q0 71 52 117t145 46q32 0 59 -6h182q11 0 15.5 -7t4.5 -23v-12q0 -16 -4.5 -23t-15.5 -7q-41 0 -70 3l-1 -2q26 -37 26 -86q0 -72 -51.5 -118t-145.5 -46
q-47 0 -71 -16.5t-24 -52.5q0 -26 16.5 -39.5t41.5 -19.5t70 -11q22 -2 33 -4q72 -9 111.5 -33.5t39.5 -86.5q0 -73 -58 -112t-170 -39q-96 0 -151.5 30zM351.5 291.5q32.5 22.5 32.5 73.5q0 97 -120 97q-119 0 -119 -97q0 -96 119 -96q55 0 87.5 22.5zM367.5 -126
q33.5 18 33.5 56q0 35 -33 47t-99 19q-60 6 -82 13q-66 -28 -66 -81q0 -72 143 -72q70 0 103.5 18z" />
    <glyph glyph-name="h" unicode="h" horiz-adv-x="565" 
d="M92 20v710q0 22 40 22h4q40 0 40 -22v-270q30 30 69.5 49.5t83.5 19.5q63 0 111 -35.5t48 -126.5v-347q0 -22 -40 -22h-4q-40 0 -40 22v339q0 45 -26 71t-76 26q-33 0 -61 -15.5t-46.5 -34t-18.5 -20.5v-366q0 -22 -40 -22h-4q-40 0 -40 22z" />
    <glyph glyph-name="i" unicode="i" horiz-adv-x="265" 
d="M87 640v56q0 24 48 24q44 0 44 -24v-56q0 -24 -48 -24q-44 0 -44 24zM91 20v483q0 22 40 22h4q40 0 40 -22v-483q0 -22 -40 -22h-4q-40 0 -40 22z" />
    <glyph glyph-name="j" unicode="j" horiz-adv-x="276" 
d="M97 640v56q0 24 48 24q44 0 44 -24v-56q0 -24 -48 -24q-44 0 -44 24zM-17 -182q0 10 6 28.5t15 18.5q5 0 14.5 -2.5t28.5 -2.5q25 0 39.5 16t14.5 58v569q0 22 40 22h4q40 0 40 -22v-577q0 -77 -39.5 -107.5t-89.5 -30.5q-73 0 -73 30z" />
    <glyph glyph-name="k" unicode="k" horiz-adv-x="521" 
d="M484 12q0 -8 -10 -11t-34 -3h-4q-21 0 -34 2.5t-20 10.5l-200 237h-4v-228q0 -22 -40 -22h-4q-40 0 -40 22v710q0 22 40 22h4q40 0 40 -22v-447h4l191 228q11 14 53 14h4q17 0 26 -3.5t9 -9.5q0 -9 -10 -20l-186 -220l206 -244q9 -10 9 -16z" />
    <glyph glyph-name="l" unicode="l" horiz-adv-x="297" 
d="M121.5 24.5q-39.5 30.5 -39.5 107.5v598q0 22 40 22h4q40 0 40 -22v-590q0 -42 14.5 -58t39.5 -16q19 0 28.5 2.5t14.5 2.5q9 0 15 -18.5t6 -28.5q0 -30 -73 -30q-50 0 -89.5 30.5z" />
    <glyph glyph-name="m" unicode="m" horiz-adv-x="848" 
d="M726 493.5q47 -35.5 47 -126.5v-347q0 -22 -40 -22h-4q-40 0 -40 22v339q0 45 -24.5 71t-71.5 26q-64 0 -123 -70q1 -7 1 -20v-346q0 -22 -40 -22h-4q-40 0 -40 22v339q0 45 -24.5 71t-71.5 26q-32 0 -59.5 -15.5t-45 -33.5t-17.5 -20v-367q0 -22 -40 -22h-4
q-40 0 -40 22v351q0 66 -6 94.5t-6 31.5q0 12 19 17.5t35 5.5q14 0 20.5 -14.5t10 -30.5t4.5 -21q28 32 67.5 53.5t84.5 21.5t84.5 -18.5t58.5 -64.5q31 36 72.5 59.5t86.5 23.5q63 0 110 -35.5z" />
    <glyph glyph-name="n" unicode="n" 
d="M86 20v351q0 66 -6 94.5t-6 31.5q0 12 19 17.5t35 5.5q14 0 20.5 -14.5t10 -30.5t4.5 -21q32 35 73 55t83 20q76 0 119.5 -43t43.5 -119v-347q0 -22 -40 -22h-4q-40 0 -40 22v339q0 46 -26.5 71.5t-75.5 25.5q-34 0 -67.5 -19t-58.5 -51v-366q0 -22 -40 -22h-4
q-40 0 -40 22z" />
    <glyph glyph-name="o" unicode="o" horiz-adv-x="569" 
d="M114.5 62q-59.5 68 -59.5 197q0 130 60 200t172 70q110 0 168.5 -69.5t58.5 -200.5q0 -130 -57.5 -197.5t-169.5 -67.5q-113 0 -172.5 68zM392 113.5q35 47.5 35 147.5t-35 148t-108 48t-107 -47.5t-34 -148.5q0 -100 34 -147.5t107 -47.5t108 47.5z" />
    <glyph glyph-name="p" unicode="p" horiz-adv-x="573" 
d="M86 -186v557q0 66 -6 94.5t-6 31.5q0 12 19 17.5t35 5.5q14 0 20.5 -14.5t10 -30.5t4.5 -21q72 75 159 75q61 0 104.5 -34.5t66.5 -95t23 -138.5q0 -85 -25.5 -145t-71.5 -91t-106 -31q-44 0 -77.5 13t-65.5 38v-231q0 -22 -40 -22h-4q-40 0 -40 22zM394 116
q34 48 34 138q0 97 -32 149.5t-91 52.5q-34 0 -69.5 -18t-65.5 -51v-274q54 -45 124 -45q66 0 100 48z" />
    <glyph glyph-name="q" unicode="q" horiz-adv-x="566" 
d="M398 -186v231q-32 -25 -65.5 -38t-77.5 -13q-60 0 -106 31t-71.5 91t-25.5 144q0 78 23.5 139t67.5 95.5t103 34.5q87 0 159 -75q8 40 16 59q5 12 27 12h4q30 0 30 -22v-689q0 -22 -40 -22h-4q-40 0 -40 22zM398 113v274q-30 33 -65.5 51t-69.5 18q-59 0 -91 -52.5
t-32 -149.5q0 -90 34 -138t100 -48q70 0 124 45z" />
    <glyph glyph-name="r" unicode="r" horiz-adv-x="366" 
d="M90 20v351q0 66 -6 94.5t-6 31.5q0 12 19 17.5t35 5.5q14 0 20.5 -14.5t10 -30.5t4.5 -21q53 75 116 75q28 0 43 -11t15 -28t-6 -35.5t-14 -18.5q-5 0 -19.5 5.5t-35.5 5.5q-23 0 -43.5 -13.5t-34.5 -29.5t-14 -18v-366q0 -22 -40 -22h-4q-40 0 -40 22z" />
    <glyph glyph-name="s" unicode="s" horiz-adv-x="413" 
d="M114.5 1.5q-36.5 10.5 -58 25.5t-21.5 27q0 10 12.5 30t22.5 20q2 0 19 -11t42.5 -20t56.5 -9q98 0 98 81q0 34 -22 54t-78 36q-79 23 -109 57.5t-30 92.5q0 42 21.5 75t59 51.5t85.5 18.5q51 0 91.5 -13t40.5 -30q0 -13 -11.5 -33.5t-20.5 -20.5q-3 1 -26.5 13.5
t-64.5 12.5q-38 0 -63.5 -17t-25.5 -46q0 -34 18 -54t60 -33q64 -20 97.5 -39.5t48 -48t14.5 -74.5q0 -44 -23.5 -79.5t-64 -56t-89.5 -20.5q-43 0 -79.5 10.5z" />
    <glyph glyph-name="t" unicode="t" horiz-adv-x="342" 
d="M146.5 24.5q-39.5 30.5 -39.5 107.5v319h-50q-10 0 -15 7t-5 23v12q0 16 5 23t15 7h50l12 105q3 22 32 22h10q30 0 30 -22v-105h84q11 0 15.5 -7t4.5 -23v-12q0 -16 -4.5 -23t-15.5 -7h-84v-311q0 -42 14.5 -58t39.5 -16q19 0 28.5 2.5t14.5 2.5q9 0 15 -18.5t6 -28.5
q0 -30 -73 -30q-50 0 -89.5 30.5z" />
    <glyph glyph-name="u" unicode="u" 
d="M118.5 37q-43.5 43 -43.5 119v347q0 22 40 22h4q40 0 40 -22v-339q0 -46 26.5 -71.5t75.5 -25.5q34 0 67.5 19t58.5 51v366q0 22 40 22h4q40 0 40 -22v-355q0 -66 6 -94.5t6 -31.5q0 -12 -19 -17.5t-35 -5.5q-14 0 -20.5 15.5t-10 32.5t-4.5 22q-32 -35 -73 -55t-83 -20
q-76 0 -119.5 43z" />
    <glyph glyph-name="v" unicode="v" horiz-adv-x="485" 
d="M185 14l-161 481q-3 9 -3 13q0 17 43 17h5q35 0 40 -16l102 -319q10 -32 35 -125h4l7 30q11 57 23 93l103 321q5 16 41 16h3q37 0 37 -17q0 -5 -3 -14l-161 -480q-5 -16 -40 -16h-35q-35 0 -40 16z" />
    <glyph glyph-name="w" unicode="w" horiz-adv-x="747" 
d="M167 14l-132 474q-5 15 -5 20q0 17 46 17q36 0 40 -16l84 -320q3 -9 7 -30.5t6 -32.5l10 -52h4q16 89 23 116l83 318q4 17 39 17h7q35 0 39 -17l84 -318q11 -44 16.5 -76.5t7.5 -41.5h2l7 42q11 57 15 74l84 321q4 16 41 16q40 0 40 -17q0 -5 -3 -14l-134 -480
q-4 -16 -40 -16h-30q-35 0 -39 16l-80 317q-4 13 -10 53l-4 26h-2l-4 -24q-6 -41 -10 -54l-82 -318q-4 -16 -40 -16h-30q-36 0 -40 16z" />
    <glyph glyph-name="x" unicode="x" horiz-adv-x="485" 
d="M30 2q-10 4 -10 13q0 7 8 18l162 235l-150 222q-8 11 -8 18q0 17 46 17h9q17 0 27 -3t16 -12l95 -143q7 -10 21 -35q14 25 21 35l96 144q9 14 45 14h4q22 0 32 -4t10 -13q0 -7 -8 -18l-151 -220l162 -237q8 -11 8 -18q0 -17 -46 -17h-9q-17 0 -27 3t-16 12l-106 159
q-7 11 -21 35q-14 -24 -21 -35l-108 -160q-10 -14 -45 -14h-3q-23 0 -33 4z" />
    <glyph glyph-name="y" unicode="y" horiz-adv-x="481" 
d="M462 508q0 -5 -3 -14l-257 -681q-8 -21 -47 -21h-15q-33 0 -33 16q0 4 5 17l84 204l-175 466q-3 9 -3 13q0 17 43 17h8q35 0 40 -16l102 -271q16 -44 32 -101h2q2 7 4 13.5t4 12.5l25 75l100 271q5 16 41 16h3q40 0 40 -17z" />
    <glyph glyph-name="z" unicode="z" horiz-adv-x="489" 
d="M45 18q-8 18 -8 33q0 7 3 11l293 389h-256q-10 0 -15 7t-5 23v12q0 16 5 23t15 7h351q7 0 13.5 -18.5t6.5 -33.5q0 -6 -2 -10l-292 -389h275q11 0 15.5 -7t4.5 -23v-12q0 -16 -4.5 -23t-15.5 -7h-370q-6 0 -14 18z" />
    <glyph glyph-name="braceleft" unicode="{" horiz-adv-x="274" 
d="M121 -112q-25 26 -25 90v167q0 55 -10 85.5t-41 43.5q-13 6 -19 13.5t-6 20.5v14q0 13 6 20.5t19 13.5q31 14 41 43.5t10 85.5v167q0 63 25 89.5t53 26.5h50q11 0 15.5 -6.5t4.5 -22.5v-4q0 -16 -4.5 -22.5t-15.5 -6.5h-22q-20 0 -27 -14.5t-7 -46.5v-176
q0 -63 -25.5 -99.5t-52.5 -55.5q12 -6 30 -23.5t33 -50.5t15 -79v-175q0 -32 7 -47t27 -15h22q11 0 15.5 -6.5t4.5 -22.5v-4q0 -16 -4.5 -22.5t-15.5 -6.5h-50q-28 0 -53 26z" />
    <glyph glyph-name="bar" unicode="|" horiz-adv-x="250" 
d="M96 -118v866q0 22 24 22h10q24 0 24 -22v-866q0 -22 -24 -22h-10q-24 0 -24 22z" />
    <glyph glyph-name="braceright" unicode="}" horiz-adv-x="274" 
d="M34.5 -131.5q-4.5 6.5 -4.5 22.5v4q0 16 4.5 22.5t15.5 6.5h22q20 0 27 15t7 47v175q0 46 15 79t33 50.5t30 23.5q-27 19 -52.5 55.5t-25.5 99.5v176q0 32 -7 46.5t-27 14.5h-22q-11 0 -15.5 6.5t-4.5 22.5v4q0 16 4.5 22.5t15.5 6.5h50q28 0 53 -26.5t25 -89.5v-167
q0 -56 10 -85.5t41 -43.5q13 -6 19 -13.5t6 -20.5v-14q0 -13 -6 -20.5t-19 -13.5q-31 -14 -41 -44t-10 -85v-167q0 -64 -25 -90t-53 -26h-50q-11 0 -15.5 6.5z" />
    <glyph glyph-name="asciitilde" unicode="~" horiz-adv-x="547" 
d="M79 231q-12 5 -12 12q0 6 5 17q16 38 40 55t57 17q25 0 51.5 -6.5t68.5 -20.5q33 -11 55.5 -17t41.5 -6q15 0 27.5 6.5t24.5 22.5q10 15 23 15q6 0 12 -3l9 -3q14 -4 14 -12q0 -6 -6 -19q-15 -39 -37 -56.5t-52 -17.5q-28 0 -58.5 8t-70.5 22q-38 13 -58.5 18.5
t-39.5 5.5q-15 0 -26 -6.5t-24 -23.5q-10 -14 -20 -14q-3 0 -13 2z" />
    <glyph glyph-name="uni00A0" unicode="&#xa0;" horiz-adv-x="240" 
 />
    <glyph glyph-name="exclamdown" unicode="&#xa1;" horiz-adv-x="294" 
d="M96 437v66q0 22 40 22h17q40 0 40 -22v-66q0 -22 -40 -22h-17q-40 0 -40 22zM82 -157q0 18 9 171t18 285q2 22 31 22h11q30 0 30 -22v-456q0 -22 -40 -22h-20q-39 0 -39 22z" />
    <glyph glyph-name="cent" unicode="&#xa2;" horiz-adv-x="486" 
d="M435.5 22.5q-19.5 -11.5 -53.5 -19.5t-73 -9v-53q0 -16 -20 -16t-20 16v54q-109 7 -163 71.5t-54 197.5q0 136 61.5 197.5t155.5 66.5v39q0 16 20 16t20 -16v-38q53 -3 91.5 -16.5t38.5 -29.5q0 -13 -11.5 -33.5t-20.5 -20.5q-2 0 -4.5 1.5t-6.5 2.5q-42 20 -87 23v-390
q50 2 101 26l11 4q10 0 22 -19.5t12 -31.5q0 -11 -19.5 -22.5zM171.5 121.5q29.5 -47.5 97.5 -54.5v389q-127 -11 -127 -190q0 -97 29.5 -144.5z" />
    <glyph glyph-name="sterling" unicode="&#xa3;" horiz-adv-x="491" 
d="M38 7q-5 7 -5 23v16q0 12 7 18t25 17q25 13 39.5 29t14.5 49v180h-55q-10 0 -15 7t-5 23v12q0 16 5 23t15 7h55v87q0 208 205 208q39 0 70 -7t31 -25q0 -9 -6 -29t-16 -20q-5 0 -23.5 4.5t-39.5 4.5q-72 0 -104.5 -31.5t-32.5 -99.5v-92h147q11 0 15.5 -7t4.5 -23v-12
q0 -16 -4.5 -23t-15.5 -7h-147v-90q0 -90 -16.5 -126t-40.5 -51h280q11 0 15.5 -7t4.5 -23v-12q0 -16 -4.5 -23t-15.5 -7h-373q-10 0 -15 7z" />
    <glyph glyph-name="currency" unicode="&#xa4;" horiz-adv-x="534" 
d="M95 152l-2 2q-8 8 -8 17q0 11 11 22l24 24q-34 45 -34 105q0 59 34 105l-24 23q-10 10 -10 22q0 9 6 16l4 5q6 8 16 8q11 0 22 -12l24 -24q48 35 105 35t104 -34l24 24q10 10 20 10t19 -9l2 -2q9 -9 9 -17q0 -11 -11 -22l-24 -24q35 -46 35 -104q0 -59 -35 -105l24 -24
q11 -11 11 -21q0 -4 -3 -9.5t-7 -9.5l-1 -1q-9 -9 -18 -9q-8 0 -21 11l-24 24q-47 -33 -104 -33q-58 0 -104 33l-25 -25q-10 -10 -21 -10q-9 0 -18 9zM345.5 240q34.5 34 34.5 82t-34.5 82.5t-82.5 34.5t-82 -34.5t-34 -82.5t34 -82t82 -34t82.5 34z" />
    <glyph glyph-name="yen" unicode="&#xa5;" horiz-adv-x="559" 
d="M533 667l-165 -244h124q11 0 15.5 -7t4.5 -23v-8q0 -16 -4.5 -23t-15.5 -7h-169v-96h169q11 0 15.5 -7t4.5 -23v-8q0 -16 -4.5 -23t-15.5 -7h-169v-171q0 -22 -40 -22h-8q-40 0 -40 22v171h-167q-10 0 -15 7t-5 23v8q0 16 5 23t15 7h167v96h-167q-10 0 -15 7t-5 23v8
q0 16 5 23t15 7h124l-166 244q-8 11 -8 18q0 17 46 17h11q17 0 27 -3t16 -12l164 -246l168 247q9 14 45 14h7q21 -1 30 -5t9 -12q0 -7 -8 -18z" />
    <glyph glyph-name="brokenbar" unicode="&#xa6;" horiz-adv-x="250" 
d="M96 425v323q0 22 24 22h10q24 0 24 -22v-323q0 -22 -24 -22h-10q-24 0 -24 22zM96 -118v322q0 22 24 22h10q24 0 24 -22v-322q0 -22 -24 -22h-10q-24 0 -24 22z" />
    <glyph glyph-name="section" unicode="&#xa7;" horiz-adv-x="429" 
d="M114 7q-40 13 -40 29q0 13 11.5 33.5t20.5 20.5q3 -1 26 -12.5t64 -11.5t62 17t21 43q0 29 -20.5 42.5t-65.5 28.5l-27 9q-54 20 -85 52.5t-31 100.5q0 36 14.5 65t38.5 50q-38 35 -38 90q0 71 47 106.5t113 35.5q51 0 91 -13t40 -29q0 -13 -11.5 -33.5t-20.5 -20.5
q-3 1 -26.5 12.5t-64.5 11.5t-61.5 -16.5t-20.5 -43.5q0 -29 21 -43t48 -22.5t36 -11.5q57 -19 90 -51.5t33 -102.5q0 -73 -55 -116q40 -33 40 -89q0 -72 -46.5 -108t-112.5 -36q-51 0 -91 13zM294 343q0 40 -26 58.5t-77 33.5q-24 -7 -40 -25.5t-16 -50.5q0 -29 13.5 -46.5
t34.5 -27t55 -19.5q56 13 56 77z" />
    <glyph glyph-name="dieresis" unicode="&#xa8;" horiz-adv-x="320" 
d="M47 629v51q0 22 44 22q40 0 40 -22v-51q0 -22 -44 -22q-40 0 -40 22zM191 629v51q0 22 44 22q40 0 40 -22v-51q0 -22 -44 -22q-40 0 -40 22z" />
    <glyph glyph-name="copyright" unicode="&#xa9;" horiz-adv-x="739" 
d="M188.5 43q-82.5 48 -130.5 130.5t-48 180.5t48 179.5t130.5 129t180.5 47.5t180.5 -47.5t131 -129t48.5 -179.5t-48.5 -180.5t-131 -130.5t-180.5 -48t-180.5 48zM525.5 85q71.5 42 113.5 113.5t42 155.5t-42 155t-113.5 112t-156.5 41q-84 0 -155.5 -41t-113.5 -112
t-42 -155t42 -155.5t113.5 -113.5t155.5 -42q85 0 156.5 42zM240 189q-47 52 -47 160q0 213 194 213q43 0 78.5 -12t35.5 -25q0 -8 -7.5 -21.5t-13.5 -13.5q-1 0 -25 13.5t-67 13.5q-72 0 -106.5 -40.5t-34.5 -127.5q0 -86 34 -126.5t104 -40.5q30 0 51 7t35.5 15t16.5 8
q6 0 13.5 -13t7.5 -19q0 -8 -17 -18.5t-45.5 -17.5t-61.5 -7q-98 0 -145 52z" />
    <glyph glyph-name="ordfeminine" unicode="&#xaa;" horiz-adv-x="319" 
d="M68.5 460q-23.5 19 -23.5 55q0 39 23.5 58.5t57.5 25t84 6.5v24q0 18 -13 29.5t-42 11.5q-34 0 -54 -9.5t-23 -10.5q-5 0 -11.5 9.5t-6.5 14.5q0 10 29 21t64 11q46 0 72 -20.5t26 -57.5v-111q0 -31 3 -45.5t3 -16.5q0 -6 -9.5 -8.5t-17.5 -2.5t-11.5 9.5t-5.5 25.5
q-34 -38 -84 -38q-37 0 -60.5 19zM174 486.5q18 8.5 36 24.5v59q-56 0 -88 -9t-32 -43q0 -40 41 -40q25 0 43 8.5z" />
    <glyph glyph-name="guillemotleft" unicode="&#xab;" horiz-adv-x="471" 
d="M187 74l-130 156q-13 16 -13 28t13 28l130 156q11 12 22 12q10 0 22.5 -10t12.5 -22q0 -9 -8 -20l-111 -144l111 -145q8 -11 8 -19q0 -9 -11.5 -21t-23.5 -12q-11 0 -22 13zM359 74l-130 156q-13 16 -13 28t13 28l130 156q11 12 22 12q10 0 22.5 -10t12.5 -22
q0 -9 -8 -20l-111 -144l111 -145q8 -11 8 -19q0 -9 -11.5 -21t-23.5 -12q-11 0 -22 13z" />
    <glyph glyph-name="logicalnot" unicode="&#xac;" horiz-adv-x="560" 
d="M449 99v166h-391q-10 0 -15 7t-5 23v13q0 16 5 23t15 7h434q16 0 23 -7t7 -23v-209q0 -22 -30 -22h-13q-30 0 -30 22z" />
    <glyph glyph-name="uni00AD" unicode="&#xad;" horiz-adv-x="320" 
d="M49 237q-5 7 -5 23v10q0 16 5 23t15 7h189q11 0 15.5 -7t4.5 -23v-10q0 -16 -4.5 -23t-15.5 -7h-189q-10 0 -15 7z" />
    <glyph glyph-name="registered" unicode="&#xae;" horiz-adv-x="739" 
d="M188.5 43q-82.5 48 -130.5 130.5t-48 180.5t48 179.5t130.5 129t180.5 47.5t180.5 -47.5t131 -129t48.5 -179.5t-48.5 -180.5t-131 -130.5t-180.5 -48t-180.5 48zM525.5 85q71.5 42 113.5 113.5t42 155.5t-42 155t-113.5 112t-156.5 41q-84 0 -155.5 -41t-113.5 -112
t-42 -155t42 -155.5t113.5 -113.5t155.5 -42q85 0 156.5 42zM249 158v383q0 10 4 14t14 4h99q71 0 106.5 -25t35.5 -79q0 -37 -18 -62.5t-50 -37.5v-2q17 -6 28.5 -23.5t24.5 -50.5l46 -116q2 -4 2 -9q0 -9 -25 -9h-6q-9 0 -15 2.5t-8 6.5l-45 116q-13 34 -32.5 46t-55.5 12
h-53v-170q0 -13 -24 -13h-4q-24 0 -24 13zM379 373q31 0 53 21.5t22 50.5q0 35 -21 52t-58 17h-74v-141h78z" />
    <glyph glyph-name="macron" unicode="&#xaf;" horiz-adv-x="320" 
d="M32 619q-5 7 -5 23v10q0 16 5 23t15 7h223q11 0 15.5 -7t4.5 -23v-10q0 -16 -4.5 -23t-15.5 -7h-223q-10 0 -15 7z" />
    <glyph glyph-name="degree" unicode="&#xb0;" horiz-adv-x="345" 
d="M103.5 458.5q-30.5 17.5 -48 48t-17.5 66.5t18 66.5t48 48.5t66 18t66.5 -18t48.5 -48.5t18 -66.5t-18 -66t-48.5 -48t-66.5 -18t-66.5 17.5zM229.5 511.5q24.5 25.5 24.5 61.5t-25 62t-59 26t-58.5 -26t-24.5 -62t24.5 -61.5t58.5 -25.5q35 0 59.5 25.5z" />
    <glyph glyph-name="plusminus" unicode="&#xb1;" horiz-adv-x="560" 
d="M255 137q-8 8 -8 22v168h-169q-14 0 -22 8t-8 22v7q0 30 30 30h169v169q0 30 30 30h7q30 0 30 -30v-169h168q30 0 30 -30v-7q0 -30 -30 -30h-168v-168q0 -30 -30 -30h-7q-14 0 -22 8zM38 30v13q0 30 30 30h424q30 0 30 -30v-13q0 -30 -30 -30h-424q-30 0 -30 30z" />
    <glyph glyph-name="uni00B2" unicode="&#xb2;" horiz-adv-x="320" 
d="M37 301.5q-3 8.5 -3 17.5q0 8 2 10l151 189q26 34 33 49.5t7 35.5q0 28 -20 44t-53 16q-25 0 -42 -6.5t-30 -15t-16 -8.5q-4 0 -11.5 11.5t-7.5 18.5q0 17 37 29.5t68 12.5q58 0 91.5 -26.5t33.5 -72.5q0 -29 -9 -51t-33.5 -54.5t-91.5 -114.5l-43 -52h169q11 0 11 -17
v-6q0 -10 -2.5 -14t-8.5 -4h-224q-5 0 -8 8.5z" />
    <glyph glyph-name="uni00B3" unicode="&#xb3;" horiz-adv-x="320" 
d="M75 299q-35 11 -35 23q0 8 8 18.5t13 10.5q3 0 30 -10t63 -10q33 0 58.5 19t25.5 62t-22.5 60t-65.5 17h-19q-12 0 -12 18v6q0 18 12 18h17q40 0 59 25t19 52q0 21 -16 38.5t-54 17.5q-37 0 -59 -9.5t-25 -9.5q-5 0 -12.5 12t-7.5 18q0 12 37 21.5t68 9.5
q54 0 86.5 -26.5t32.5 -76.5q0 -29 -17.5 -50t-43.5 -31v-3q30 -7 52 -36t22 -72q0 -62 -39.5 -92.5t-91.5 -30.5q-48 0 -83 11z" />
    <glyph glyph-name="acute" unicode="&#xb4;" horiz-adv-x="320" 
d="M74 595q0 7 14.5 34t43.5 77q8 14 23 20t39 6q25 0 36.5 -3t11.5 -10q0 -8 -15 -26.5t-79 -89.5q-16 -18 -51 -18q-23 0 -23 10z" />
    <glyph glyph-name="uni00B5" unicode="&#xb5;" horiz-adv-x="566" 
d="M487 53.5q6 -28.5 6 -31.5q0 -12 -19 -17.5t-35 -5.5q-14 0 -20.5 15.5t-10 32.5t-4.5 22q-32 -35 -73 -55t-83 -20t-79 15v-195q0 -22 -40 -22h-4q-40 0 -40 22v689q0 22 40 22h4q40 0 40 -22v-339q0 -46 26.5 -71.5t75.5 -25.5q34 0 67.5 19t58.5 51v366q0 22 40 22h4
q40 0 40 -22v-355q0 -66 6 -94.5z" />
    <glyph glyph-name="paragraph" unicode="&#xb6;" horiz-adv-x="515" 
d="M243 -151v398q-56 6 -102 38t-73 81.5t-27 106.5q0 61 30.5 113.5t83 83t113.5 30.5h213q11 0 15.5 -5.5t4.5 -18.5v-14q0 -13 -4.5 -18.5t-15.5 -5.5h-36v-789q0 -22 -24 -22h-14q-24 0 -24 22v789h-78v-789q0 -22 -24 -22h-14q-24 0 -24 22z" />
    <glyph glyph-name="periodcentered" unicode="&#xb7;" horiz-adv-x="267" 
d="M104.5 323.5q-14.5 14.5 -14.5 36.5t14.5 37t36.5 15t37 -15t15 -37t-15 -36.5t-37 -14.5t-36.5 14.5z" />
    <glyph glyph-name="cedilla" unicode="&#xb8;" horiz-adv-x="320" 
d="M247 -64q28 -15 28 -57q0 -89 -115 -89q-39 0 -77 12t-38 31q0 26 19 26q7 0 25 -7q32 -13 58 -13q57 0 57 35q0 17 -10 24.5t-29 13.5q-14 4 -20.5 8t-6.5 12q0 6 4.5 21t14.5 47h43l-14 -49h4q29 0 57 -15z" />
    <glyph glyph-name="uni00B9" unicode="&#xb9;" horiz-adv-x="217" 
d="M133.5 300.5q-6.5 3.5 -6.5 10.5v338l-74 -16q-6 0 -9 9.5t-3 20.5q0 8 10 11l106 28q7 0 12.5 -3.5t5.5 -8.5v-379q0 -7 -6.5 -10.5t-15.5 -3.5h-5q-8 0 -14.5 3.5z" />
    <glyph glyph-name="ordmasculine" unicode="&#xba;" horiz-adv-x="337" 
d="M84.5 474.5q-29.5 33.5 -29.5 97.5q0 65 30 99.5t85 34.5q54 0 83 -34.5t29 -99.5q0 -64 -28.5 -97.5t-83.5 -33.5q-56 0 -85.5 33.5zM222 500.5q17 23.5 17 72.5q0 50 -17 73.5t-54 23.5q-36 0 -53 -23.5t-17 -73.5q0 -49 17 -72.5t53 -23.5q37 0 54 23.5z" />
    <glyph glyph-name="guillemotright" unicode="&#xbb;" horiz-adv-x="471" 
d="M66 73q-12 12 -12 21q0 8 8 19l111 145l-111 144q-8 11 -8 20q0 12 12.5 22t22.5 10q12 0 22 -12l130 -156q13 -16 13 -28t-13 -28l-130 -156q-11 -13 -22 -13t-23 12zM238 73q-12 12 -12 21q0 8 8 19l111 145l-111 144q-8 11 -8 20q0 12 12.5 22t22.5 10q11 0 22 -12
l130 -156q13 -16 13 -28t-13 -28l-130 -156q-11 -13 -22 -13t-23 12z" />
    <glyph glyph-name="onequarter" unicode="&#xbc;" horiz-adv-x="671" 
d="M90 5q0 2 4 10l406 671q10 17 30 17h13q14 0 14 -7q0 -2 -4 -10l-406 -671q-10 -17 -30 -17h-13q-14 0 -14 7zM133.5 300.5q-6.5 3.5 -6.5 10.5v338l-74 -16q-6 0 -9 9.5t-3 20.5q0 8 10 11l106 28q7 0 12.5 -3.5t5.5 -8.5v-379q0 -7 -6.5 -10.5t-15.5 -3.5h-5
q-8 0 -14.5 3.5zM530 11v85h-176q-4 0 -9 10.5t-5 18.5q0 5 2 6l190 266q6 8 19 8h10q17 0 17 -13v-255h39q11 0 11 -17v-7q0 -17 -11 -17h-39v-85q0 -13 -17 -13h-14q-17 0 -17 13zM530 137v170q0 3 3 18l-2 1l-133 -189h132z" />
    <glyph glyph-name="onehalf" unicode="&#xbd;" horiz-adv-x="746" 
d="M90 5q0 2 4 10l406 671q10 17 30 17h13q14 0 14 -7q0 -2 -4 -10l-406 -671q-10 -17 -30 -17h-13q-14 0 -14 7zM133.5 300.5q-6.5 3.5 -6.5 10.5v338l-74 -16q-6 0 -9 9.5t-3 20.5q0 8 10 11l106 28q7 0 12.5 -3.5t5.5 -8.5v-379q0 -7 -6.5 -10.5t-15.5 -3.5h-5
q-8 0 -14.5 3.5zM446 8.5q-3 8.5 -3 17.5q0 8 2 10l151 189q26 34 33 49.5t7 35.5q0 28 -20 44t-53 16q-25 0 -42 -6.5t-30 -15t-16 -8.5q-4 0 -11.5 11.5t-7.5 18.5q0 17 37 29.5t68 12.5q58 0 91.5 -26.5t33.5 -72.5q0 -29 -9 -51t-33.5 -54.5t-91.5 -114.5l-43 -52h169
q11 0 11 -17v-6q0 -10 -2.5 -14t-8.5 -4h-224q-5 0 -8 8.5z" />
    <glyph glyph-name="threequarters" unicode="&#xbe;" horiz-adv-x="743" 
d="M75 299q-35 11 -35 23q0 8 8 18.5t13 10.5q3 0 30 -10t63 -10q33 0 58.5 19t25.5 62t-22.5 60t-65.5 17h-19q-12 0 -12 18v6q0 18 12 18h17q40 0 59 25t19 52q0 21 -16 38.5t-54 17.5q-37 0 -59 -9.5t-25 -9.5q-5 0 -12.5 12t-7.5 18q0 12 37 21.5t68 9.5
q54 0 86.5 -26.5t32.5 -76.5q0 -29 -17.5 -50t-43.5 -31v-3q30 -7 52 -36t22 -72q0 -62 -39.5 -92.5t-91.5 -30.5q-48 0 -83 11zM160 5q0 2 4 10l406 671q10 17 30 17h13q14 0 14 -7q0 -2 -4 -10l-406 -671q-10 -17 -30 -17h-13q-14 0 -14 7zM604 11v85h-176q-4 0 -9 10.5
t-5 18.5q0 5 2 6l190 266q6 8 19 8h10q17 0 17 -13v-255h39q11 0 11 -17v-7q0 -17 -11 -17h-39v-85q0 -13 -17 -13h-14q-17 0 -17 13zM604 137v170q0 3 3 18l-2 1l-133 -189h132z" />
    <glyph glyph-name="questiondown" unicode="&#xbf;" horiz-adv-x="425" 
d="M310 503v-66q0 -22 -40 -22h-17q-40 0 -40 22v66q0 22 40 22h17q40 0 40 -22zM297 298q0 -34 -22.5 -76t-63.5 -83q-50 -50 -72.5 -80.5t-22.5 -63.5q0 -104 126 -104q28 0 51 7t49 18q20 9 24 9q7 0 19.5 -20t12.5 -31q0 -24 -56 -40.5t-116 -16.5q-64 0 -110.5 22.5
t-70.5 61t-24 84.5t24 83t71 85q49 48 73.5 79t29.5 69q2 10 9 15t24 5h15q30 0 30 -23z" />
    <glyph glyph-name="Agrave" unicode="&#xc0;" horiz-adv-x="613" 
d="M12 15q0 5 3 14l237 657q6 16 40 16h29q36 0 40 -16l237 -658q3 -7 3 -13q0 -17 -43 -17h-8q-35 0 -40 16l-59 164h-294l-57 -164q-5 -16 -40 -16h-5q-43 0 -43 17zM424 254l-105 298q-5 16 -12 58h-2q-8 -40 -15 -58l-105 -298h239zM289 780l-38 43q-38 44 -47 55.5
t-9 17.5q0 7 11.5 10t36.5 3q24 0 39 -6t23 -20q29 -50 43.5 -77t14.5 -34q0 -10 -23 -10q-34 0 -51 18z" />
    <glyph glyph-name="Aacute" unicode="&#xc1;" horiz-adv-x="613" 
d="M12 15q0 5 3 14l237 657q6 16 40 16h29q36 0 40 -16l237 -658q3 -7 3 -13q0 -17 -43 -17h-8q-35 0 -40 16l-59 164h-294l-57 -164q-5 -16 -40 -16h-5q-43 0 -43 17zM424 254l-105 298q-5 16 -12 58h-2q-8 -40 -15 -58l-105 -298h239zM265 772q0 7 14.5 34t43.5 77
q8 14 23 20t39 6q25 0 36.5 -3t11.5 -10q0 -8 -15 -26.5t-79 -89.5q-16 -18 -51 -18q-23 0 -23 10z" />
    <glyph glyph-name="Acircumflex" unicode="&#xc2;" horiz-adv-x="613" 
d="M12 15q0 5 3 14l237 657q6 16 40 16h29q36 0 40 -16l237 -658q3 -7 3 -13q0 -17 -43 -17h-8q-35 0 -40 16l-59 164h-294l-57 -164q-5 -16 -40 -16h-5q-43 0 -43 17zM424 254l-105 298q-5 16 -12 58h-2q-8 -40 -15 -58l-105 -298h239zM186 767q0 8 6 18l56 88q15 22 46 22
h25q31 0 46 -22l57 -88q6 -9 6 -17q0 -15 -24 -15h-2q-19 0 -33 13l-63 74l-61 -74q-14 -13 -34 -13h-2q-23 0 -23 14z" />
    <glyph glyph-name="Atilde" unicode="&#xc3;" horiz-adv-x="613" 
d="M12 15q0 5 3 14l237 657q6 16 40 16h29q36 0 40 -16l237 -658q3 -7 3 -13q0 -17 -43 -17h-8q-35 0 -40 16l-59 164h-294l-57 -164q-5 -16 -40 -16h-5q-43 0 -43 17zM424 254l-105 298q-5 16 -12 58h-2q-8 -40 -15 -58l-105 -298h239zM144 773q-10 4 -10 12q0 6 3 13
q16 37 38.5 53t53.5 16q21 0 42 -5.5t55 -17.5q29 -10 45.5 -15t31.5 -5q14 0 24 6.5t20 22.5q10 15 20 15q6 0 10 -3l8 -3q12 -4 12 -12q0 -6 -5 -14q-16 -36 -38 -52t-53 -16q-36 0 -100 24q-28 10 -45 14.5t-32 4.5q-13 0 -22 -6.5t-20 -23.5q-8 -14 -17 -14q-3 0 -11 2z
" />
    <glyph glyph-name="Adieresis" unicode="&#xc4;" horiz-adv-x="613" 
d="M12 15q0 5 3 14l237 657q6 16 40 16h29q36 0 40 -16l237 -658q3 -7 3 -13q0 -17 -43 -17h-8q-35 0 -40 16l-59 164h-294l-57 -164q-5 -16 -40 -16h-5q-43 0 -43 17zM424 254l-105 298q-5 16 -12 58h-2q-8 -40 -15 -58l-105 -298h239zM193 806v51q0 22 44 22q40 0 40 -22
v-51q0 -22 -44 -22q-40 0 -40 22zM337 806v51q0 22 44 22q40 0 40 -22v-51q0 -22 -44 -22q-40 0 -40 22z" />
    <glyph glyph-name="Aring" unicode="&#xc5;" horiz-adv-x="613" 
d="M12 15q0 5 3 14l237 657q6 16 40 16h29q36 0 40 -16l237 -658q3 -7 3 -13q0 -17 -43 -17h-8q-35 0 -40 16l-59 164h-294l-57 -164q-5 -16 -40 -16h-5q-43 0 -43 17zM424 254l-105 298q-5 16 -12 58h-2q-8 -40 -15 -58l-105 -298h239zM246.5 765.5q-24.5 24.5 -24.5 59.5
t24.5 60t59.5 25t60 -25t25 -60t-25 -59.5t-60 -24.5t-59.5 24.5zM341.5 790q14.5 14 14.5 35t-14.5 35.5t-35.5 14.5t-35 -14.5t-14 -35.5t14 -35t35 -14t35.5 14z" />
    <glyph glyph-name="AE" unicode="&#xc6;" horiz-adv-x="915" 
d="M-2.5 2q-8.5 4 -8.5 13q0 8 4 16l321 642q7 14 17 20.5t26 6.5h445q11 0 15.5 -7t4.5 -23v-16q0 -16 -4.5 -23t-15.5 -7h-362l50 -228h282q11 0 15.5 -7t4.5 -23v-16q0 -16 -4.5 -23t-15.5 -7h-266l53 -244h244q11 0 15.5 -7t4.5 -23v-16q0 -16 -4.5 -23t-15.5 -7h-287
q-30 0 -36 29l-32 149h-295l-80 -164q-7 -16 -40 -16h-5q-22 0 -30.5 4zM431 253l-64 299l-4 58h-2l-21 -58l-148 -299h239z" />
    <glyph glyph-name="Ccedilla" unicode="&#xc7;" horiz-adv-x="619" 
d="M573 98q13 -22 13 -32q0 -15 -32 -33q-30 -17 -75.5 -28t-97.5 -11l-12 -43h4q29 0 57 -15t28 -57q0 -89 -115 -89q-39 0 -77 12t-38 31q0 26 19 26q8 0 25 -7q33 -13 58 -13q57 0 57 35q0 17 -10 24.5t-29 13.5q-14 4 -20.5 8t-6.5 12q0 6 4 20t14 43q-144 11 -213 97.5
t-69 257.5q0 356 324 356q49 0 94.5 -10.5t72.5 -25.5q24 -14 24 -26q0 -14 -12.5 -36t-21.5 -22q-3 0 -25.5 12.5t-55 22t-74.5 9.5q-121 0 -178 -67t-57 -214q0 -144 56.5 -211.5t174.5 -67.5q49 0 84 11.5t69 29.5q14 9 19 9q9 0 22 -22z" />
    <glyph glyph-name="Egrave" unicode="&#xc8;" horiz-adv-x="546" 
d="M104 7q-7 7 -7 23v640q0 16 7 23t23 7h349q11 0 15.5 -7t4.5 -23v-16q0 -16 -4.5 -23t-15.5 -7h-291v-228h261q11 0 15.5 -7t4.5 -23v-16q0 -16 -4.5 -23t-15.5 -7h-261v-244h292q11 0 15.5 -7t4.5 -23v-16q0 -16 -4.5 -23t-15.5 -7h-350q-16 0 -23 7zM278 780l-38 43
q-38 44 -47 55.5t-9 17.5q0 7 11.5 10t36.5 3q24 0 39 -6t23 -20q29 -50 43.5 -77t14.5 -34q0 -10 -23 -10q-34 0 -51 18z" />
    <glyph glyph-name="Eacute" unicode="&#xc9;" horiz-adv-x="546" 
d="M104 7q-7 7 -7 23v640q0 16 7 23t23 7h349q11 0 15.5 -7t4.5 -23v-16q0 -16 -4.5 -23t-15.5 -7h-291v-228h261q11 0 15.5 -7t4.5 -23v-16q0 -16 -4.5 -23t-15.5 -7h-261v-244h292q11 0 15.5 -7t4.5 -23v-16q0 -16 -4.5 -23t-15.5 -7h-350q-16 0 -23 7zM254 772
q0 7 14.5 34t43.5 77q8 14 23 20t39 6q25 0 36.5 -3t11.5 -10q0 -8 -15 -26.5t-79 -89.5q-16 -18 -51 -18q-23 0 -23 10z" />
    <glyph glyph-name="Ecircumflex" unicode="&#xca;" horiz-adv-x="546" 
d="M104 7q-7 7 -7 23v640q0 16 7 23t23 7h349q11 0 15.5 -7t4.5 -23v-16q0 -16 -4.5 -23t-15.5 -7h-291v-228h261q11 0 15.5 -7t4.5 -23v-16q0 -16 -4.5 -23t-15.5 -7h-261v-244h292q11 0 15.5 -7t4.5 -23v-16q0 -16 -4.5 -23t-15.5 -7h-350q-16 0 -23 7zM175 767q0 8 6 18
l56 88q15 22 46 22h25q31 0 46 -22l57 -88q6 -9 6 -17q0 -15 -24 -15h-2q-19 0 -33 13l-63 74l-61 -74q-14 -13 -34 -13h-2q-23 0 -23 14z" />
    <glyph glyph-name="Edieresis" unicode="&#xcb;" horiz-adv-x="546" 
d="M104 7q-7 7 -7 23v640q0 16 7 23t23 7h349q11 0 15.5 -7t4.5 -23v-16q0 -16 -4.5 -23t-15.5 -7h-291v-228h261q11 0 15.5 -7t4.5 -23v-16q0 -16 -4.5 -23t-15.5 -7h-261v-244h292q11 0 15.5 -7t4.5 -23v-16q0 -16 -4.5 -23t-15.5 -7h-350q-16 0 -23 7zM182 806v51
q0 22 44 22q40 0 40 -22v-51q0 -22 -44 -22q-40 0 -40 22zM326 806v51q0 22 44 22q40 0 40 -22v-51q0 -22 -44 -22q-40 0 -40 22z" />
    <glyph glyph-name="Igrave" unicode="&#xcc;" horiz-adv-x="283" 
d="M97 20v660q0 22 40 22h8q40 0 40 -22v-660q0 -22 -40 -22h-8q-40 0 -40 22zM123 780l-38 43q-38 44 -47 55.5t-9 17.5q0 7 11.5 10t36.5 3q24 0 39 -6t23 -20q29 -50 43.5 -77t14.5 -34q0 -10 -23 -10q-34 0 -51 18z" />
    <glyph glyph-name="Iacute" unicode="&#xcd;" horiz-adv-x="282" 
d="M97 20v660q0 22 40 22h8q40 0 40 -22v-660q0 -22 -40 -22h-8q-40 0 -40 22zM99 772q0 7 14.5 34t43.5 77q8 14 23 20t39 6q25 0 36.5 -3t11.5 -10q0 -8 -15 -26.5t-79 -89.5q-16 -18 -51 -18q-23 0 -23 10z" />
    <glyph glyph-name="Icircumflex" unicode="&#xce;" horiz-adv-x="282" 
d="M97 20v660q0 22 40 22h8q40 0 40 -22v-660q0 -22 -40 -22h-8q-40 0 -40 22zM20 767q0 8 6 18l56 88q15 22 46 22h25q31 0 46 -22l57 -88q6 -9 6 -17q0 -15 -24 -15h-2q-19 0 -33 13l-63 74l-61 -74q-14 -13 -34 -13h-2q-23 0 -23 14z" />
    <glyph glyph-name="Idieresis" unicode="&#xcf;" horiz-adv-x="283" 
d="M97 20v660q0 22 40 22h8q40 0 40 -22v-660q0 -22 -40 -22h-8q-40 0 -40 22zM27 806v51q0 22 44 22q40 0 40 -22v-51q0 -22 -44 -22q-40 0 -40 22zM171 806v51q0 22 44 22q40 0 40 -22v-51q0 -22 -44 -22q-40 0 -40 22z" />
    <glyph glyph-name="Eth" unicode="&#xd0;" horiz-adv-x="696" 
d="M553.5 616.5q84.5 -83.5 84.5 -266.5q0 -184 -84.5 -267t-224.5 -83h-202q-16 0 -23 7t-7 23v290h-77q-10 0 -15 7t-5 23v16q0 16 5 23t15 7h77v274q0 16 7 23t23 7h202q140 0 224.5 -83.5zM485 142q62 66 62 208q0 141 -62 207.5t-163 66.5h-137v-228h98q11 0 15.5 -7
t4.5 -23v-16q0 -16 -4.5 -23t-15.5 -7h-98v-244h137q101 0 163 66z" />
    <glyph glyph-name="Ntilde" unicode="&#xd1;" horiz-adv-x="719" 
d="M90 20v660q0 22 40 22h21q16 0 25.5 -4t16.5 -15l314 -474q17 -25 33 -60l4 1q-2 23 -2 68v462q0 22 40 22h7q40 0 40 -22v-660q0 -22 -40 -22h-20q-26 0 -35 14l-322 486q-17 25 -33 60l-4 -1q2 -23 2 -68v-469q0 -22 -40 -22h-7q-40 0 -40 22zM197 773q-10 4 -10 12
q0 6 3 13q16 37 38.5 53t53.5 16q21 0 42 -5.5t55 -17.5q29 -10 45.5 -15t31.5 -5q14 0 24 6.5t20 22.5q10 15 20 15q6 0 10 -3l8 -3q12 -4 12 -12q0 -6 -5 -14q-16 -36 -38 -52t-53 -16q-36 0 -100 24q-28 10 -45 14.5t-32 4.5q-13 0 -22 -6.5t-20 -23.5q-8 -14 -17 -14
q-3 0 -11 2z" />
    <glyph glyph-name="Ograve" unicode="&#xd2;" horiz-adv-x="731" 
d="M136 85.5q-79 91.5 -79 266.5t78.5 264.5t229.5 89.5t230 -89.5t79 -264.5t-79 -266.5t-230 -91.5q-150 0 -229 91.5zM527 142q56 72 56 210q0 137 -56 207.5t-162 70.5t-161.5 -70.5t-55.5 -207.5q0 -138 55.5 -210t161.5 -72t162 72zM348 780l-38 43q-38 44 -47 55.5
t-9 17.5q0 7 11.5 10t36.5 3q24 0 39 -6t23 -20q29 -50 43.5 -77t14.5 -34q0 -10 -23 -10q-34 0 -51 18z" />
    <glyph glyph-name="Oacute" unicode="&#xd3;" horiz-adv-x="731" 
d="M136 85.5q-79 91.5 -79 266.5t78.5 264.5t229.5 89.5t230 -89.5t79 -264.5t-79 -266.5t-230 -91.5q-150 0 -229 91.5zM527 142q56 72 56 210q0 137 -56 207.5t-162 70.5t-161.5 -70.5t-55.5 -207.5q0 -138 55.5 -210t161.5 -72t162 72zM324 772q0 7 14.5 34t43.5 77
q8 14 23 20t39 6q25 0 36.5 -3t11.5 -10q0 -8 -15 -26.5t-79 -89.5q-16 -18 -51 -18q-23 0 -23 10z" />
    <glyph glyph-name="Ocircumflex" unicode="&#xd4;" horiz-adv-x="731" 
d="M136 85.5q-79 91.5 -79 266.5t78.5 264.5t229.5 89.5t230 -89.5t79 -264.5t-79 -266.5t-230 -91.5q-150 0 -229 91.5zM527 142q56 72 56 210q0 137 -56 207.5t-162 70.5t-161.5 -70.5t-55.5 -207.5q0 -138 55.5 -210t161.5 -72t162 72zM245 767q0 8 6 18l56 88
q15 22 46 22h25q31 0 46 -22l57 -88q6 -9 6 -17q0 -15 -24 -15h-2q-19 0 -33 13l-63 74l-61 -74q-14 -13 -34 -13h-2q-23 0 -23 14z" />
    <glyph glyph-name="Otilde" unicode="&#xd5;" horiz-adv-x="731" 
d="M136 85.5q-79 91.5 -79 266.5t78.5 264.5t229.5 89.5t230 -89.5t79 -264.5t-79 -266.5t-230 -91.5q-150 0 -229 91.5zM527 142q56 72 56 210q0 137 -56 207.5t-162 70.5t-161.5 -70.5t-55.5 -207.5q0 -138 55.5 -210t161.5 -72t162 72zM203 773q-10 4 -10 12q0 6 3 13
q16 37 38.5 53t53.5 16q21 0 42 -5.5t55 -17.5q29 -10 45.5 -15t31.5 -5q14 0 24 6.5t20 22.5q10 15 20 15q6 0 10 -3l8 -3q12 -4 12 -12q0 -6 -5 -14q-16 -36 -38 -52t-53 -16q-36 0 -100 24q-28 10 -45 14.5t-32 4.5q-13 0 -22 -6.5t-20 -23.5q-8 -14 -17 -14q-3 0 -11 2z
" />
    <glyph glyph-name="Odieresis" unicode="&#xd6;" horiz-adv-x="731" 
d="M136 85.5q-79 91.5 -79 266.5t78.5 264.5t229.5 89.5t230 -89.5t79 -264.5t-79 -266.5t-230 -91.5q-150 0 -229 91.5zM527 142q56 72 56 210q0 137 -56 207.5t-162 70.5t-161.5 -70.5t-55.5 -207.5q0 -138 55.5 -210t161.5 -72t162 72zM252 806v51q0 22 44 22
q40 0 40 -22v-51q0 -22 -44 -22q-40 0 -40 22zM396 806v51q0 22 44 22q40 0 40 -22v-51q0 -22 -44 -22q-40 0 -40 22z" />
    <glyph glyph-name="multiply" unicode="&#xd7;" horiz-adv-x="560" 
d="M498 56q7 -7 7 -14t-7 -14l-19 -20q-8 -8 -14 -8t-14 8l-171 173l-171 -173q-8 -8 -14 -8t-14 8l-19 20q-8 8 -8 14t8 14l171 172l-171 171q-8 8 -8 14t8 14l19 20q7 7 14 7t14 -7l171 -172l171 172q7 7 14 7t14 -7l19 -20q7 -7 7 -14t-7 -14l-171 -171z" />
    <glyph glyph-name="Oslash" unicode="&#xd8;" horiz-adv-x="731" 
d="M674 352q0 -175 -79 -266.5t-230 -91.5q-149 0 -228 90l-67 -74q-7 -9 -14 -9t-14.5 7t-7.5 14t6 14l73 81q-56 88 -56 235q0 175 78.5 264.5t229.5 89.5q136 0 214 -72l54 60q7 8 14 8t14.5 -7t7.5 -13t-6 -14l-58 -64q69 -89 69 -252zM177 188l343 380q-56 62 -155 62
q-106 0 -161.5 -70.5t-55.5 -207.5q0 -98 29 -164zM527 142q56 72 56 210q0 115 -39 183l-347 -384q57 -81 168 -81q106 0 162 72z" />
    <glyph glyph-name="Ugrave" unicode="&#xd9;" horiz-adv-x="712" 
d="M153.5 54.5q-70.5 60.5 -70.5 169.5v456q0 22 40 22h8q40 0 40 -22v-459q0 -44 24 -78.5t66 -53.5t95 -19t95 19.5t66 54t24 77.5v459q0 22 40 22h8q40 0 40 -22v-456q0 -109 -71 -169.5t-202 -60.5q-132 0 -202.5 60.5zM338 780l-38 43q-38 44 -47 55.5t-9 17.5
q0 7 11.5 10t36.5 3q24 0 39 -6t23 -20q29 -50 43.5 -77t14.5 -34q0 -10 -23 -10q-34 0 -51 18z" />
    <glyph glyph-name="Uacute" unicode="&#xda;" horiz-adv-x="712" 
d="M153.5 54.5q-70.5 60.5 -70.5 169.5v456q0 22 40 22h8q40 0 40 -22v-459q0 -44 24 -78.5t66 -53.5t95 -19t95 19.5t66 54t24 77.5v459q0 22 40 22h8q40 0 40 -22v-456q0 -109 -71 -169.5t-202 -60.5q-132 0 -202.5 60.5zM314 772q0 7 14.5 34t43.5 77q8 14 23 20t39 6
q25 0 36.5 -3t11.5 -10q0 -8 -15 -26.5t-79 -89.5q-16 -18 -51 -18q-23 0 -23 10z" />
    <glyph glyph-name="Ucircumflex" unicode="&#xdb;" horiz-adv-x="712" 
d="M153.5 54.5q-70.5 60.5 -70.5 169.5v456q0 22 40 22h8q40 0 40 -22v-459q0 -44 24 -78.5t66 -53.5t95 -19t95 19.5t66 54t24 77.5v459q0 22 40 22h8q40 0 40 -22v-456q0 -109 -71 -169.5t-202 -60.5q-132 0 -202.5 60.5zM235 767q0 8 6 18l56 88q15 22 46 22h25
q31 0 46 -22l57 -88q6 -9 6 -17q0 -15 -24 -15h-2q-19 0 -33 13l-63 74l-61 -74q-14 -13 -34 -13h-2q-23 0 -23 14z" />
    <glyph glyph-name="Udieresis" unicode="&#xdc;" horiz-adv-x="712" 
d="M153.5 54.5q-70.5 60.5 -70.5 169.5v456q0 22 40 22h8q40 0 40 -22v-459q0 -44 24 -78.5t66 -53.5t95 -19t95 19.5t66 54t24 77.5v459q0 22 40 22h8q40 0 40 -22v-456q0 -109 -71 -169.5t-202 -60.5q-132 0 -202.5 60.5zM242 806v51q0 22 44 22q40 0 40 -22v-51
q0 -22 -44 -22q-40 0 -40 22zM386 806v51q0 22 44 22q40 0 40 -22v-51q0 -22 -44 -22q-40 0 -40 22z" />
    <glyph glyph-name="Yacute" unicode="&#xdd;" horiz-adv-x="559" 
d="M235 20v339l-209 308q-8 11 -8 18q0 17 46 17h11q17 0 27 -3t16 -12l164 -246l168 247q9 14 45 14h7q21 -1 30 -5t9 -12q0 -7 -8 -18l-210 -311v-336q0 -22 -40 -22h-8q-40 0 -40 22zM238 772q0 7 14.5 34t43.5 77q8 14 23 20t39 6q25 0 36.5 -3t11.5 -10q0 -8 -15 -26.5
t-79 -89.5q-16 -18 -51 -18q-23 0 -23 10z" />
    <glyph glyph-name="Thorn" unicode="&#xde;" horiz-adv-x="570" 
d="M85 20v660q0 22 40 22h8q40 0 40 -22v-102h145q88 0 155.5 -42t67.5 -154q0 -83 -39 -129t-87 -61.5t-87 -15.5h-155v-156q0 -22 -40 -22h-8q-40 0 -40 22zM329 252q43 0 82 29t39 101q0 67 -40 93.5t-95 26.5h-142v-250h156z" />
    <glyph glyph-name="germandbls" unicode="&#xdf;" horiz-adv-x="554" 
d="M90 20v501q0 54 24.5 96t69 65.5t103.5 23.5q90 0 144 -40.5t54 -129.5q0 -44 -28.5 -87t-73.5 -62v-3q62 -15 96.5 -63.5t34.5 -114.5q0 -65 -28.5 -111.5t-77.5 -70.5t-109 -24h-32q-10 0 -15 7t-5 23v12q0 16 5 23t15 7h33q54 0 90 36t36 98q0 61 -36 97.5t-90 36.5
h-33q-10 0 -15 7t-5 23v12q0 16 5 23t15 7h10q30 0 57.5 15.5t44.5 42t17 58.5q0 59 -31.5 82.5t-79.5 23.5q-51 0 -81 -30.5t-30 -82.5v-501q0 -22 -40 -22h-4q-40 0 -40 22z" />
    <glyph glyph-name="agrave" unicode="&#xe0;" horiz-adv-x="545" 
d="M96 32q-47 38 -47 112q0 79 47.5 118.5t116.5 51t168 12.5v47q0 37 -26 60.5t-84 23.5q-44 0 -77 -10.5t-55 -21t-24 -10.5q-10 0 -22.5 20t-12.5 30q0 13 26.5 28t70.5 25.5t91 10.5q93 0 145 -41.5t52 -115.5v-224q0 -66 6 -94.5t6 -31.5q0 -12 -19 -17.5t-35 -5.5
q-14 0 -20.5 15.5t-10 32.5t-4.5 22q-68 -75 -168 -75q-77 0 -124 38zM308.5 85q35.5 18 72.5 51v118q-75 -1 -122.5 -6t-83.5 -28t-36 -71q0 -40 21.5 -61t63.5 -21q49 0 84.5 18zM255 603l-38 43q-38 44 -47 55.5t-9 17.5q0 7 11.5 10t36.5 3q24 0 39 -6t23 -20
q29 -50 43.5 -77t14.5 -34q0 -10 -23 -10q-34 0 -51 18z" />
    <glyph glyph-name="aacute" unicode="&#xe1;" horiz-adv-x="545" 
d="M96 32q-47 38 -47 112q0 79 47.5 118.5t116.5 51t168 12.5v47q0 37 -26 60.5t-84 23.5q-44 0 -77 -10.5t-55 -21t-24 -10.5q-10 0 -22.5 20t-12.5 30q0 13 26.5 28t70.5 25.5t91 10.5q93 0 145 -41.5t52 -115.5v-224q0 -66 6 -94.5t6 -31.5q0 -12 -19 -17.5t-35 -5.5
q-14 0 -20.5 15.5t-10 32.5t-4.5 22q-68 -75 -168 -75q-77 0 -124 38zM308.5 85q35.5 18 72.5 51v118q-75 -1 -122.5 -6t-83.5 -28t-36 -71q0 -40 21.5 -61t63.5 -21q49 0 84.5 18zM231 595q0 7 14.5 34t43.5 77q8 14 23 20t39 6q25 0 36.5 -3t11.5 -10q0 -8 -15 -26.5
t-79 -89.5q-16 -18 -51 -18q-23 0 -23 10z" />
    <glyph glyph-name="acircumflex" unicode="&#xe2;" horiz-adv-x="545" 
d="M96 32q-47 38 -47 112q0 79 47.5 118.5t116.5 51t168 12.5v47q0 37 -26 60.5t-84 23.5q-44 0 -77 -10.5t-55 -21t-24 -10.5q-10 0 -22.5 20t-12.5 30q0 13 26.5 28t70.5 25.5t91 10.5q93 0 145 -41.5t52 -115.5v-224q0 -66 6 -94.5t6 -31.5q0 -12 -19 -17.5t-35 -5.5
q-14 0 -20.5 15.5t-10 32.5t-4.5 22q-68 -75 -168 -75q-77 0 -124 38zM308.5 85q35.5 18 72.5 51v118q-75 -1 -122.5 -6t-83.5 -28t-36 -71q0 -40 21.5 -61t63.5 -21q49 0 84.5 18zM152 590q0 8 6 18l56 88q15 22 46 22h25q31 0 46 -22l57 -88q6 -9 6 -17q0 -15 -24 -15h-2
q-19 0 -33 13l-63 74l-61 -74q-14 -13 -34 -13h-2q-23 0 -23 14z" />
    <glyph glyph-name="atilde" unicode="&#xe3;" horiz-adv-x="545" 
d="M96 32q-47 38 -47 112q0 79 47.5 118.5t116.5 51t168 12.5v47q0 37 -26 60.5t-84 23.5q-44 0 -77 -10.5t-55 -21t-24 -10.5q-10 0 -22.5 20t-12.5 30q0 13 26.5 28t70.5 25.5t91 10.5q93 0 145 -41.5t52 -115.5v-224q0 -66 6 -94.5t6 -31.5q0 -12 -19 -17.5t-35 -5.5
q-14 0 -20.5 15.5t-10 32.5t-4.5 22q-68 -75 -168 -75q-77 0 -124 38zM308.5 85q35.5 18 72.5 51v118q-75 -1 -122.5 -6t-83.5 -28t-36 -71q0 -40 21.5 -61t63.5 -21q49 0 84.5 18zM110 596q-10 4 -10 12q0 6 3 13q16 37 38.5 53t53.5 16q21 0 42 -5.5t55 -17.5
q29 -10 45.5 -15t31.5 -5q14 0 24 6.5t20 22.5q10 15 20 15q6 0 10 -3l8 -3q12 -4 12 -12q0 -6 -5 -14q-16 -36 -38 -52t-53 -16q-36 0 -100 24q-28 10 -45 14.5t-32 4.5q-13 0 -22 -6.5t-20 -23.5q-8 -14 -17 -14q-3 0 -11 2z" />
    <glyph glyph-name="adieresis" unicode="&#xe4;" horiz-adv-x="545" 
d="M96 32q-47 38 -47 112q0 79 47.5 118.5t116.5 51t168 12.5v47q0 37 -26 60.5t-84 23.5q-44 0 -77 -10.5t-55 -21t-24 -10.5q-10 0 -22.5 20t-12.5 30q0 13 26.5 28t70.5 25.5t91 10.5q93 0 145 -41.5t52 -115.5v-224q0 -66 6 -94.5t6 -31.5q0 -12 -19 -17.5t-35 -5.5
q-14 0 -20.5 15.5t-10 32.5t-4.5 22q-68 -75 -168 -75q-77 0 -124 38zM308.5 85q35.5 18 72.5 51v118q-75 -1 -122.5 -6t-83.5 -28t-36 -71q0 -40 21.5 -61t63.5 -21q49 0 84.5 18zM159 629v51q0 22 44 22q40 0 40 -22v-51q0 -22 -44 -22q-40 0 -40 22zM303 629v51
q0 22 44 22q40 0 40 -22v-51q0 -22 -44 -22q-40 0 -40 22z" />
    <glyph glyph-name="aring" unicode="&#xe5;" horiz-adv-x="545" 
d="M96 32q-47 38 -47 112q0 79 47.5 118.5t116.5 51t168 12.5v47q0 37 -26 60.5t-84 23.5q-44 0 -77 -10.5t-55 -21t-24 -10.5q-10 0 -22.5 20t-12.5 30q0 13 26.5 28t70.5 25.5t91 10.5q93 0 145 -41.5t52 -115.5v-224q0 -66 6 -94.5t6 -31.5q0 -12 -19 -17.5t-35 -5.5
q-14 0 -20.5 15.5t-10 32.5t-4.5 22q-68 -75 -168 -75q-77 0 -124 38zM308.5 85q35.5 18 72.5 51v118q-75 -1 -122.5 -6t-83.5 -28t-36 -71q0 -40 21.5 -61t63.5 -21q49 0 84.5 18zM212.5 588.5q-24.5 24.5 -24.5 59.5t24.5 60t59.5 25t60 -25t25 -60t-25 -59.5t-60 -24.5
t-59.5 24.5zM307.5 613q14.5 14 14.5 35t-14.5 35.5t-35.5 14.5t-35 -14.5t-14 -35.5t14 -35t35 -14t35.5 14z" />
    <glyph glyph-name="ae" unicode="&#xe6;" horiz-adv-x="819" 
d="M96 32q-47 38 -47 112q0 67 41 103.5t103.5 49.5t148.5 15q6 62 28 104q-26 41 -99 41q-44 0 -77 -10.5t-55 -21t-24 -10.5q-10 0 -22.5 20t-12.5 30q0 13 26.5 28t70.5 25.5t91 10.5q99 0 152 -48q56 48 148 48q102 0 154 -63t52 -184q0 -9 -12 -25t-21 -16h-312
q6 -91 42 -133t108 -42q42 0 72.5 10.5t50.5 21t23 10.5q10 0 22.5 -20t12.5 -30q0 -12 -25 -27.5t-66.5 -26t-88.5 -10.5q-120 0 -179 63q-34 -28 -80 -45.5t-101 -17.5q-77 0 -124 38zM685 313q0 144 -120 144q-125 0 -136 -144h256zM298.5 80.5q32.5 13.5 63.5 38.5
q-22 51 -23 121q-91 -2 -145.5 -20t-54.5 -71q0 -40 21.5 -61t63.5 -21t74.5 13.5z" />
    <glyph glyph-name="ccedilla" unicode="&#xe7;" horiz-adv-x="485" 
d="M435 22.5q-20 -11.5 -54.5 -19.5t-74.5 -9l-12 -43h4q29 0 57 -15t28 -57q0 -89 -115 -89q-39 0 -77 12t-38 31q0 26 19 26q8 0 25 -7q33 -13 58 -13q57 0 57 35q0 17 -10 24.5t-29 13.5q-14 4 -20.5 8t-6.5 12q0 6 4 20t13 43q-106 8 -158.5 72.5t-52.5 196.5
q0 143 68 204t169 61q58 0 104 -14t46 -32q0 -13 -11.5 -33.5t-20.5 -20.5q-2 0 -4.5 1.5t-6.5 2.5q-54 24 -109 24q-145 0 -145 -191q0 -106 35.5 -153t119.5 -47q61 0 113 26l11 4q10 0 22 -19.5t12 -31.5q0 -11 -20 -22.5z" />
    <glyph glyph-name="egrave" unicode="&#xe8;" horiz-adv-x="539" 
d="M115 59q-60 65 -60 199q0 133 59 202t174 69q102 0 154 -66.5t52 -194.5q0 -9 -12 -25t-21 -16h-316q6 -83 43 -122t111 -39q42 0 72.5 10.5t50.5 21t23 10.5q10 0 22.5 -20t12.5 -30q0 -12 -25 -27.5t-66.5 -26t-88.5 -10.5q-125 0 -185 65zM405 299q0 158 -120 158
q-129 0 -140 -158h260zM252 603l-38 43q-38 44 -47 55.5t-9 17.5q0 7 11.5 10t36.5 3q24 0 39 -6t23 -20q29 -50 43.5 -77t14.5 -34q0 -10 -23 -10q-34 0 -51 18z" />
    <glyph glyph-name="eacute" unicode="&#xe9;" horiz-adv-x="539" 
d="M115 59q-60 65 -60 199q0 133 59 202t174 69q102 0 154 -66.5t52 -194.5q0 -9 -12 -25t-21 -16h-316q6 -83 43 -122t111 -39q42 0 72.5 10.5t50.5 21t23 10.5q10 0 22.5 -20t12.5 -30q0 -12 -25 -27.5t-66.5 -26t-88.5 -10.5q-125 0 -185 65zM405 299q0 158 -120 158
q-129 0 -140 -158h260zM228 595q0 7 14.5 34t43.5 77q8 14 23 20t39 6q25 0 36.5 -3t11.5 -10q0 -8 -15 -26.5t-79 -89.5q-16 -18 -51 -18q-23 0 -23 10z" />
    <glyph glyph-name="ecircumflex" unicode="&#xea;" horiz-adv-x="539" 
d="M115 59q-60 65 -60 199q0 133 59 202t174 69q102 0 154 -66.5t52 -194.5q0 -9 -12 -25t-21 -16h-316q6 -83 43 -122t111 -39q42 0 72.5 10.5t50.5 21t23 10.5q10 0 22.5 -20t12.5 -30q0 -12 -25 -27.5t-66.5 -26t-88.5 -10.5q-125 0 -185 65zM405 299q0 158 -120 158
q-129 0 -140 -158h260zM149 590q0 8 6 18l56 88q15 22 46 22h25q31 0 46 -22l57 -88q6 -9 6 -17q0 -15 -24 -15h-2q-19 0 -33 13l-63 74l-61 -74q-14 -13 -34 -13h-2q-23 0 -23 14z" />
    <glyph glyph-name="edieresis" unicode="&#xeb;" horiz-adv-x="539" 
d="M115 59q-60 65 -60 199q0 133 59 202t174 69q102 0 154 -66.5t52 -194.5q0 -9 -12 -25t-21 -16h-316q6 -83 43 -122t111 -39q42 0 72.5 10.5t50.5 21t23 10.5q10 0 22.5 -20t12.5 -30q0 -12 -25 -27.5t-66.5 -26t-88.5 -10.5q-125 0 -185 65zM405 299q0 158 -120 158
q-129 0 -140 -158h260zM156 629v51q0 22 44 22q40 0 40 -22v-51q0 -22 -44 -22q-40 0 -40 22zM300 629v51q0 22 44 22q40 0 40 -22v-51q0 -22 -44 -22q-40 0 -40 22z" />
    <glyph glyph-name="igrave" unicode="&#xec;" horiz-adv-x="265" 
d="M91 20v483q0 22 40 22h4q40 0 40 -22v-483q0 -22 -40 -22h-4q-40 0 -40 22zM115 603l-38 43q-38 44 -47 55.5t-9 17.5q0 7 11.5 10t36.5 3q24 0 39 -6t23 -20q29 -50 43.5 -77t14.5 -34q0 -10 -23 -10q-34 0 -51 18z" />
    <glyph glyph-name="iacute" unicode="&#xed;" horiz-adv-x="265" 
d="M91 20v483q0 22 40 22h4q40 0 40 -22v-483q0 -22 -40 -22h-4q-40 0 -40 22zM91 595q0 7 14.5 34t43.5 77q8 14 23 20t39 6q25 0 36.5 -3t11.5 -10q0 -8 -15 -26.5t-79 -89.5q-16 -18 -51 -18q-23 0 -23 10z" />
    <glyph glyph-name="icircumflex" unicode="&#xee;" horiz-adv-x="265" 
d="M91 20v483q0 22 40 22h4q40 0 40 -22v-483q0 -22 -40 -22h-4q-40 0 -40 22zM12 590q0 8 6 18l56 88q15 22 46 22h25q31 0 46 -22l57 -88q6 -9 6 -17q0 -15 -24 -15h-2q-19 0 -33 13l-63 74l-61 -74q-14 -13 -34 -13h-2q-23 0 -23 14z" />
    <glyph glyph-name="idieresis" unicode="&#xef;" horiz-adv-x="265" 
d="M91 20v483q0 22 40 22h4q40 0 40 -22v-483q0 -22 -40 -22h-4q-40 0 -40 22zM19 629v51q0 22 44 22q40 0 40 -22v-51q0 -22 -44 -22q-40 0 -40 22zM163 629v51q0 22 44 22q40 0 40 -22v-51q0 -22 -44 -22q-40 0 -40 22z" />
    <glyph glyph-name="eth" unicode="&#xf0;" horiz-adv-x="569" 
d="M483.5 443.5q30.5 -91.5 30.5 -184.5q0 -130 -57.5 -197.5t-169.5 -67.5q-113 0 -172.5 68t-59.5 197q0 130 60 200t172 70q44 0 80 -12q-22 48 -46 90l-86 -12q-10 0 -18 10.5t-8 21.5q0 12 15 13l72 10q-11 15 -18.5 28t-7.5 20q0 13 16 14q14 2 27 2q16 0 26 -12
q20 -24 33 -42l78 11q12 0 18.5 -12t6.5 -20q0 -11 -15 -13l-60 -8q53 -83 83.5 -174.5zM392 113.5q35 47.5 35 147.5t-35 148t-108 48t-108 -48t-35 -148t35 -147.5t108 -47.5t108 47.5z" />
    <glyph glyph-name="ntilde" unicode="&#xf1;" 
d="M86 20v351q0 66 -6 94.5t-6 31.5q0 12 19 17.5t35 5.5q14 0 20.5 -14.5t10 -30.5t4.5 -21q32 35 73 55t83 20q76 0 119.5 -43t43.5 -119v-347q0 -22 -40 -22h-4q-40 0 -40 22v339q0 46 -26.5 71.5t-75.5 25.5q-34 0 -67.5 -19t-58.5 -51v-366q0 -22 -40 -22h-4
q-40 0 -40 22zM116 596q-10 4 -10 12q0 6 3 13q16 37 38.5 53t53.5 16q21 0 42 -5.5t55 -17.5q29 -10 45.5 -15t31.5 -5q14 0 24 6.5t20 22.5q10 15 20 15q6 0 10 -3l8 -3q12 -4 12 -12q0 -6 -5 -14q-16 -36 -38 -52t-53 -16q-36 0 -100 24q-28 10 -45 14.5t-32 4.5
q-13 0 -22 -6.5t-20 -23.5q-8 -14 -17 -14q-3 0 -11 2z" />
    <glyph glyph-name="ograve" unicode="&#xf2;" horiz-adv-x="569" 
d="M114.5 62q-59.5 68 -59.5 197q0 130 60 200t172 70q110 0 168.5 -69.5t58.5 -200.5q0 -130 -57.5 -197.5t-169.5 -67.5q-113 0 -172.5 68zM392 113.5q35 47.5 35 147.5t-35 148t-108 48t-107 -47.5t-34 -148.5q0 -100 34 -147.5t107 -47.5t108 47.5zM267 603l-38 43
q-38 44 -47 55.5t-9 17.5q0 7 11.5 10t36.5 3q24 0 39 -6t23 -20q29 -50 43.5 -77t14.5 -34q0 -10 -23 -10q-34 0 -51 18z" />
    <glyph glyph-name="oacute" unicode="&#xf3;" horiz-adv-x="569" 
d="M114.5 62q-59.5 68 -59.5 197q0 130 60 200t172 70q110 0 168.5 -69.5t58.5 -200.5q0 -130 -57.5 -197.5t-169.5 -67.5q-113 0 -172.5 68zM392 113.5q35 47.5 35 147.5t-35 148t-108 48t-107 -47.5t-34 -148.5q0 -100 34 -147.5t107 -47.5t108 47.5zM243 595q0 7 14.5 34
t43.5 77q8 14 23 20t39 6q25 0 36.5 -3t11.5 -10q0 -8 -15 -26.5t-79 -89.5q-16 -18 -51 -18q-23 0 -23 10z" />
    <glyph glyph-name="ocircumflex" unicode="&#xf4;" horiz-adv-x="569" 
d="M114.5 62q-59.5 68 -59.5 197q0 130 60 200t172 70q110 0 168.5 -69.5t58.5 -200.5q0 -130 -57.5 -197.5t-169.5 -67.5q-113 0 -172.5 68zM392 113.5q35 47.5 35 147.5t-35 148t-108 48t-107 -47.5t-34 -148.5q0 -100 34 -147.5t107 -47.5t108 47.5zM164 590q0 8 6 18
l56 88q15 22 46 22h25q31 0 46 -22l57 -88q6 -9 6 -17q0 -15 -24 -15h-2q-19 0 -33 13l-63 74l-61 -74q-14 -13 -34 -13h-2q-23 0 -23 14z" />
    <glyph glyph-name="otilde" unicode="&#xf5;" horiz-adv-x="569" 
d="M114.5 62q-59.5 68 -59.5 197q0 130 60 200t172 70q110 0 168.5 -69.5t58.5 -200.5q0 -130 -57.5 -197.5t-169.5 -67.5q-113 0 -172.5 68zM392 113.5q35 47.5 35 147.5t-35 148t-108 48t-107 -47.5t-34 -148.5q0 -100 34 -147.5t107 -47.5t108 47.5zM122 596
q-10 4 -10 12q0 6 3 13q16 37 38.5 53t53.5 16q21 0 42 -5.5t55 -17.5q29 -10 45.5 -15t31.5 -5q14 0 24 6.5t20 22.5q10 15 20 15q6 0 10 -3l8 -3q12 -4 12 -12q0 -6 -5 -14q-16 -36 -38 -52t-53 -16q-36 0 -100 24q-28 10 -45 14.5t-32 4.5q-13 0 -22 -6.5t-20 -23.5
q-8 -14 -17 -14q-3 0 -11 2z" />
    <glyph glyph-name="odieresis" unicode="&#xf6;" horiz-adv-x="569" 
d="M114.5 62q-59.5 68 -59.5 197q0 130 60 200t172 70q110 0 168.5 -69.5t58.5 -200.5q0 -130 -57.5 -197.5t-169.5 -67.5q-113 0 -172.5 68zM392 113.5q35 47.5 35 147.5t-35 148t-108 48t-107 -47.5t-34 -148.5q0 -100 34 -147.5t107 -47.5t108 47.5zM171 629v51
q0 22 44 22q40 0 40 -22v-51q0 -22 -44 -22q-40 0 -40 22zM315 629v51q0 22 44 22q40 0 40 -22v-51q0 -22 -44 -22q-40 0 -40 22z" />
    <glyph glyph-name="divide" unicode="&#xf7;" horiz-adv-x="560" 
d="M238 390v51q0 22 40 22h4q40 0 40 -22v-51q0 -22 -40 -22h-4q-40 0 -40 22zM56 205q-8 8 -8 22v7q0 30 30 30h404q30 0 30 -30v-7q0 -30 -30 -30h-404q-14 0 -22 8zM238 20v51q0 22 40 22h4q40 0 40 -22v-51q0 -22 -40 -22h-4q-40 0 -40 22z" />
    <glyph glyph-name="oslash" unicode="&#xf8;" horiz-adv-x="569" 
d="M470 440q44 -67 44 -181q0 -130 -57.5 -197.5t-169.5 -67.5q-99 0 -156 51l-30 -35q-6 -8 -14 -8q-7 0 -15 7.5t-8 13.5q0 5 7 14l33 38q-49 67 -49 184q0 130 60 200t172 70q98 0 157 -57l35 41q8 8 14 8t14 -7.5t8 -13.5t-6 -14zM161 142l230 268q-34 47 -107 47
t-107 -47.5t-34 -148.5q0 -74 18 -119zM411 372l-228 -266q34 -40 101 -40q73 0 108 47.5t35 147.5q0 69 -16 111z" />
    <glyph glyph-name="ugrave" unicode="&#xf9;" 
d="M118.5 37q-43.5 43 -43.5 119v347q0 22 40 22h4q40 0 40 -22v-339q0 -46 26.5 -71.5t75.5 -25.5q34 0 67.5 19t58.5 51v366q0 22 40 22h4q40 0 40 -22v-355q0 -66 6 -94.5t6 -31.5q0 -12 -19 -17.5t-35 -5.5q-14 0 -20.5 15.5t-10 32.5t-4.5 22q-32 -35 -73 -55t-83 -20
q-76 0 -119.5 43zM261 603l-38 43q-38 44 -47 55.5t-9 17.5q0 7 11.5 10t36.5 3q24 0 39 -6t23 -20q29 -50 43.5 -77t14.5 -34q0 -10 -23 -10q-34 0 -51 18z" />
    <glyph glyph-name="uacute" unicode="&#xfa;" 
d="M118.5 37q-43.5 43 -43.5 119v347q0 22 40 22h4q40 0 40 -22v-339q0 -46 26.5 -71.5t75.5 -25.5q34 0 67.5 19t58.5 51v366q0 22 40 22h4q40 0 40 -22v-355q0 -66 6 -94.5t6 -31.5q0 -12 -19 -17.5t-35 -5.5q-14 0 -20.5 15.5t-10 32.5t-4.5 22q-32 -35 -73 -55t-83 -20
q-76 0 -119.5 43zM237 595q0 7 14.5 34t43.5 77q8 14 23 20t39 6q25 0 36.5 -3t11.5 -10q0 -8 -15 -26.5t-79 -89.5q-16 -18 -51 -18q-23 0 -23 10z" />
    <glyph glyph-name="ucircumflex" unicode="&#xfb;" 
d="M118.5 37q-43.5 43 -43.5 119v347q0 22 40 22h4q40 0 40 -22v-339q0 -46 26.5 -71.5t75.5 -25.5q34 0 67.5 19t58.5 51v366q0 22 40 22h4q40 0 40 -22v-355q0 -66 6 -94.5t6 -31.5q0 -12 -19 -17.5t-35 -5.5q-14 0 -20.5 15.5t-10 32.5t-4.5 22q-32 -35 -73 -55t-83 -20
q-76 0 -119.5 43zM158 590q0 8 6 18l56 88q15 22 46 22h25q31 0 46 -22l57 -88q6 -9 6 -17q0 -15 -24 -15h-2q-19 0 -33 13l-63 74l-61 -74q-14 -13 -34 -13h-2q-23 0 -23 14z" />
    <glyph glyph-name="udieresis" unicode="&#xfc;" 
d="M118.5 37q-43.5 43 -43.5 119v347q0 22 40 22h4q40 0 40 -22v-339q0 -46 26.5 -71.5t75.5 -25.5q34 0 67.5 19t58.5 51v366q0 22 40 22h4q40 0 40 -22v-355q0 -66 6 -94.5t6 -31.5q0 -12 -19 -17.5t-35 -5.5q-14 0 -20.5 15.5t-10 32.5t-4.5 22q-32 -35 -73 -55t-83 -20
q-76 0 -119.5 43zM165 629v51q0 22 44 22q40 0 40 -22v-51q0 -22 -44 -22q-40 0 -40 22zM309 629v51q0 22 44 22q40 0 40 -22v-51q0 -22 -44 -22q-40 0 -40 22z" />
    <glyph glyph-name="yacute" unicode="&#xfd;" horiz-adv-x="481" 
d="M462 508q0 -5 -3 -14l-257 -681q-8 -21 -47 -21h-15q-33 0 -33 16q0 4 5 17l84 204l-175 466q-3 9 -3 13q0 17 43 17h8q35 0 40 -16l102 -271q16 -44 32 -101h2q2 7 4 13.5t4 12.5l25 75l100 271q5 16 41 16h3q40 0 40 -17zM199 595q0 7 14.5 34t43.5 77q8 14 23 20t39 6
q25 0 36.5 -3t11.5 -10q0 -8 -15 -26.5t-79 -89.5q-16 -18 -51 -18q-23 0 -23 10z" />
    <glyph glyph-name="thorn" unicode="&#xfe;" horiz-adv-x="570" 
d="M85 -186v916q0 22 40 22h4q40 0 40 -22v-269q69 68 152 68q59 0 103 -34.5t67.5 -95.5t23.5 -139q0 -84 -25.5 -144t-71.5 -91t-106 -31q-44 0 -77.5 13t-65.5 38v-231q0 -22 -40 -22h-4q-40 0 -40 22zM393 116q34 48 34 138q0 97 -32 149.5t-91 52.5q-34 0 -69.5 -18
t-65.5 -51v-274q54 -45 124 -45q66 0 100 48z" />
    <glyph glyph-name="ydieresis" unicode="&#xff;" horiz-adv-x="481" 
d="M462 508q0 -5 -3 -14l-257 -681q-8 -21 -47 -21h-15q-33 0 -33 16q0 4 5 17l84 204l-175 466q-3 9 -3 13q0 17 43 17h8q35 0 40 -16l102 -271q16 -44 32 -101h2q2 7 4 13.5t4 12.5l25 75l100 271q5 16 41 16h3q40 0 40 -17zM127 629v51q0 22 44 22q40 0 40 -22v-51
q0 -22 -44 -22q-40 0 -40 22zM271 629v51q0 22 44 22q40 0 40 -22v-51q0 -22 -44 -22q-40 0 -40 22z" />
    <glyph glyph-name="Amacron" unicode="&#x100;" horiz-adv-x="613" 
d="M12 15q0 5 3 14l237 657q6 16 40 16h29q36 0 40 -16l237 -658q3 -7 3 -13q0 -17 -43 -17h-8q-35 0 -40 16l-59 164h-294l-57 -164q-5 -16 -40 -16h-5q-43 0 -43 17zM424 254l-105 298q-5 16 -12 58h-2q-8 -40 -15 -58l-105 -298h239zM180.5 796q-4.5 7 -4.5 23v10
q0 16 4.5 23t15.5 7h223q11 0 15.5 -7t4.5 -23v-10q0 -16 -4.5 -23t-15.5 -7h-223q-11 0 -15.5 7z" />
    <glyph glyph-name="amacron" unicode="&#x101;" horiz-adv-x="545" 
d="M96 32q-47 38 -47 112q0 79 47.5 118.5t116.5 51t168 12.5v47q0 37 -26 60.5t-84 23.5q-44 0 -77 -10.5t-55 -21t-24 -10.5q-10 0 -22.5 20t-12.5 30q0 13 26.5 28t70.5 25.5t91 10.5q93 0 145 -41.5t52 -115.5v-224q0 -66 6 -94.5t6 -31.5q0 -12 -19 -17.5t-35 -5.5
q-14 0 -20.5 15.5t-10 32.5t-4.5 22q-68 -75 -168 -75q-77 0 -124 38zM308.5 85q35.5 18 72.5 51v118q-75 -1 -122.5 -6t-83.5 -28t-36 -71q0 -40 21.5 -61t63.5 -21q49 0 84.5 18zM146.5 619q-4.5 7 -4.5 23v10q0 16 4.5 23t15.5 7h223q11 0 15.5 -7t4.5 -23v-10
q0 -16 -4.5 -23t-15.5 -7h-223q-11 0 -15.5 7z" />
    <glyph glyph-name="Abreve" unicode="&#x102;" horiz-adv-x="613" 
d="M12 15q0 5 3 14l237 657q6 16 40 16h29q36 0 40 -16l237 -658q3 -7 3 -13q0 -17 -43 -17h-8q-35 0 -40 16l-59 164h-294l-57 -164q-5 -16 -40 -16h-5q-43 0 -43 17zM424 254l-105 298q-5 16 -12 58h-2q-8 -40 -15 -58l-105 -298h239zM205 792.5q-43 30.5 -43 84.5
q0 15 15 15q9 0 12 -3t5 -9.5t5 -12.5q11 -20 40 -29.5t68 -9.5t68 9.5t39 29.5q3 6 5.5 13t5.5 9.5t11 2.5q15 0 15 -15q0 -54 -43 -84.5t-101 -30.5q-59 0 -102 30.5z" />
    <glyph glyph-name="abreve" unicode="&#x103;" horiz-adv-x="545" 
d="M96 32q-47 38 -47 112q0 79 47.5 118.5t116.5 51t168 12.5v47q0 37 -26 60.5t-84 23.5q-44 0 -77 -10.5t-55 -21t-24 -10.5q-10 0 -22.5 20t-12.5 30q0 13 26.5 28t70.5 25.5t91 10.5q93 0 145 -41.5t52 -115.5v-224q0 -66 6 -94.5t6 -31.5q0 -12 -19 -17.5t-35 -5.5
q-14 0 -20.5 15.5t-10 32.5t-4.5 22q-68 -75 -168 -75q-77 0 -124 38zM308.5 85q35.5 18 72.5 51v118q-75 -1 -122.5 -6t-83.5 -28t-36 -71q0 -40 21.5 -61t63.5 -21q49 0 84.5 18zM171 615.5q-43 30.5 -43 84.5q0 15 15 15q9 0 12 -3t5 -9.5t5 -12.5q11 -20 40 -29.5
t68 -9.5t68 9.5t39 29.5q3 6 5.5 13t5.5 9.5t11 2.5q15 0 15 -15q0 -54 -43 -84.5t-101 -30.5q-59 0 -102 30.5z" />
    <glyph glyph-name="Aogonek" unicode="&#x104;" horiz-adv-x="613" 
d="M705 -128q0 -21 -10 -34q-9 -12 -27 -16.5t-45 -4.5q-70 0 -94 33t-24 69q0 19 5.5 41t17.5 40q-15 5 -18 14l-59 164h-294l-57 -164q-5 -16 -40 -16h-5q-43 0 -43 17q0 5 3 14l237 657q6 16 40 16h29q36 0 40 -16l237 -658q3 -7 3 -13q0 -11 -20 -15l3 -1
q-12 -31 -12 -61q0 -32 18 -41.5t44 -9.5q10 0 25 5q23 5 27 5q19 0 19 -25zM424 254l-105 298q-5 16 -12 58h-2q-8 -40 -15 -58l-105 -298h239z" />
    <glyph glyph-name="aogonek" unicode="&#x105;" horiz-adv-x="545" 
d="M596 -111q0 -21 -10 -34q-9 -12 -27 -16.5t-45 -4.5q-70 0 -94 33t-24 69t15 67q-8 7 -12 19.5t-7 26.5t-4 20q-68 -75 -168 -75q-77 0 -124 38t-47 112q0 79 47.5 118.5t116.5 51t168 12.5v47q0 37 -26 60.5t-84 23.5q-44 0 -77 -10.5t-55 -21t-24 -10.5q-10 0 -22.5 20
t-12.5 30q0 13 26.5 28t70.5 25.5t91 10.5q93 0 145 -41.5t52 -115.5v-224q0 -66 6 -94.5t6 -31.5q0 -5 -3 -8q-11 -31 -11 -59q0 -32 18 -41.5t44 -9.5q10 0 25 5q23 5 27 5q19 0 19 -25zM381 254q-75 -1 -122.5 -6t-83.5 -28t-36 -71q0 -40 21.5 -61t63.5 -21
q49 0 84.5 18t72.5 51v118z" />
    <glyph glyph-name="Cacute" unicode="&#x106;" horiz-adv-x="619" 
d="M135.5 80.5q-78.5 86.5 -78.5 269.5q0 356 324 356q49 0 94.5 -10.5t72.5 -25.5q24 -14 24 -26q0 -14 -12.5 -36t-21.5 -22q-3 0 -25.5 12.5t-55 22t-74.5 9.5q-121 0 -178 -67t-57 -214q0 -144 56.5 -211.5t174.5 -67.5q49 0 84 11.5t69 29.5q14 9 19 9q9 0 22 -22
t13 -32q0 -15 -32 -33q-30 -17 -76 -28t-99 -11q-165 0 -243.5 86.5zM313 772q0 7 14.5 34t43.5 77q8 14 23 20t39 6q25 0 36.5 -3t11.5 -10q0 -8 -15 -26.5t-79 -89.5q-16 -18 -51 -18q-23 0 -23 10z" />
    <glyph glyph-name="cacute" unicode="&#x107;" horiz-adv-x="485" 
d="M113 58q-61 64 -61 206q0 143 68 204t169 61q58 0 104 -14t46 -32q0 -13 -11.5 -33.5t-20.5 -20.5q-2 0 -4.5 1.5t-6.5 2.5q-54 24 -109 24q-145 0 -145 -191q0 -106 35.5 -153t119.5 -47q61 0 113 26l11 4q10 0 22 -19.5t12 -31.5t-21.5 -23.5t-57.5 -19.5t-78 -8
q-124 0 -185 64zM235 595q0 7 14.5 34t43.5 77q8 14 23 20t39 6q25 0 36.5 -3t11.5 -10q0 -8 -15 -26.5t-79 -89.5q-16 -18 -51 -18q-23 0 -23 10z" />
    <glyph glyph-name="Ccircumflex" unicode="&#x108;" horiz-adv-x="619" 
d="M135.5 80.5q-78.5 86.5 -78.5 269.5q0 356 324 356q49 0 94.5 -10.5t72.5 -25.5q24 -14 24 -26q0 -14 -12.5 -36t-21.5 -22q-3 0 -25.5 12.5t-55 22t-74.5 9.5q-121 0 -178 -67t-57 -214q0 -144 56.5 -211.5t174.5 -67.5q49 0 84 11.5t69 29.5q14 9 19 9q9 0 22 -22
t13 -32q0 -15 -32 -33q-30 -17 -76 -28t-99 -11q-165 0 -243.5 86.5zM234 767q0 8 6 18l56 88q15 22 46 22h25q31 0 46 -22l57 -88q6 -9 6 -17q0 -15 -24 -15h-2q-19 0 -33 13l-63 74l-61 -74q-14 -13 -34 -13h-2q-23 0 -23 14z" />
    <glyph glyph-name="ccircumflex" unicode="&#x109;" horiz-adv-x="485" 
d="M113 58q-61 64 -61 206q0 143 68 204t169 61q58 0 104 -14t46 -32q0 -13 -11.5 -33.5t-20.5 -20.5q-2 0 -4.5 1.5t-6.5 2.5q-54 24 -109 24q-145 0 -145 -191q0 -106 35.5 -153t119.5 -47q61 0 113 26l11 4q10 0 22 -19.5t12 -31.5t-21.5 -23.5t-57.5 -19.5t-78 -8
q-124 0 -185 64zM156 590q0 8 6 18l56 88q15 22 46 22h25q31 0 46 -22l57 -88q6 -9 6 -17q0 -15 -24 -15h-2q-19 0 -33 13l-63 74l-61 -74q-14 -13 -34 -13h-2q-23 0 -23 14z" />
    <glyph glyph-name="Cdotaccent" unicode="&#x10a;" horiz-adv-x="619" 
d="M135.5 80.5q-78.5 86.5 -78.5 269.5q0 356 324 356q49 0 94.5 -10.5t72.5 -25.5q24 -14 24 -26q0 -14 -12.5 -36t-21.5 -22q-3 0 -25.5 12.5t-55 22t-74.5 9.5q-121 0 -178 -67t-57 -214q0 -144 56.5 -211.5t174.5 -67.5q49 0 84 11.5t69 29.5q14 9 19 9q9 0 22 -22
t13 -32q0 -15 -32 -33q-30 -17 -76 -28t-99 -11q-165 0 -243.5 86.5zM313 806v51q0 22 44 22q40 0 40 -22v-51q0 -22 -44 -22q-40 0 -40 22z" />
    <glyph glyph-name="cdotaccent" unicode="&#x10b;" horiz-adv-x="485" 
d="M113 58q-61 64 -61 206q0 143 68 204t169 61q58 0 104 -14t46 -32q0 -13 -11.5 -33.5t-20.5 -20.5q-2 0 -4.5 1.5t-6.5 2.5q-54 24 -109 24q-145 0 -145 -191q0 -106 35.5 -153t119.5 -47q61 0 113 26l11 4q10 0 22 -19.5t12 -31.5t-21.5 -23.5t-57.5 -19.5t-78 -8
q-124 0 -185 64zM235 629v51q0 22 44 22q40 0 40 -22v-51q0 -22 -44 -22q-40 0 -40 22z" />
    <glyph glyph-name="Ccaron" unicode="&#x10c;" horiz-adv-x="619" 
d="M135.5 80.5q-78.5 86.5 -78.5 269.5q0 356 324 356q49 0 94.5 -10.5t72.5 -25.5q24 -14 24 -26q0 -14 -12.5 -36t-21.5 -22q-3 0 -25.5 12.5t-55 22t-74.5 9.5q-121 0 -178 -67t-57 -214q0 -144 56.5 -211.5t174.5 -67.5q49 0 84 11.5t69 29.5q14 9 19 9q9 0 22 -22
t13 -32q0 -15 -32 -33q-30 -17 -76 -28t-99 -11q-165 0 -243.5 86.5zM296 781l-56 88q-6 11 -6 18q0 14 23 14h2q20 0 34 -13l61 -74l63 74q14 13 33 13h2q24 0 24 -15q0 -8 -6 -17l-57 -88q-15 -22 -46 -22h-25q-31 0 -46 22z" />
    <glyph glyph-name="ccaron" unicode="&#x10d;" horiz-adv-x="485" 
d="M113 58q-61 64 -61 206q0 143 68 204t169 61q58 0 104 -14t46 -32q0 -13 -11.5 -33.5t-20.5 -20.5q-2 0 -4.5 1.5t-6.5 2.5q-54 24 -109 24q-145 0 -145 -191q0 -106 35.5 -153t119.5 -47q61 0 113 26l11 4q10 0 22 -19.5t12 -31.5t-21.5 -23.5t-57.5 -19.5t-78 -8
q-124 0 -185 64zM218 604l-56 88q-6 11 -6 18q0 14 23 14h2q20 0 34 -13l61 -74l63 74q14 13 33 13h2q24 0 24 -15q0 -8 -6 -17l-57 -88q-15 -22 -46 -22h-25q-31 0 -46 22z" />
    <glyph glyph-name="Dcaron" unicode="&#x10e;" horiz-adv-x="695" 
d="M104 7q-7 7 -7 23v640q0 16 7 23t23 7h202q140 0 224.5 -83.5t84.5 -266.5q0 -184 -84.5 -267t-224.5 -83h-202q-16 0 -23 7zM322 76q101 0 163 66t62 208q0 141 -62 207.5t-163 66.5h-137v-548h137zM253 781l-56 88q-6 11 -6 18q0 14 23 14h2q20 0 34 -13l61 -74l63 74
q14 13 33 13h2q24 0 24 -15q0 -8 -6 -17l-57 -88q-15 -22 -46 -22h-25q-31 0 -46 22z" />
    <glyph glyph-name="dcaron" unicode="&#x10f;" horiz-adv-x="595" 
d="M143 28q-44 34 -67.5 95t-23.5 138q0 85 25.5 145.5t71.5 91.5t106 31q44 0 77.5 -13t65.5 -38v252q0 22 40 22h4q40 0 40 -22v-582q0 -66 6 -94.5t6 -31.5q0 -12 -19 -17.5t-35 -5.5q-14 0 -20.5 15.5t-10 32.5t-4.5 22q-72 -75 -159 -75q-59 0 -103 34zM332.5 85
q35.5 18 65.5 51v274q-54 45 -123 45q-67 0 -101 -48t-34 -138q0 -97 32 -149.5t91 -52.5q34 0 69.5 18zM552 529.5q-9 3.5 -9 11.5q0 6 4 28q9 50 9 99q0 15 10 23.5t30 8.5h9q19 0 29.5 -7.5t10.5 -20.5q0 -42 -12.5 -75.5t-30 -52t-30.5 -18.5q-11 0 -20 3.5z" />
    <glyph glyph-name="Dcroat" unicode="&#x110;" horiz-adv-x="696" 
d="M553.5 616.5q84.5 -83.5 84.5 -266.5q0 -184 -84.5 -267t-224.5 -83h-202q-16 0 -23 7t-7 23v290h-77q-10 0 -15 7t-5 23v16q0 16 5 23t15 7h77v274q0 16 7 23t23 7h202q140 0 224.5 -83.5zM485 142q62 66 62 208q0 141 -62 207.5t-163 66.5h-137v-228h98q11 0 15.5 -7
t4.5 -23v-16q0 -16 -4.5 -23t-15.5 -7h-98v-244h137q101 0 163 66z" />
    <glyph glyph-name="dcroat" unicode="&#x111;" horiz-adv-x="565" 
d="M539.5 661q5.5 -7 5.5 -23v-10q0 -16 -5.5 -23t-18.5 -7h-39v-450q0 -66 6 -94.5t6 -31.5q0 -12 -19 -17.5t-35 -5.5q-14 0 -20.5 15.5t-10 32.5t-4.5 22q-72 -75 -159 -75q-59 0 -103 34t-67.5 95t-23.5 138q0 85 25.5 145.5t71.5 91.5t106 31q44 0 77.5 -13t65.5 -38
v120h-151q-25 0 -25 30v10q0 30 25 30h151v62q0 22 40 22h4q40 0 40 -22v-62h39q13 0 18.5 -7zM398 410q-54 45 -123 45q-67 0 -101 -48t-34 -138q0 -97 32 -149.5t91 -52.5q34 0 69.5 18t65.5 51v274z" />
    <glyph glyph-name="Emacron" unicode="&#x112;" horiz-adv-x="546" 
d="M104 7q-7 7 -7 23v640q0 16 7 23t23 7h349q11 0 15.5 -7t4.5 -23v-16q0 -16 -4.5 -23t-15.5 -7h-291v-228h261q11 0 15.5 -7t4.5 -23v-16q0 -16 -4.5 -23t-15.5 -7h-261v-244h292q11 0 15.5 -7t4.5 -23v-16q0 -16 -4.5 -23t-15.5 -7h-350q-16 0 -23 7zM169.5 796
q-4.5 7 -4.5 23v10q0 16 4.5 23t15.5 7h223q11 0 15.5 -7t4.5 -23v-10q0 -16 -4.5 -23t-15.5 -7h-223q-11 0 -15.5 7z" />
    <glyph glyph-name="emacron" unicode="&#x113;" horiz-adv-x="539" 
d="M115 59q-60 65 -60 199q0 133 59 202t174 69q102 0 154 -66.5t52 -194.5q0 -9 -12 -25t-21 -16h-316q6 -83 43 -122t111 -39q42 0 72.5 10.5t50.5 21t23 10.5q10 0 22.5 -20t12.5 -30q0 -12 -25 -27.5t-66.5 -26t-88.5 -10.5q-125 0 -185 65zM405 299q0 158 -120 158
q-129 0 -140 -158h260zM143.5 619q-4.5 7 -4.5 23v10q0 16 4.5 23t15.5 7h223q11 0 15.5 -7t4.5 -23v-10q0 -16 -4.5 -23t-15.5 -7h-223q-11 0 -15.5 7z" />
    <glyph glyph-name="Ebreve" unicode="&#x114;" horiz-adv-x="546" 
d="M104 7q-7 7 -7 23v640q0 16 7 23t23 7h349q11 0 15.5 -7t4.5 -23v-16q0 -16 -4.5 -23t-15.5 -7h-291v-228h261q11 0 15.5 -7t4.5 -23v-16q0 -16 -4.5 -23t-15.5 -7h-261v-244h292q11 0 15.5 -7t4.5 -23v-16q0 -16 -4.5 -23t-15.5 -7h-350q-16 0 -23 7zM194 792.5
q-43 30.5 -43 84.5q0 15 15 15q9 0 12 -3t5 -9.5t5 -12.5q11 -20 40 -29.5t68 -9.5t68 9.5t39 29.5q3 6 5.5 13t5.5 9.5t11 2.5q15 0 15 -15q0 -54 -43 -84.5t-101 -30.5q-59 0 -102 30.5z" />
    <glyph glyph-name="ebreve" unicode="&#x115;" horiz-adv-x="539" 
d="M115 59q-60 65 -60 199q0 133 59 202t174 69q102 0 154 -66.5t52 -194.5q0 -9 -12 -25t-21 -16h-316q6 -83 43 -122t111 -39q42 0 72.5 10.5t50.5 21t23 10.5q10 0 22.5 -20t12.5 -30q0 -12 -25 -27.5t-66.5 -26t-88.5 -10.5q-125 0 -185 65zM405 299q0 158 -120 158
q-129 0 -140 -158h260zM168 615.5q-43 30.5 -43 84.5q0 15 15 15q9 0 12 -3t5 -9.5t5 -12.5q11 -20 40 -29.5t68 -9.5t68 9.5t39 29.5q3 6 5.5 13t5.5 9.5t11 2.5q15 0 15 -15q0 -54 -43 -84.5t-101 -30.5q-59 0 -102 30.5z" />
    <glyph glyph-name="Edotaccent" unicode="&#x116;" horiz-adv-x="546" 
d="M104 7q-7 7 -7 23v640q0 16 7 23t23 7h349q11 0 15.5 -7t4.5 -23v-16q0 -16 -4.5 -23t-15.5 -7h-291v-228h261q11 0 15.5 -7t4.5 -23v-16q0 -16 -4.5 -23t-15.5 -7h-261v-244h292q11 0 15.5 -7t4.5 -23v-16q0 -16 -4.5 -23t-15.5 -7h-350q-16 0 -23 7zM254 806v51
q0 22 44 22q40 0 40 -22v-51q0 -22 -44 -22q-40 0 -40 22z" />
    <glyph glyph-name="edotaccent" unicode="&#x117;" horiz-adv-x="539" 
d="M115 59q-60 65 -60 199q0 133 59 202t174 69q102 0 154 -66.5t52 -194.5q0 -9 -12 -25t-21 -16h-316q6 -83 43 -122t111 -39q42 0 72.5 10.5t50.5 21t23 10.5q10 0 22.5 -20t12.5 -30q0 -12 -25 -27.5t-66.5 -26t-88.5 -10.5q-125 0 -185 65zM405 299q0 158 -120 158
q-129 0 -140 -158h260zM228 629v51q0 22 44 22q40 0 40 -22v-51q0 -22 -44 -22q-40 0 -40 22z" />
    <glyph glyph-name="Eogonek" unicode="&#x118;" horiz-adv-x="546" 
d="M598 -128q0 -21 -10 -34q-9 -12 -27 -16.5t-45 -4.5q-70 0 -94 33t-24 69q0 19 5 41t17 40h-293q-16 0 -23 7t-7 23v640q0 16 7 23t23 7h349q11 0 15.5 -7t4.5 -23v-16q0 -16 -4.5 -23t-15.5 -7h-291v-228h261q11 0 15.5 -7t4.5 -23v-16q0 -16 -4.5 -23t-15.5 -7h-261
v-244h292q11 0 15.5 -7t4.5 -23v-16q0 -16 -4.5 -23t-15.5 -7h-3l3 -1q-12 -31 -12 -61q0 -32 18 -41.5t44 -9.5q10 0 25 5q23 5 27 5q19 0 19 -25z" />
    <glyph glyph-name="eogonek" unicode="&#x119;" horiz-adv-x="539" 
d="M554 -118q0 -21 -10 -34q-9 -12 -27 -16.5t-45 -4.5q-70 0 -94 33t-24 69q0 39 17 72q-38 -7 -71 -7q-125 0 -185 65t-60 199q0 133 59 202t174 69q102 0 154 -66.5t52 -194.5q0 -9 -12 -25t-21 -16h-316q6 -83 43 -122t111 -39q42 0 72.5 10.5t50.5 21t23 10.5
q10 0 22.5 -20t12.5 -30t-16.5 -22t-43.5 -22l13 -5q-12 -31 -12 -61q0 -32 18 -41.5t44 -9.5q10 0 25 5q23 5 27 5q19 0 19 -25zM145 299h260q0 158 -120 158q-129 0 -140 -158z" />
    <glyph glyph-name="Ecaron" unicode="&#x11a;" horiz-adv-x="546" 
d="M104 7q-7 7 -7 23v640q0 16 7 23t23 7h349q11 0 15.5 -7t4.5 -23v-16q0 -16 -4.5 -23t-15.5 -7h-291v-228h261q11 0 15.5 -7t4.5 -23v-16q0 -16 -4.5 -23t-15.5 -7h-261v-244h292q11 0 15.5 -7t4.5 -23v-16q0 -16 -4.5 -23t-15.5 -7h-350q-16 0 -23 7zM237 781l-56 88
q-6 11 -6 18q0 14 23 14h2q20 0 34 -13l61 -74l63 74q14 13 33 13h2q24 0 24 -15q0 -8 -6 -17l-57 -88q-15 -22 -46 -22h-25q-31 0 -46 22z" />
    <glyph glyph-name="ecaron" unicode="&#x11b;" horiz-adv-x="539" 
d="M115 59q-60 65 -60 199q0 133 59 202t174 69q102 0 154 -66.5t52 -194.5q0 -9 -12 -25t-21 -16h-316q6 -83 43 -122t111 -39q42 0 72.5 10.5t50.5 21t23 10.5q10 0 22.5 -20t12.5 -30q0 -12 -25 -27.5t-66.5 -26t-88.5 -10.5q-125 0 -185 65zM405 299q0 158 -120 158
q-129 0 -140 -158h260zM211 604l-56 88q-6 11 -6 18q0 14 23 14h2q20 0 34 -13l61 -74l63 74q14 13 33 13h2q24 0 24 -15q0 -8 -6 -17l-57 -88q-15 -22 -46 -22h-25q-31 0 -46 22z" />
    <glyph glyph-name="Gcircumflex" unicode="&#x11c;" horiz-adv-x="672" 
d="M582 354q7 -7 7 -23v-265q0 -39 -62.5 -55.5t-160.5 -16.5q-151 0 -230 87t-79 263q0 362 324 362q47 0 91.5 -9.5t72 -24.5t27.5 -28q0 -14 -12.5 -36t-21.5 -22q-3 0 -25.5 12.5t-55 22t-74.5 9.5q-127 0 -181 -70t-54 -207q0 -130 50 -206.5t174 -76.5q37 0 72.5 3.5
t56.5 9.5v202h-117q-10 0 -15 7t-5 23v16q0 16 5 23t15 7h175q16 0 23 -7zM215 767q0 8 6 18l56 88q15 22 46 22h25q31 0 46 -22l57 -88q6 -9 6 -17q0 -15 -24 -15h-2q-19 0 -33 13l-63 74l-61 -74q-14 -13 -34 -13h-2q-23 0 -23 14z" />
    <glyph glyph-name="gcircumflex" unicode="&#x11d;" horiz-adv-x="546" 
d="M152 590q0 8 6 18l56 88q15 22 46 22h25q31 0 46 -22l57 -88q6 -9 6 -17q0 -15 -24 -15h-2q-19 0 -33 13l-63 74l-61 -74q-14 -13 -34 -13h-2q-23 0 -23 14zM101.5 -182q-55.5 30 -55.5 94q0 44 25 76t66 49l1 2q-40 32 -40 82q0 65 56 104q-42 21 -64 58t-22 83
q0 71 52 117t145 46q32 0 59 -6h182q11 0 15.5 -7t4.5 -23v-12q0 -16 -4.5 -23t-15.5 -7q-41 0 -70 3l-1 -2q26 -37 26 -86q0 -72 -51.5 -118t-145.5 -46q-47 0 -71 -16.5t-24 -52.5q0 -26 16.5 -39.5t41.5 -19.5t70 -11q22 -2 33 -4q72 -9 111.5 -33.5t39.5 -86.5
q0 -73 -58 -112t-170 -39q-96 0 -151.5 30zM351.5 291.5q32.5 22.5 32.5 73.5q0 97 -120 97q-119 0 -119 -97q0 -96 119 -96q55 0 87.5 22.5zM367.5 -126q33.5 18 33.5 56q0 35 -33 47t-99 19q-60 6 -82 13q-66 -28 -66 -81q0 -72 143 -72q70 0 103.5 18z" />
    <glyph glyph-name="Gbreve" unicode="&#x11e;" horiz-adv-x="672" 
d="M582 354q7 -7 7 -23v-265q0 -39 -62.5 -55.5t-160.5 -16.5q-151 0 -230 87t-79 263q0 362 324 362q47 0 91.5 -9.5t72 -24.5t27.5 -28q0 -14 -12.5 -36t-21.5 -22q-3 0 -25.5 12.5t-55 22t-74.5 9.5q-127 0 -181 -70t-54 -207q0 -130 50 -206.5t174 -76.5q37 0 72.5 3.5
t56.5 9.5v202h-117q-10 0 -15 7t-5 23v16q0 16 5 23t15 7h175q16 0 23 -7zM234 792.5q-43 30.5 -43 84.5q0 15 15 15q9 0 12 -3t5 -9.5t5 -12.5q11 -20 40 -29.5t68 -9.5t68 9.5t39 29.5q3 6 5.5 13t5.5 9.5t11 2.5q15 0 15 -15q0 -54 -43 -84.5t-101 -30.5q-59 0 -102 30.5
z" />
    <glyph glyph-name="gbreve" unicode="&#x11f;" horiz-adv-x="546" 
d="M101.5 -182q-55.5 30 -55.5 94q0 44 25 76t66 49l1 2q-40 32 -40 82q0 65 56 104q-42 21 -64 58t-22 83q0 71 52 117t145 46q32 0 59 -6h182q11 0 15.5 -7t4.5 -23v-12q0 -16 -4.5 -23t-15.5 -7q-41 0 -70 3l-1 -2q26 -37 26 -86q0 -72 -51.5 -118t-145.5 -46
q-47 0 -71 -16.5t-24 -52.5q0 -26 16.5 -39.5t41.5 -19.5t70 -11q22 -2 33 -4q72 -9 111.5 -33.5t39.5 -86.5q0 -73 -58 -112t-170 -39q-96 0 -151.5 30zM351.5 291.5q32.5 22.5 32.5 73.5q0 97 -120 97q-119 0 -119 -97q0 -96 119 -96q55 0 87.5 22.5zM367.5 -126
q33.5 18 33.5 56q0 35 -33 47t-99 19q-60 6 -82 13q-66 -28 -66 -81q0 -72 143 -72q70 0 103.5 18zM171 615.5q-43 30.5 -43 84.5q0 15 15 15q9 0 12 -3t5 -9.5t5 -12.5q11 -20 40 -29.5t68 -9.5t68 9.5t39 29.5q3 6 5.5 13t5.5 9.5t11 2.5q15 0 15 -15q0 -54 -43 -84.5
t-101 -30.5q-59 0 -102 30.5z" />
    <glyph glyph-name="Gdotaccent" unicode="&#x120;" horiz-adv-x="672" 
d="M582 354q7 -7 7 -23v-265q0 -39 -62.5 -55.5t-160.5 -16.5q-151 0 -230 87t-79 263q0 362 324 362q47 0 91.5 -9.5t72 -24.5t27.5 -28q0 -14 -12.5 -36t-21.5 -22q-3 0 -25.5 12.5t-55 22t-74.5 9.5q-127 0 -181 -70t-54 -207q0 -130 50 -206.5t174 -76.5q37 0 72.5 3.5
t56.5 9.5v202h-117q-10 0 -15 7t-5 23v16q0 16 5 23t15 7h175q16 0 23 -7zM294 806v51q0 22 44 22q40 0 40 -22v-51q0 -22 -44 -22q-40 0 -40 22z" />
    <glyph glyph-name="gdotaccent" unicode="&#x121;" horiz-adv-x="546" 
d="M101.5 -182q-55.5 30 -55.5 94q0 44 25 76t66 49l1 2q-40 32 -40 82q0 65 56 104q-42 21 -64 58t-22 83q0 71 52 117t145 46q32 0 59 -6h182q11 0 15.5 -7t4.5 -23v-12q0 -16 -4.5 -23t-15.5 -7q-41 0 -70 3l-1 -2q26 -37 26 -86q0 -72 -51.5 -118t-145.5 -46
q-47 0 -71 -16.5t-24 -52.5q0 -26 16.5 -39.5t41.5 -19.5t70 -11q22 -2 33 -4q72 -9 111.5 -33.5t39.5 -86.5q0 -73 -58 -112t-170 -39q-96 0 -151.5 30zM351.5 291.5q32.5 22.5 32.5 73.5q0 97 -120 97q-119 0 -119 -97q0 -96 119 -96q55 0 87.5 22.5zM367.5 -126
q33.5 18 33.5 56q0 35 -33 47t-99 19q-60 6 -82 13q-66 -28 -66 -81q0 -72 143 -72q70 0 103.5 18zM231 629v51q0 22 44 22q40 0 40 -22v-51q0 -22 -44 -22q-40 0 -40 22z" />
    <glyph glyph-name="Gcommaaccent" unicode="&#x122;" horiz-adv-x="672" 
d="M582 354q7 -7 7 -23v-265q0 -39 -62.5 -55.5t-160.5 -16.5q-151 0 -230 87t-79 263q0 362 324 362q47 0 91.5 -9.5t72 -24.5t27.5 -28q0 -14 -12.5 -36t-21.5 -22q-3 0 -25.5 12.5t-55 22t-74.5 9.5q-127 0 -181 -70t-54 -207q0 -130 50 -206.5t174 -76.5q37 0 72.5 3.5
t56.5 9.5v202h-117q-10 0 -15 7t-5 23v16q0 16 5 23t15 7h175q16 0 23 -7zM308 -231.5q-9 3.5 -9 11.5q0 9 12 31q14 26 22.5 50t8.5 56q0 15 10 23.5t30 8.5h9q19 0 29.5 -7.5t10.5 -20.5q0 -44 -18 -80t-42.5 -56t-42.5 -20q-11 0 -20 3.5z" />
    <glyph glyph-name="gcommaaccent" unicode="&#x123;" horiz-adv-x="546" 
d="M353 765.5q9 -3.5 9 -11.5q0 -9 -12 -31q-14 -26 -22.5 -50t-8.5 -56q0 -15 -10 -23.5t-30 -8.5h-9q-19 0 -29.5 7.5t-10.5 20.5q0 44 18 80t42.5 56t42.5 20q11 0 20 -3.5zM101.5 -182q-55.5 30 -55.5 94q0 44 25 76t66 49l1 2q-40 32 -40 82q0 65 56 104q-42 21 -64 58
t-22 83q0 71 52 117t145 46q32 0 59 -6h182q11 0 15.5 -7t4.5 -23v-12q0 -16 -4.5 -23t-15.5 -7q-41 0 -70 3l-1 -2q26 -37 26 -86q0 -72 -51.5 -118t-145.5 -46q-47 0 -71 -16.5t-24 -52.5q0 -26 16.5 -39.5t41.5 -19.5t70 -11q22 -2 33 -4q72 -9 111.5 -33.5t39.5 -86.5
q0 -73 -58 -112t-170 -39q-96 0 -151.5 30zM351.5 291.5q32.5 22.5 32.5 73.5q0 97 -120 97q-119 0 -119 -97q0 -96 119 -96q55 0 87.5 22.5zM367.5 -126q33.5 18 33.5 56q0 35 -33 47t-99 19q-60 6 -82 13q-66 -28 -66 -81q0 -72 143 -72q70 0 103.5 18z" />
    <glyph glyph-name="Hcircumflex" unicode="&#x124;" horiz-adv-x="733" 
d="M97 20v660q0 22 40 22h8q40 0 40 -22v-283h362v283q0 22 40 22h8q40 0 40 -22v-660q0 -22 -40 -22h-8q-40 0 -40 22v301h-362v-301q0 -22 -40 -22h-8q-40 0 -40 22zM245 767q0 8 6 18l56 88q15 22 46 22h25q31 0 46 -22l57 -88q6 -9 6 -17q0 -15 -24 -15h-2q-19 0 -33 13
l-63 74l-61 -74q-14 -13 -34 -13h-2q-23 0 -23 14z" />
    <glyph glyph-name="hcircumflex" unicode="&#x125;" horiz-adv-x="565" 
d="M13 797q0 8 6 18l56 88q15 22 46 22h25q31 0 46 -22l57 -88q6 -9 6 -17q0 -15 -24 -15h-2q-19 0 -33 13l-63 74l-61 -74q-14 -13 -34 -13h-2q-23 0 -23 14zM92 20v710q0 22 40 22h4q40 0 40 -22v-270q30 30 69.5 49.5t83.5 19.5q63 0 111 -35.5t48 -126.5v-347
q0 -22 -40 -22h-4q-40 0 -40 22v339q0 45 -26 71t-76 26q-33 0 -61 -15.5t-46.5 -34t-18.5 -20.5v-366q0 -22 -40 -22h-4q-40 0 -40 22z" />
    <glyph glyph-name="Hbar" unicode="&#x126;" horiz-adv-x="733" 
d="M671.5 554q4.5 -7 4.5 -23v-10q0 -16 -4.5 -23t-15.5 -7h-21v-471q0 -22 -40 -22h-8q-40 0 -40 22v301h-362v-301q0 -22 -40 -22h-8q-40 0 -40 22v471h-24q-10 0 -15 7t-5 23v10q0 16 5 23t15 7h24v119q0 22 40 22h8q40 0 40 -22v-119h362v119q0 22 40 22h8q40 0 40 -22
v-119h21q11 0 15.5 -7zM547 491h-362v-94h362v94z" />
    <glyph glyph-name="hbar" unicode="&#x127;" horiz-adv-x="565" 
d="M440 493.5q48 -35.5 48 -126.5v-347q0 -22 -40 -22h-4q-40 0 -40 22v339q0 45 -26 71t-76 26q-33 0 -61 -15.5t-46.5 -34t-18.5 -20.5v-366q0 -22 -40 -22h-4q-40 0 -40 22v578h-35q-25 0 -25 30v10q0 30 25 30h35v62q0 22 40 22h4q40 0 40 -22v-62h155q13 0 18.5 -7
t5.5 -23v-10q0 -16 -5.5 -23t-18.5 -7h-155v-138q30 30 69.5 49.5t83.5 19.5q63 0 111 -35.5z" />
    <glyph glyph-name="Itilde" unicode="&#x128;" horiz-adv-x="282" 
d="M97 20v660q0 22 40 22h8q40 0 40 -22v-660q0 -22 -40 -22h-8q-40 0 -40 22zM-22 773q-10 4 -10 12q0 6 3 13q16 37 38.5 53t53.5 16q21 0 42 -5.5t55 -17.5q29 -10 45.5 -15t31.5 -5q14 0 24 6.5t20 22.5q10 15 20 15q6 0 10 -3l8 -3q12 -4 12 -12q0 -6 -5 -14
q-16 -36 -38 -52t-53 -16q-36 0 -100 24q-28 10 -45 14.5t-32 4.5q-13 0 -22 -6.5t-20 -23.5q-8 -14 -17 -14q-3 0 -11 2z" />
    <glyph glyph-name="itilde" unicode="&#x129;" horiz-adv-x="265" 
d="M2 596q-8 5 -8 12q0 6 3 13q12 37 29 53t41 16q15 0 30.5 -5.5t41.5 -17.5q16 -8 32.5 -14t27.5 -6q10 0 18 6.5t15 22.5q7 15 16 15q4 0 7 -3l6 -3q9 -4 9 -12q0 -5 -3 -14q-12 -36 -29.5 -52t-40.5 -16q-16 0 -33.5 6t-41.5 17q-40 20 -59 20q-10 0 -17 -6.5t-15 -23.5
q-7 -14 -13 -14q-1 0 -9 2zM91 20v483q0 22 40 22h4q40 0 40 -22v-483q0 -22 -40 -22h-4q-40 0 -40 22z" />
    <glyph glyph-name="Imacron" unicode="&#x12a;" horiz-adv-x="283" 
d="M97 20v660q0 22 40 22h8q40 0 40 -22v-660q0 -22 -40 -22h-8q-40 0 -40 22zM14.5 796q-4.5 7 -4.5 23v10q0 16 4.5 23t15.5 7h223q11 0 15.5 -7t4.5 -23v-10q0 -16 -4.5 -23t-15.5 -7h-223q-11 0 -15.5 7z" />
    <glyph glyph-name="imacron" unicode="&#x12b;" horiz-adv-x="265" 
d="M91 20v483q0 22 40 22h4q40 0 40 -22v-483q0 -22 -40 -22h-4q-40 0 -40 22zM6.5 619q-4.5 7 -4.5 23v10q0 16 4.5 23t15.5 7h223q11 0 15.5 -7t4.5 -23v-10q0 -16 -4.5 -23t-15.5 -7h-223q-11 0 -15.5 7z" />
    <glyph glyph-name="Ibreve" unicode="&#x12c;" horiz-adv-x="282" 
d="M96 20v660q0 22 40 22h8q40 0 40 -22v-660q0 -22 -40 -22h-8q-40 0 -40 22zM39 792.5q-43 30.5 -43 84.5q0 15 15 15q9 0 12 -3t5 -9.5t5 -12.5q11 -20 40 -29.5t68 -9.5t68 9.5t39 29.5q3 6 5.5 13t5.5 9.5t11 2.5q15 0 15 -15q0 -54 -43 -84.5t-101 -30.5
q-59 0 -102 30.5z" />
    <glyph glyph-name="ibreve" unicode="&#x12d;" horiz-adv-x="265" 
d="M90 20v483q0 22 40 22h4q40 0 40 -22v-483q0 -22 -40 -22h-4q-40 0 -40 22zM31 615.5q-43 30.5 -43 84.5q0 15 15 15q9 0 12 -3t5 -9.5t5 -12.5q11 -20 40 -29.5t68 -9.5t68 9.5t39 29.5q3 6 5.5 13t5.5 9.5t11 2.5q15 0 15 -15q0 -54 -43 -84.5t-101 -30.5
q-59 0 -102 30.5z" />
    <glyph glyph-name="Iogonek" unicode="&#x12e;" horiz-adv-x="282" 
d="M287 -128q0 -21 -10 -34q-9 -12 -27 -16.5t-45 -4.5q-70 0 -94 33t-24 69q0 18 5.5 41t17.5 42q-13 6 -13 18v660q0 22 40 22h8q40 0 40 -22v-660q0 -16 -21 -20l2 -1q-12 -31 -12 -61q0 -32 18 -41.5t44 -9.5q10 0 25 5q22 5 27 5q19 0 19 -25z" />
    <glyph glyph-name="iogonek" unicode="&#x12f;" horiz-adv-x="265" 
d="M91 629v51q0 22 44 22q40 0 40 -22v-51q0 -22 -44 -22q-40 0 -40 22zM279 -128q0 -21 -10 -34q-9 -12 -27 -16.5t-45 -4.5q-70 0 -94 33t-24 69q0 19 6 42.5t18 41.5q-12 5 -12 17v483q0 22 40 22h4q40 0 40 -22v-483q0 -16 -20 -20l3 -1q-12 -31 -12 -61q0 -32 18 -41.5
t44 -9.5q10 0 25 5q22 5 27 5q19 0 19 -25z" />
    <glyph glyph-name="Idotaccent" unicode="&#x130;" horiz-adv-x="283" 
d="M97 20v660q0 22 40 22h8q40 0 40 -22v-660q0 -22 -40 -22h-8q-40 0 -40 22zM99 806v51q0 22 44 22q40 0 40 -22v-51q0 -22 -44 -22q-40 0 -40 22z" />
    <glyph glyph-name="dotlessi" unicode="&#x131;" horiz-adv-x="265" 
d="M91 20v483q0 22 40 22h4q40 0 40 -22v-483q0 -22 -40 -22h-4q-40 0 -40 22z" />
    <glyph glyph-name="IJ" unicode="&#x132;" horiz-adv-x="684" 
d="M97 20v660q0 22 40 22h8q40 0 40 -22v-660q0 -22 -40 -22h-8q-40 0 -40 22zM319 1q-31 7 -31 25q0 10 6 32.5t16 22.5q5 0 23.5 -4.5t39.5 -4.5q74 0 107 29t33 94v485q0 22 40 22h8q40 0 40 -22v-475q0 -211 -212 -211q-39 0 -70 7z" />
    <glyph glyph-name="ij" unicode="&#x133;" horiz-adv-x="541" 
d="M87 640v56q0 24 48 24q44 0 44 -24v-56q0 -24 -48 -24q-44 0 -44 24zM362 640v56q0 24 48 24q44 0 44 -24v-56q0 -24 -48 -24q-44 0 -44 24zM91 20v483q0 22 40 22h4q40 0 40 -22v-483q0 -22 -40 -22h-4q-40 0 -40 22zM248 -182q0 10 6 28.5t15 18.5q5 0 14.5 -2.5
t28.5 -2.5q25 0 39.5 16t14.5 58v569q0 22 40 22h4q40 0 40 -22v-577q0 -77 -39.5 -107.5t-89.5 -30.5q-73 0 -73 30z" />
    <glyph glyph-name="Jcircumflex" unicode="&#x134;" horiz-adv-x="402" 
d="M37 1q-31 7 -31 25q0 10 6 32.5t16 22.5q5 0 23.5 -4.5t39.5 -4.5q74 0 107 29t33 94v485q0 22 40 22h8q40 0 40 -22v-475q0 -211 -212 -211q-39 0 -70 7zM150 767q0 8 6 18l56 88q15 22 46 22h25q31 0 46 -22l57 -88q6 -9 6 -17q0 -15 -24 -15h-2q-19 0 -33 13l-63 74
l-61 -74q-14 -13 -34 -13h-2q-23 0 -23 14z" />
    <glyph glyph-name="jcircumflex" unicode="&#x135;" horiz-adv-x="276" 
d="M-17 -182q0 10 6 28.5t15 18.5q5 0 14.5 -2.5t28.5 -2.5q25 0 39.5 16t14.5 58v569q0 22 40 22h4q40 0 40 -22v-577q0 -77 -39.5 -107.5t-89.5 -30.5q-73 0 -73 30zM22 590q0 8 6 18l56 88q15 22 46 22h25q31 0 46 -22l57 -88q6 -9 6 -17q0 -15 -24 -15h-2q-19 0 -33 13
l-63 74l-61 -74q-14 -13 -34 -13h-2q-23 0 -23 14z" />
    <glyph glyph-name="Kcommaaccent" unicode="&#x136;" horiz-adv-x="576" 
d="M97 20v660q0 22 40 22h8q40 0 40 -22v-306h4l246 314q11 14 54 14h10q17 0 26 -3.5t9 -9.5q0 -9 -10 -20l-250 -312l303 -329q9 -10 9 -16q0 -8 -10 -11t-34 -3h-12q-22 0 -34.5 2t-20.5 11l-286 322h-4v-313q0 -22 -40 -22h-8q-40 0 -40 22zM209 -231.5q-9 3.5 -9 11.5
q0 9 12 31q14 26 22.5 50t8.5 56q0 15 10 23.5t30 8.5h9q19 0 29.5 -7.5t10.5 -20.5q0 -44 -18 -80t-42.5 -56t-42.5 -20q-11 0 -20 3.5z" />
    <glyph glyph-name="kcommaaccent" unicode="&#x137;" horiz-adv-x="521" 
d="M484 12q0 -8 -10 -11t-34 -3h-4q-21 0 -34 2.5t-20 10.5l-200 237h-4v-228q0 -22 -40 -22h-4q-40 0 -40 22v710q0 22 40 22h4q40 0 40 -22v-447h4l191 228q11 14 53 14h4q17 0 26 -3.5t9 -9.5q0 -9 -10 -20l-186 -220l206 -244q9 -10 9 -16zM182 -231.5q-9 3.5 -9 11.5
q0 9 12 31q14 26 22.5 50t8.5 56q0 15 10 23.5t30 8.5h9q19 0 29.5 -7.5t10.5 -20.5q0 -44 -18 -80t-42.5 -56t-42.5 -20q-11 0 -20 3.5z" />
    <glyph glyph-name="kgreenlandic" unicode="&#x138;" horiz-adv-x="521" 
d="M94 20v484q0 22 40 22h4q40 0 40 -22v-221h4l191 228q11 14 53 14h4q17 0 26 -3.5t9 -9.5q0 -9 -10 -20l-186 -220l206 -244q9 -10 9 -16q0 -8 -10 -11t-34 -3h-4q-21 0 -34 2.5t-20 10.5l-200 237h-4v-228q0 -22 -40 -22h-4q-40 0 -40 22z" />
    <glyph glyph-name="Lacute" unicode="&#x139;" horiz-adv-x="484" 
d="M104 7q-7 7 -7 23v650q0 22 40 22h8q40 0 40 -22v-604h275q11 0 15.5 -7t4.5 -23v-16q0 -16 -4.5 -23t-15.5 -7h-333q-16 0 -23 7zM103 774q0 7 14.5 34t43.5 77q8 14 23 20t39 6q25 0 36.5 -3t11.5 -10q0 -8 -15 -26.5t-79 -89.5q-16 -18 -51 -18q-23 0 -23 10z" />
    <glyph glyph-name="lacute" unicode="&#x13a;" horiz-adv-x="297" 
d="M121.5 24.5q-39.5 30.5 -39.5 107.5v598q0 22 40 22h4q40 0 40 -22v-590q0 -42 14.5 -58t39.5 -16q19 0 28.5 2.5t14.5 2.5q9 0 15 -18.5t6 -28.5q0 -30 -73 -30q-50 0 -89.5 30.5zM83 792q0 7 14.5 34t43.5 77q8 14 23 20t39 6q25 0 36.5 -3t11.5 -10q0 -8 -15 -26.5
t-79 -89.5q-16 -18 -51 -18q-23 0 -23 10z" />
    <glyph glyph-name="Lcommaaccent" unicode="&#x13b;" horiz-adv-x="484" 
d="M104 7q-7 7 -7 23v650q0 22 40 22h8q40 0 40 -22v-604h275q11 0 15.5 -7t4.5 -23v-16q0 -16 -4.5 -23t-15.5 -7h-333q-16 0 -23 7zM203 -231.5q-9 3.5 -9 11.5q0 9 12 31q14 26 22.5 50t8.5 56q0 15 10 23.5t30 8.5h9q19 0 29.5 -7.5t10.5 -20.5q0 -44 -18 -80t-42.5 -56
t-42.5 -20q-11 0 -20 3.5z" />
    <glyph glyph-name="lcommaaccent" unicode="&#x13c;" horiz-adv-x="297" 
d="M121.5 24.5q-39.5 30.5 -39.5 107.5v598q0 22 40 22h4q40 0 40 -22v-590q0 -42 14.5 -58t39.5 -16q19 0 28.5 2.5t14.5 2.5q9 0 15 -18.5t6 -28.5q0 -30 -73 -30q-50 0 -89.5 30.5zM100 -231.5q-9 3.5 -9 11.5q0 9 12 31q14 26 22.5 50t8.5 56q0 15 10 23.5t30 8.5h9
q19 0 29.5 -7.5t10.5 -20.5q0 -44 -18 -80t-42.5 -56t-42.5 -20q-11 0 -20 3.5z" />
    <glyph glyph-name="Lcaron" unicode="&#x13d;" horiz-adv-x="484" 
d="M104 7q-7 7 -7 23v650q0 22 40 22h8q40 0 40 -22v-604h275q11 0 15.5 -7t4.5 -23v-16q0 -16 -4.5 -23t-15.5 -7h-333q-16 0 -23 7zM292 529.5q-9 3.5 -9 11.5q0 6 4 28q9 50 9 99q0 15 10 23.5t30 8.5h9q19 0 29.5 -7.5t10.5 -20.5q0 -42 -12.5 -75.5t-30 -52
t-30.5 -18.5q-11 0 -20 3.5z" />
    <glyph glyph-name="lcaron" unicode="&#x13e;" horiz-adv-x="297" 
d="M121.5 24.5q-39.5 30.5 -39.5 107.5v598q0 22 40 22h4q40 0 40 -22v-590q0 -42 14.5 -58t39.5 -16q19 0 28.5 2.5t14.5 2.5q9 0 15 -18.5t6 -28.5q0 -30 -73 -30q-50 0 -89.5 30.5zM213 531.5q-9 3.5 -9 11.5q0 6 4 28q9 50 9 99q0 15 10 23.5t30 8.5h9q19 0 29.5 -7.5
t10.5 -20.5q0 -42 -12.5 -75.5t-30 -52t-30.5 -18.5q-11 0 -20 3.5z" />
    <glyph glyph-name="Ldot" unicode="&#x13f;" horiz-adv-x="484" 
d="M104 7q-7 7 -7 23v650q0 22 40 22h8q40 0 40 -22v-604h275q11 0 15.5 -7t4.5 -23v-16q0 -16 -4.5 -23t-15.5 -7h-333q-16 0 -23 7zM291.5 323.5q-14.5 14.5 -14.5 36.5t14.5 37t36.5 15t37 -15t15 -37t-15 -36.5t-37 -14.5t-36.5 14.5z" />
    <glyph glyph-name="ldot" unicode="&#x140;" horiz-adv-x="297" 
d="M121.5 24.5q-39.5 30.5 -39.5 107.5v598q0 22 40 22h4q40 0 40 -22v-590q0 -42 14.5 -58t39.5 -16q19 0 28.5 2.5t14.5 2.5q9 0 15 -18.5t6 -28.5q0 -30 -73 -30q-50 0 -89.5 30.5zM243.5 323.5q-14.5 14.5 -14.5 36.5t14.5 37t36.5 15t37 -15t15 -37t-15 -36.5
t-37 -14.5t-36.5 14.5z" />
    <glyph glyph-name="Lslash" unicode="&#x141;" horiz-adv-x="486" 
d="M475.5 69q4.5 -7 4.5 -23v-16q0 -16 -4.5 -23t-15.5 -7h-333q-16 0 -23 7t-7 23v326l-80 -48q-8 -4 -10 -4q-4 0 -6.5 3.5t-2.5 10.5v6q0 19 19 30l80 48v278q0 22 40 22h8q40 0 40 -22v-226l96 57q8 4 10 4q4 0 6.5 -3.5t2.5 -10.5v-6q0 -19 -19 -30l-96 -57v-332h275
q11 0 15.5 -7z" />
    <glyph glyph-name="lslash" unicode="&#x142;" horiz-adv-x="293" 
d="M278 52.5q6 -18.5 6 -28.5q0 -30 -73 -30q-50 0 -89.5 30.5t-39.5 107.5v222l-44 -26q-8 -4 -10 -4q-4 0 -6.5 3.5t-2.5 10.5v6q0 19 19 30l44 26v330q0 22 40 22h4q40 0 40 -22v-281l40 24q8 4 10 4q4 0 6.5 -3.5t2.5 -10.5v-6q0 -19 -19 -30l-40 -24v-263
q0 -42 14.5 -58t39.5 -16q19 0 28.5 2.5t14.5 2.5q9 0 15 -18.5z" />
    <glyph glyph-name="Nacute" unicode="&#x143;" horiz-adv-x="719" 
d="M90 20v660q0 22 40 22h21q16 0 25.5 -4t16.5 -15l314 -474q17 -25 33 -60l4 1q-2 23 -2 68v462q0 22 40 22h7q40 0 40 -22v-660q0 -22 -40 -22h-20q-26 0 -35 14l-322 486q-17 25 -33 60l-4 -1q2 -23 2 -68v-469q0 -22 -40 -22h-7q-40 0 -40 22zM318 772q0 7 14.5 34
t43.5 77q8 14 23 20t39 6q25 0 36.5 -3t11.5 -10q0 -8 -15 -26.5t-79 -89.5q-16 -18 -51 -18q-23 0 -23 10z" />
    <glyph glyph-name="nacute" unicode="&#x144;" 
d="M86 20v351q0 66 -6 94.5t-6 31.5q0 12 19 17.5t35 5.5q14 0 20.5 -14.5t10 -30.5t4.5 -21q32 35 73 55t83 20q76 0 119.5 -43t43.5 -119v-347q0 -22 -40 -22h-4q-40 0 -40 22v339q0 46 -26.5 71.5t-75.5 25.5q-34 0 -67.5 -19t-58.5 -51v-366q0 -22 -40 -22h-4
q-40 0 -40 22zM237 595q0 7 14.5 34t43.5 77q8 14 23 20t39 6q25 0 36.5 -3t11.5 -10q0 -8 -15 -26.5t-79 -89.5q-16 -18 -51 -18q-23 0 -23 10z" />
    <glyph glyph-name="Ncommaaccent" unicode="&#x145;" horiz-adv-x="719" 
d="M90 20v660q0 22 40 22h21q16 0 25.5 -4t16.5 -15l314 -474q17 -25 33 -60l4 1q-2 23 -2 68v462q0 22 40 22h7q40 0 40 -22v-660q0 -22 -40 -22h-20q-26 0 -35 14l-322 486q-17 25 -33 60l-4 -1q2 -23 2 -68v-469q0 -22 -40 -22h-7q-40 0 -40 22zM281 -231.5
q-9 3.5 -9 11.5q0 9 12 31q14 26 22.5 50t8.5 56q0 15 10 23.5t30 8.5h9q19 0 29.5 -7.5t10.5 -20.5q0 -44 -18 -80t-42.5 -56t-42.5 -20q-11 0 -20 3.5z" />
    <glyph glyph-name="ncommaaccent" unicode="&#x146;" 
d="M86 20v351q0 66 -6 94.5t-6 31.5q0 12 19 17.5t35 5.5q14 0 20.5 -14.5t10 -30.5t4.5 -21q32 35 73 55t83 20q76 0 119.5 -43t43.5 -119v-347q0 -22 -40 -22h-4q-40 0 -40 22v339q0 46 -26.5 71.5t-75.5 25.5q-34 0 -67.5 -19t-58.5 -51v-366q0 -22 -40 -22h-4
q-40 0 -40 22zM200 -231.5q-9 3.5 -9 11.5q0 9 12 31q14 26 22.5 50t8.5 56q0 15 10 23.5t30 8.5h9q19 0 29.5 -7.5t10.5 -20.5q0 -44 -18 -80t-42.5 -56t-42.5 -20q-11 0 -20 3.5z" />
    <glyph glyph-name="Ncaron" unicode="&#x147;" horiz-adv-x="719" 
d="M90 20v660q0 22 40 22h21q16 0 25.5 -4t16.5 -15l314 -474q17 -25 33 -60l4 1q-2 23 -2 68v462q0 22 40 22h7q40 0 40 -22v-660q0 -22 -40 -22h-20q-26 0 -35 14l-322 486q-17 25 -33 60l-4 -1q2 -23 2 -68v-469q0 -22 -40 -22h-7q-40 0 -40 22zM301 781l-56 88
q-6 11 -6 18q0 14 23 14h2q20 0 34 -13l61 -74l63 74q14 13 33 13h2q24 0 24 -15q0 -8 -6 -17l-57 -88q-15 -22 -46 -22h-25q-31 0 -46 22z" />
    <glyph glyph-name="ncaron" unicode="&#x148;" 
d="M86 20v351q0 66 -6 94.5t-6 31.5q0 12 19 17.5t35 5.5q14 0 20.5 -14.5t10 -30.5t4.5 -21q32 35 73 55t83 20q76 0 119.5 -43t43.5 -119v-347q0 -22 -40 -22h-4q-40 0 -40 22v339q0 46 -26.5 71.5t-75.5 25.5q-34 0 -67.5 -19t-58.5 -51v-366q0 -22 -40 -22h-4
q-40 0 -40 22zM220 604l-56 88q-6 11 -6 18q0 14 23 14h2q20 0 34 -13l61 -74l63 74q14 13 33 13h2q24 0 24 -15q0 -8 -6 -17l-57 -88q-15 -22 -46 -22h-25q-31 0 -46 22z" />
    <glyph glyph-name="napostrophe" unicode="&#x149;" 
d="M-5 540.5q-9 3.5 -9 11.5q0 9 12 31q14 26 22.5 50t8.5 56q0 15 10 23.5t30 8.5h9q19 0 29.5 -7.5t10.5 -20.5q0 -44 -18 -80t-42.5 -56t-42.5 -20q-11 0 -20 3.5zM86 20v351q0 66 -6 94.5t-6 31.5q0 12 19 17.5t35 5.5q14 0 20.5 -14.5t10 -30.5t4.5 -21q32 35 73 55
t83 20q76 0 119.5 -43t43.5 -119v-347q0 -22 -40 -22h-4q-40 0 -40 22v339q0 46 -26.5 71.5t-75.5 25.5q-34 0 -67.5 -19t-58.5 -51v-366q0 -22 -40 -22h-4q-40 0 -40 22z" />
    <glyph glyph-name="Eng" unicode="&#x14a;" horiz-adv-x="719" 
d="M629 680v-754q0 -77 -39.5 -107.5t-89.5 -30.5q-73 0 -73 30q0 10 6 28.5t15 18.5q5 0 14.5 -2.5t28.5 -2.5q25 0 39.5 16t14.5 58v62l-333 502q-17 25 -33 60l-4 -1q2 -23 2 -68v-469q0 -22 -40 -22h-7q-40 0 -40 22v660q0 22 40 22h21q16 0 25.5 -4t16.5 -15l314 -474
q17 -25 33 -60l4 1q-2 23 -2 68v462q0 22 40 22h7q40 0 40 -22z" />
    <glyph glyph-name="eng" unicode="&#x14b;" 
d="M280 -182q0 10 6 28.5t15 18.5q5 0 14.5 -2.5t28.5 -2.5q25 0 39.5 16t14.5 58v425q0 46 -26.5 71.5t-75.5 25.5q-34 0 -67.5 -19t-58.5 -51v-366q0 -22 -40 -22h-4q-40 0 -40 22v351q0 66 -6 94.5t-6 31.5q0 12 19 17.5t35 5.5q14 0 20.5 -14.5t10 -30.5t4.5 -21
q32 35 73 55t83 20q76 0 119.5 -43t43.5 -119v-441q0 -77 -39.5 -107.5t-89.5 -30.5q-73 0 -73 30z" />
    <glyph glyph-name="Omacron" unicode="&#x14c;" horiz-adv-x="731" 
d="M136 85.5q-79 91.5 -79 266.5t78.5 264.5t229.5 89.5t230 -89.5t79 -264.5t-79 -266.5t-230 -91.5q-150 0 -229 91.5zM527 142q56 72 56 210q0 137 -56 207.5t-162 70.5t-161.5 -70.5t-55.5 -207.5q0 -138 55.5 -210t161.5 -72t162 72zM239.5 796q-4.5 7 -4.5 23v10
q0 16 4.5 23t15.5 7h223q11 0 15.5 -7t4.5 -23v-10q0 -16 -4.5 -23t-15.5 -7h-223q-11 0 -15.5 7z" />
    <glyph glyph-name="omacron" unicode="&#x14d;" horiz-adv-x="569" 
d="M114.5 62q-59.5 68 -59.5 197q0 130 60 200t172 70q110 0 168.5 -69.5t58.5 -200.5q0 -130 -57.5 -197.5t-169.5 -67.5q-113 0 -172.5 68zM392 113.5q35 47.5 35 147.5t-35 148t-108 48t-107 -47.5t-34 -148.5q0 -100 34 -147.5t107 -47.5t108 47.5zM158.5 619
q-4.5 7 -4.5 23v10q0 16 4.5 23t15.5 7h223q11 0 15.5 -7t4.5 -23v-10q0 -16 -4.5 -23t-15.5 -7h-223q-11 0 -15.5 7z" />
    <glyph glyph-name="Obreve" unicode="&#x14e;" horiz-adv-x="731" 
d="M136 85.5q-79 91.5 -79 266.5t78.5 264.5t229.5 89.5t230 -89.5t79 -264.5t-79 -266.5t-230 -91.5q-150 0 -229 91.5zM527 142q56 72 56 210q0 137 -56 207.5t-162 70.5t-161.5 -70.5t-55.5 -207.5q0 -138 55.5 -210t161.5 -72t162 72zM264 792.5q-43 30.5 -43 84.5
q0 15 15 15q9 0 12 -3t5 -9.5t5 -12.5q11 -20 40 -29.5t68 -9.5t68 9.5t39 29.5q3 6 5.5 13t5.5 9.5t11 2.5q15 0 15 -15q0 -54 -43 -84.5t-101 -30.5q-59 0 -102 30.5z" />
    <glyph glyph-name="obreve" unicode="&#x14f;" horiz-adv-x="569" 
d="M114.5 62q-59.5 68 -59.5 197q0 130 60 200t172 70q110 0 168.5 -69.5t58.5 -200.5q0 -130 -57.5 -197.5t-169.5 -67.5q-113 0 -172.5 68zM392 113.5q35 47.5 35 147.5t-35 148t-108 48t-107 -47.5t-34 -148.5q0 -100 34 -147.5t107 -47.5t108 47.5zM183 615.5
q-43 30.5 -43 84.5q0 15 15 15q9 0 12 -3t5 -9.5t5 -12.5q11 -20 40 -29.5t68 -9.5t68 9.5t39 29.5q3 6 5.5 13t5.5 9.5t11 2.5q15 0 15 -15q0 -54 -43 -84.5t-101 -30.5q-59 0 -102 30.5z" />
    <glyph glyph-name="Ohungarumlaut" unicode="&#x150;" horiz-adv-x="731" 
d="M136 85.5q-79 91.5 -79 266.5t78.5 264.5t229.5 89.5t230 -89.5t79 -264.5t-79 -266.5t-230 -91.5q-150 0 -229 91.5zM527 142q56 72 56 210q0 137 -56 207.5t-162 70.5t-161.5 -70.5t-55.5 -207.5q0 -138 55.5 -210t161.5 -72t162 72zM248 772q0 7 14.5 34t43.5 77
q8 14 23 20t39 6q25 0 36.5 -3t11.5 -10q0 -8 -15 -26.5t-79 -89.5q-16 -18 -51 -18q-23 0 -23 10zM395 772q0 7 14.5 34t43.5 77q8 14 23 20t39 6q25 0 36.5 -3t11.5 -10q0 -8 -15 -26.5t-79 -89.5q-16 -18 -51 -18q-23 0 -23 10z" />
    <glyph glyph-name="ohungarumlaut" unicode="&#x151;" horiz-adv-x="569" 
d="M114.5 62q-59.5 68 -59.5 197q0 130 60 200t172 70q110 0 168.5 -69.5t58.5 -200.5q0 -130 -57.5 -197.5t-169.5 -67.5q-113 0 -172.5 68zM392 113.5q35 47.5 35 147.5t-35 148t-108 48t-107 -47.5t-34 -148.5q0 -100 34 -147.5t107 -47.5t108 47.5zM167 595q0 7 14.5 34
t43.5 77q8 14 23 20t39 6q25 0 36.5 -3t11.5 -10q0 -8 -15 -26.5t-79 -89.5q-16 -18 -51 -18q-23 0 -23 10zM314 595q0 7 14.5 34t43.5 77q8 14 23 20t39 6q25 0 36.5 -3t11.5 -10q0 -8 -15 -26.5t-79 -89.5q-16 -18 -51 -18q-23 0 -23 10z" />
    <glyph glyph-name="OE" unicode="&#x152;" horiz-adv-x="1015" 
d="M961.5 69q4.5 -7 4.5 -23v-16q0 -16 -4.5 -23t-15.5 -7h-331q-16 0 -23 7t-7 23v48q-76 -84 -220 -84q-150 0 -229 91.5t-79 266.5t78.5 264.5t229.5 89.5q143 0 220 -82v46q0 16 7 23t23 7h330q11 0 15.5 -7t4.5 -23v-16q0 -16 -4.5 -23t-15.5 -7h-272v-228h242
q11 0 15.5 -7t4.5 -23v-16q0 -16 -4.5 -23t-15.5 -7h-242v-244h273q11 0 15.5 -7zM527 142q56 72 56 210q0 137 -56 207.5t-162 70.5t-161.5 -70.5t-55.5 -207.5q0 -138 55.5 -210t161.5 -72t162 72z" />
    <glyph glyph-name="oe" unicode="&#x153;" horiz-adv-x="875" 
d="M803.5 88q12.5 -20 12.5 -30q0 -12 -25 -27.5t-66.5 -26t-88.5 -10.5q-121 0 -183 63q-57 -63 -166 -63q-113 0 -172.5 68t-59.5 197q0 130 60 200t172 70q107 0 165 -67q59 67 172 67q102 0 154 -66.5t52 -194.5q0 -9 -12 -25t-21 -16h-316q6 -83 43 -122t111 -39
q42 0 72.5 10.5t50.5 21t23 10.5q10 0 22.5 -20zM411 126q-20 55 -20 132q0 81 21 136q-35 63 -128 63q-73 0 -107 -47.5t-34 -148.5q0 -100 34 -147.5t107 -47.5q90 0 127 60zM481 299h260q0 158 -120 158q-129 0 -140 -158z" />
    <glyph glyph-name="Racute" unicode="&#x154;" horiz-adv-x="610" 
d="M97 20v650q0 16 7 23t23 7h168q120 0 180.5 -42.5t60.5 -134.5q0 -62 -30 -104.5t-85 -64.5v-4q29 -10 48.5 -39t41.5 -86l78 -197q3 -9 3 -14q0 -16 -42 -16h-10q-15 0 -26 4.5t-14 11.5l-76 196q-22 57 -55 77.5t-94 20.5h-90v-288q0 -22 -40 -22h-8q-40 0 -40 22z
M317 384q35 0 64.5 17t46.5 45t17 61q0 59 -36 88t-99 29h-125v-240h132zM263 772q0 7 14.5 34t43.5 77q8 14 23 20t39 6q25 0 36.5 -3t11.5 -10q0 -8 -15 -26.5t-79 -89.5q-16 -18 -51 -18q-23 0 -23 10z" />
    <glyph glyph-name="racute" unicode="&#x155;" horiz-adv-x="366" 
d="M90 20v351q0 66 -6 94.5t-6 31.5q0 12 19 17.5t35 5.5q14 0 20.5 -14.5t10 -30.5t4.5 -21q53 75 116 75q28 0 43 -11t15 -28t-6 -35.5t-14 -18.5q-5 0 -19.5 5.5t-35.5 5.5q-23 0 -43.5 -13.5t-34.5 -29.5t-14 -18v-366q0 -22 -40 -22h-4q-40 0 -40 22zM90 592
q0 7 14.5 34t43.5 77q8 14 23 20t39 6q25 0 36.5 -3t11.5 -10q0 -8 -15 -26.5t-79 -89.5q-16 -18 -51 -18q-23 0 -23 10z" />
    <glyph glyph-name="Rcommaaccent" unicode="&#x156;" horiz-adv-x="610" 
d="M97 20v650q0 16 7 23t23 7h168q120 0 180.5 -42.5t60.5 -134.5q0 -62 -30 -104.5t-85 -64.5v-4q29 -10 48.5 -39t41.5 -86l78 -197q3 -9 3 -14q0 -16 -42 -16h-10q-15 0 -26 4.5t-14 11.5l-76 196q-22 57 -55 77.5t-94 20.5h-90v-288q0 -22 -40 -22h-8q-40 0 -40 22z
M317 384q35 0 64.5 17t46.5 45t17 61q0 59 -36 88t-99 29h-125v-240h132zM226 -231.5q-9 3.5 -9 11.5q0 9 12 31q14 26 22.5 50t8.5 56q0 15 10 23.5t30 8.5h9q19 0 29.5 -7.5t10.5 -20.5q0 -44 -18 -80t-42.5 -56t-42.5 -20q-11 0 -20 3.5z" />
    <glyph glyph-name="rcommaaccent" unicode="&#x157;" horiz-adv-x="366" 
d="M90 20v351q0 66 -6 94.5t-6 31.5q0 12 19 17.5t35 5.5q14 0 20.5 -14.5t10 -30.5t4.5 -21q53 75 116 75q28 0 43 -11t15 -28t-6 -35.5t-14 -18.5q-5 0 -19.5 5.5t-35.5 5.5q-23 0 -43.5 -13.5t-34.5 -29.5t-14 -18v-366q0 -22 -40 -22h-4q-40 0 -40 22zM55 -233.5
q-9 3.5 -9 11.5q0 9 12 31q14 26 22.5 50t8.5 56q0 15 10 23.5t30 8.5h9q19 0 29.5 -7.5t10.5 -20.5q0 -44 -18 -80t-42.5 -56t-42.5 -20q-11 0 -20 3.5z" />
    <glyph glyph-name="Rcaron" unicode="&#x158;" horiz-adv-x="610" 
d="M97 20v650q0 16 7 23t23 7h168q120 0 180.5 -42.5t60.5 -134.5q0 -62 -30 -104.5t-85 -64.5v-4q29 -10 48.5 -39t41.5 -86l78 -197q3 -9 3 -14q0 -16 -42 -16h-10q-15 0 -26 4.5t-14 11.5l-76 196q-22 57 -55 77.5t-94 20.5h-90v-288q0 -22 -40 -22h-8q-40 0 -40 22z
M317 384q35 0 64.5 17t46.5 45t17 61q0 59 -36 88t-99 29h-125v-240h132zM246 781l-56 88q-6 11 -6 18q0 14 23 14h2q20 0 34 -13l61 -74l63 74q14 13 33 13h2q24 0 24 -15q0 -8 -6 -17l-57 -88q-15 -22 -46 -22h-25q-31 0 -46 22z" />
    <glyph glyph-name="rcaron" unicode="&#x159;" horiz-adv-x="366" 
d="M90 20v351q0 66 -6 94.5t-6 31.5q0 12 19 17.5t35 5.5q14 0 20.5 -14.5t10 -30.5t4.5 -21q53 75 116 75q28 0 43 -11t15 -28t-6 -35.5t-14 -18.5q-5 0 -19.5 5.5t-35.5 5.5q-23 0 -43.5 -13.5t-34.5 -29.5t-14 -18v-366q0 -22 -40 -22h-4q-40 0 -40 22zM73 601l-56 88
q-6 11 -6 18q0 14 23 14h2q20 0 34 -13l61 -74l63 74q14 13 33 13h2q24 0 24 -15q0 -8 -6 -17l-57 -88q-15 -22 -46 -22h-25q-31 0 -46 22z" />
    <glyph glyph-name="Sacute" unicode="&#x15a;" horiz-adv-x="500" 
d="M133 8q-51 14 -77 34q-19 14 -19 25q0 12 13.5 33t21.5 21q4 0 21 -10q31 -17 66.5 -29t84.5 -12q58 0 94.5 32.5t36.5 85.5q0 37 -20 61.5t-48.5 39t-82.5 35.5q-58 23 -92 42t-58 56.5t-24 98.5q0 54 27.5 96t78 65.5t116.5 23.5q34 0 76 -9.5t65 -25.5q20 -12 20 -26
q0 -11 -12.5 -32t-19.5 -21q-5 0 -14.5 5t-12.5 7q-50 26 -104 26q-58 0 -93.5 -30t-35.5 -83q0 -34 17.5 -55t40 -31.5t78.5 -32.5q60 -23 98 -44.5t64.5 -62t26.5 -103.5q0 -90 -60 -142t-162 -52q-60 0 -111 14zM208 772q0 7 14.5 34t43.5 77q8 14 23 20t39 6
q25 0 36.5 -3t11.5 -10q0 -8 -15 -26.5t-79 -89.5q-16 -18 -51 -18q-23 0 -23 10z" />
    <glyph glyph-name="sacute" unicode="&#x15b;" horiz-adv-x="413" 
d="M114.5 1.5q-36.5 10.5 -58 25.5t-21.5 27q0 10 12.5 30t22.5 20q2 0 19 -11t42.5 -20t56.5 -9q98 0 98 81q0 34 -22 54t-78 36q-79 23 -109 57.5t-30 92.5q0 42 21.5 75t59 51.5t85.5 18.5q51 0 91.5 -13t40.5 -30q0 -13 -11.5 -33.5t-20.5 -20.5q-3 1 -26.5 13.5
t-64.5 12.5q-38 0 -63.5 -17t-25.5 -46q0 -34 18 -54t60 -33q64 -20 97.5 -39.5t48 -48t14.5 -74.5q0 -44 -23.5 -79.5t-64 -56t-89.5 -20.5q-43 0 -79.5 10.5zM165 595q0 7 14.5 34t43.5 77q8 14 23 20t39 6q25 0 36.5 -3t11.5 -10q0 -8 -15 -26.5t-79 -89.5
q-16 -18 -51 -18q-23 0 -23 10z" />
    <glyph glyph-name="Scircumflex" unicode="&#x15c;" horiz-adv-x="500" 
d="M133 8q-51 14 -77 34q-19 14 -19 25q0 12 13.5 33t21.5 21q4 0 21 -10q31 -17 66.5 -29t84.5 -12q58 0 94.5 32.5t36.5 85.5q0 37 -20 61.5t-48.5 39t-82.5 35.5q-58 23 -92 42t-58 56.5t-24 98.5q0 54 27.5 96t78 65.5t116.5 23.5q34 0 76 -9.5t65 -25.5q20 -12 20 -26
q0 -11 -12.5 -32t-19.5 -21q-5 0 -14.5 5t-12.5 7q-50 26 -104 26q-58 0 -93.5 -30t-35.5 -83q0 -34 17.5 -55t40 -31.5t78.5 -32.5q60 -23 98 -44.5t64.5 -62t26.5 -103.5q0 -90 -60 -142t-162 -52q-60 0 -111 14zM129 767q0 8 6 18l56 88q15 22 46 22h25q31 0 46 -22
l57 -88q6 -9 6 -17q0 -15 -24 -15h-2q-19 0 -33 13l-63 74l-61 -74q-14 -13 -34 -13h-2q-23 0 -23 14z" />
    <glyph glyph-name="scircumflex" unicode="&#x15d;" horiz-adv-x="413" 
d="M114.5 1.5q-36.5 10.5 -58 25.5t-21.5 27q0 10 12.5 30t22.5 20q2 0 19 -11t42.5 -20t56.5 -9q98 0 98 81q0 34 -22 54t-78 36q-79 23 -109 57.5t-30 92.5q0 42 21.5 75t59 51.5t85.5 18.5q51 0 91.5 -13t40.5 -30q0 -13 -11.5 -33.5t-20.5 -20.5q-3 1 -26.5 13.5
t-64.5 12.5q-38 0 -63.5 -17t-25.5 -46q0 -34 18 -54t60 -33q64 -20 97.5 -39.5t48 -48t14.5 -74.5q0 -44 -23.5 -79.5t-64 -56t-89.5 -20.5q-43 0 -79.5 10.5zM86 590q0 8 6 18l56 88q15 22 46 22h25q31 0 46 -22l57 -88q6 -9 6 -17q0 -15 -24 -15h-2q-19 0 -33 13l-63 74
l-61 -74q-14 -13 -34 -13h-2q-23 0 -23 14z" />
    <glyph glyph-name="Scedilla" unicode="&#x15e;" horiz-adv-x="500" 
d="M413.5 53.5q-52.5 -51.5 -142.5 -58.5l-13 -44h4q29 0 57 -15t28 -57q0 -89 -115 -89q-39 0 -77 12t-38 31q0 26 19 26q8 0 25 -7q33 -13 58 -13q57 0 57 35q0 17 -10 24.5t-29 13.5q-14 4 -20.5 8t-6.5 12q0 6 4 19.5t13 42.5q-54 2 -100 16t-71 32q-19 14 -19 25
q0 12 13.5 33t21.5 21q4 0 21 -10q31 -17 66.5 -29t84.5 -12q58 0 94.5 32.5t36.5 85.5q0 37 -20 61.5t-48.5 39t-82.5 35.5q-58 23 -92 42t-58 56.5t-24 98.5q0 54 27.5 96t78 65.5t116.5 23.5q34 0 76 -9.5t65 -25.5q20 -12 20 -26q0 -11 -12.5 -32t-19.5 -21
q-5 0 -14.5 5t-12.5 7q-50 26 -104 26q-58 0 -93.5 -30t-35.5 -83q0 -34 17.5 -55t40 -31.5t78.5 -32.5q60 -23 98 -44.5t64.5 -62t26.5 -103.5q0 -83 -52.5 -134.5z" />
    <glyph glyph-name="scedilla" unicode="&#x15f;" horiz-adv-x="413" 
d="M330.5 45.5q-40.5 -42.5 -103.5 -51.5l-12 -43h4q29 0 57 -15t28 -57q0 -89 -115 -89q-39 0 -77 12t-38 31q0 26 19 26q8 0 25 -7q33 -13 58 -13q57 0 57 35q0 17 -10 24.5t-29 13.5q-14 4 -20.5 8t-6.5 12q0 6 3.5 19t12.5 40q-40 1 -74 12t-54 25.5t-20 25.5
q0 10 12.5 30t22.5 20q2 0 19 -11t42.5 -20t56.5 -9q98 0 98 81q0 34 -22 54t-78 36q-79 23 -109 57.5t-30 92.5q0 42 21.5 75t59 51.5t85.5 18.5q51 0 91.5 -13t40.5 -30q0 -13 -11.5 -33.5t-20.5 -20.5q-3 1 -26.5 13.5t-64.5 12.5q-38 0 -63.5 -17t-25.5 -46
q0 -34 18 -54t60 -33q64 -20 97.5 -39.5t48 -48t14.5 -74.5q0 -59 -40.5 -101.5z" />
    <glyph glyph-name="Scaron" unicode="&#x160;" horiz-adv-x="500" 
d="M133 8q-51 14 -77 34q-19 14 -19 25q0 12 13.5 33t21.5 21q4 0 21 -10q31 -17 66.5 -29t84.5 -12q58 0 94.5 32.5t36.5 85.5q0 37 -20 61.5t-48.5 39t-82.5 35.5q-58 23 -92 42t-58 56.5t-24 98.5q0 54 27.5 96t78 65.5t116.5 23.5q34 0 76 -9.5t65 -25.5q20 -12 20 -26
q0 -11 -12.5 -32t-19.5 -21q-5 0 -14.5 5t-12.5 7q-50 26 -104 26q-58 0 -93.5 -30t-35.5 -83q0 -34 17.5 -55t40 -31.5t78.5 -32.5q60 -23 98 -44.5t64.5 -62t26.5 -103.5q0 -90 -60 -142t-162 -52q-60 0 -111 14zM191 781l-56 88q-6 11 -6 18q0 14 23 14h2q20 0 34 -13
l61 -74l63 74q14 13 33 13h2q24 0 24 -15q0 -8 -6 -17l-57 -88q-15 -22 -46 -22h-25q-31 0 -46 22z" />
    <glyph glyph-name="scaron" unicode="&#x161;" horiz-adv-x="413" 
d="M114.5 1.5q-36.5 10.5 -58 25.5t-21.5 27q0 10 12.5 30t22.5 20q2 0 19 -11t42.5 -20t56.5 -9q98 0 98 81q0 34 -22 54t-78 36q-79 23 -109 57.5t-30 92.5q0 42 21.5 75t59 51.5t85.5 18.5q51 0 91.5 -13t40.5 -30q0 -13 -11.5 -33.5t-20.5 -20.5q-3 1 -26.5 13.5
t-64.5 12.5q-38 0 -63.5 -17t-25.5 -46q0 -34 18 -54t60 -33q64 -20 97.5 -39.5t48 -48t14.5 -74.5q0 -44 -23.5 -79.5t-64 -56t-89.5 -20.5q-43 0 -79.5 10.5zM148 604l-56 88q-6 11 -6 18q0 14 23 14h2q20 0 34 -13l61 -74l63 74q14 13 33 13h2q24 0 24 -15q0 -8 -6 -17
l-57 -88q-15 -22 -46 -22h-25q-31 0 -46 22z" />
    <glyph glyph-name="uni0162" unicode="&#x162;" horiz-adv-x="549" 
d="M524.5 693q4.5 -7 4.5 -23v-16q0 -16 -4.5 -23t-15.5 -7h-189v-604q0 -17 -23 -21l-14 -48h4q29 0 57 -15t28 -57q0 -89 -115 -89q-39 0 -77 12t-38 31q0 26 19 26q8 0 25 -7q33 -13 58 -13q57 0 57 35q0 17 -10 24.5t-29 13.5q-14 4 -20.5 8t-6.5 12q0 6 4.5 21t14.5 46
q-22 4 -22 21v604h-192q-10 0 -15 7t-5 23v16q0 16 5 23t15 7h469q11 0 15.5 -7z" />
    <glyph glyph-name="uni0163" unicode="&#x163;" horiz-adv-x="342" 
d="M285 -64q28 -15 28 -57q0 -89 -115 -89q-39 0 -77 12t-38 31q0 26 19 26q8 0 25 -7q33 -13 58 -13q57 0 57 35q0 17 -10 24.5t-29 13.5q-14 4 -20.5 8t-6.5 12q0 6 4.5 21t14.5 46q-38 10 -63 41.5t-25 91.5v319h-50q-10 0 -15 7t-5 23v12q0 16 5 23t15 7h50l12 105
q3 22 32 22h10q30 0 30 -22v-105h84q11 0 15.5 -7t4.5 -23v-12q0 -16 -4.5 -23t-15.5 -7h-84v-311q0 -42 14.5 -58t39.5 -16q19 0 28.5 2.5t14.5 2.5q9 0 15 -18.5t6 -28.5q0 -30 -73 -30l-12 -43h4q29 0 57 -15z" />
    <glyph glyph-name="Tcaron" unicode="&#x164;" horiz-adv-x="549" 
d="M232 20v604h-192q-10 0 -15 7t-5 23v16q0 16 5 23t15 7h469q11 0 15.5 -7t4.5 -23v-16q0 -16 -4.5 -23t-15.5 -7h-189v-604q0 -22 -40 -22h-8q-40 0 -40 22zM216 781l-56 88q-6 11 -6 18q0 14 23 14h2q20 0 34 -13l61 -74l63 74q14 13 33 13h2q24 0 24 -15q0 -8 -6 -17
l-57 -88q-15 -22 -46 -22h-25q-31 0 -46 22z" />
    <glyph glyph-name="tcaron" unicode="&#x165;" horiz-adv-x="342" 
d="M146.5 24.5q-39.5 30.5 -39.5 107.5v319h-50q-10 0 -15 7t-5 23v12q0 16 5 23t15 7h50l12 105q3 22 32 22h10q30 0 30 -22v-105h84q11 0 15.5 -7t4.5 -23v-12q0 -16 -4.5 -23t-15.5 -7h-84v-311q0 -42 14.5 -58t39.5 -16q19 0 28.5 2.5t14.5 2.5q9 0 15 -18.5t6 -28.5
q0 -30 -73 -30q-50 0 -89.5 30.5zM233 581.5q-9 3.5 -9 11.5q0 6 4 28q9 50 9 99q0 15 10 23.5t30 8.5h9q19 0 29.5 -7.5t10.5 -20.5q0 -42 -12.5 -75.5t-30 -52t-30.5 -18.5q-11 0 -20 3.5z" />
    <glyph glyph-name="Tbar" unicode="&#x166;" horiz-adv-x="549" 
d="M524.5 693q4.5 -7 4.5 -23v-16q0 -16 -4.5 -23t-15.5 -7h-189v-236h140q11 0 15.5 -7t4.5 -23v-10q0 -16 -4.5 -23t-15.5 -7h-140v-298q0 -22 -40 -22h-8q-40 0 -40 22v298h-135q-10 0 -15 7t-5 23v10q0 16 5 23t15 7h135v236h-192q-10 0 -15 7t-5 23v16q0 16 5 23t15 7
h469q11 0 15.5 -7z" />
    <glyph glyph-name="tbar" unicode="&#x167;" horiz-adv-x="342" 
d="M303 52.5q6 -18.5 6 -28.5q0 -30 -73 -30q-50 0 -89.5 30.5t-39.5 107.5v128h-53q-10 0 -15 7t-5 23v10q0 16 5 23t15 7h53v121h-50q-10 0 -15 7t-5 23v12q0 16 5 23t15 7h50l12 105q3 22 32 22h10q30 0 30 -22v-105h84q11 0 15.5 -7t4.5 -23v-12q0 -16 -4.5 -23
t-15.5 -7h-84v-121h86q11 0 15.5 -7t4.5 -23v-10q0 -16 -4.5 -23t-15.5 -7h-86v-120q0 -42 14.5 -58t39.5 -16q19 0 28.5 2.5t14.5 2.5q9 0 15 -18.5z" />
    <glyph glyph-name="Utilde" unicode="&#x168;" horiz-adv-x="712" 
d="M153.5 54.5q-70.5 60.5 -70.5 169.5v456q0 22 40 22h8q40 0 40 -22v-459q0 -44 24 -78.5t66 -53.5t95 -19t95 19.5t66 54t24 77.5v459q0 22 40 22h8q40 0 40 -22v-456q0 -109 -71 -169.5t-202 -60.5q-132 0 -202.5 60.5zM193 773q-10 4 -10 12q0 6 3 13q16 37 38.5 53
t53.5 16q21 0 42 -5.5t55 -17.5q29 -10 45.5 -15t31.5 -5q14 0 24 6.5t20 22.5q10 15 20 15q6 0 10 -3l8 -3q12 -4 12 -12q0 -6 -5 -14q-16 -36 -38 -52t-53 -16q-36 0 -100 24q-28 10 -45 14.5t-32 4.5q-13 0 -22 -6.5t-20 -23.5q-8 -14 -17 -14q-3 0 -11 2z" />
    <glyph glyph-name="utilde" unicode="&#x169;" 
d="M118.5 37q-43.5 43 -43.5 119v347q0 22 40 22h4q40 0 40 -22v-339q0 -46 26.5 -71.5t75.5 -25.5q34 0 67.5 19t58.5 51v366q0 22 40 22h4q40 0 40 -22v-355q0 -66 6 -94.5t6 -31.5q0 -12 -19 -17.5t-35 -5.5q-14 0 -20.5 15.5t-10 32.5t-4.5 22q-32 -35 -73 -55t-83 -20
q-76 0 -119.5 43zM116 596q-10 4 -10 12q0 6 3 13q16 37 38.5 53t53.5 16q21 0 42 -5.5t55 -17.5q29 -10 45.5 -15t31.5 -5q14 0 24 6.5t20 22.5q10 15 20 15q6 0 10 -3l8 -3q12 -4 12 -12q0 -6 -5 -14q-16 -36 -38 -52t-53 -16q-36 0 -100 24q-28 10 -45 14.5t-32 4.5
q-13 0 -22 -6.5t-20 -23.5q-8 -14 -17 -14q-3 0 -11 2z" />
    <glyph glyph-name="Umacron" unicode="&#x16a;" horiz-adv-x="712" 
d="M153.5 54.5q-70.5 60.5 -70.5 169.5v456q0 22 40 22h8q40 0 40 -22v-459q0 -44 24 -78.5t66 -53.5t95 -19t95 19.5t66 54t24 77.5v459q0 22 40 22h8q40 0 40 -22v-456q0 -109 -71 -169.5t-202 -60.5q-132 0 -202.5 60.5zM229.5 796q-4.5 7 -4.5 23v10q0 16 4.5 23t15.5 7
h223q11 0 15.5 -7t4.5 -23v-10q0 -16 -4.5 -23t-15.5 -7h-223q-11 0 -15.5 7z" />
    <glyph glyph-name="umacron" unicode="&#x16b;" 
d="M118.5 37q-43.5 43 -43.5 119v347q0 22 40 22h4q40 0 40 -22v-339q0 -46 26.5 -71.5t75.5 -25.5q34 0 67.5 19t58.5 51v366q0 22 40 22h4q40 0 40 -22v-355q0 -66 6 -94.5t6 -31.5q0 -12 -19 -17.5t-35 -5.5q-14 0 -20.5 15.5t-10 32.5t-4.5 22q-32 -35 -73 -55t-83 -20
q-76 0 -119.5 43zM152.5 619q-4.5 7 -4.5 23v10q0 16 4.5 23t15.5 7h223q11 0 15.5 -7t4.5 -23v-10q0 -16 -4.5 -23t-15.5 -7h-223q-11 0 -15.5 7z" />
    <glyph glyph-name="Ubreve" unicode="&#x16c;" horiz-adv-x="712" 
d="M153.5 54.5q-70.5 60.5 -70.5 169.5v456q0 22 40 22h8q40 0 40 -22v-459q0 -44 24 -78.5t66 -53.5t95 -19t95 19.5t66 54t24 77.5v459q0 22 40 22h8q40 0 40 -22v-456q0 -109 -71 -169.5t-202 -60.5q-132 0 -202.5 60.5zM254 792.5q-43 30.5 -43 84.5q0 15 15 15
q9 0 12 -3t5 -9.5t5 -12.5q11 -20 40 -29.5t68 -9.5t68 9.5t39 29.5q3 6 5.5 13t5.5 9.5t11 2.5q15 0 15 -15q0 -54 -43 -84.5t-101 -30.5q-59 0 -102 30.5z" />
    <glyph glyph-name="ubreve" unicode="&#x16d;" 
d="M118.5 37q-43.5 43 -43.5 119v347q0 22 40 22h4q40 0 40 -22v-339q0 -46 26.5 -71.5t75.5 -25.5q34 0 67.5 19t58.5 51v366q0 22 40 22h4q40 0 40 -22v-355q0 -66 6 -94.5t6 -31.5q0 -12 -19 -17.5t-35 -5.5q-14 0 -20.5 15.5t-10 32.5t-4.5 22q-32 -35 -73 -55t-83 -20
q-76 0 -119.5 43zM177 615.5q-43 30.5 -43 84.5q0 15 15 15q9 0 12 -3t5 -9.5t5 -12.5q11 -20 40 -29.5t68 -9.5t68 9.5t39 29.5q3 6 5.5 13t5.5 9.5t11 2.5q15 0 15 -15q0 -54 -43 -84.5t-101 -30.5q-59 0 -102 30.5z" />
    <glyph glyph-name="Uring" unicode="&#x16e;" horiz-adv-x="712" 
d="M153.5 54.5q-70.5 60.5 -70.5 169.5v456q0 22 40 22h8q40 0 40 -22v-459q0 -44 24 -78.5t66 -53.5t95 -19t95 19.5t66 54t24 77.5v459q0 22 40 22h8q40 0 40 -22v-456q0 -109 -71 -169.5t-202 -60.5q-132 0 -202.5 60.5zM295.5 765.5q-24.5 24.5 -24.5 59.5t24.5 60
t59.5 25t60 -25t25 -60t-25 -59.5t-60 -24.5t-59.5 24.5zM390.5 790q14.5 14 14.5 35t-14.5 35.5t-35.5 14.5t-35 -14.5t-14 -35.5t14 -35t35 -14t35.5 14z" />
    <glyph glyph-name="uring" unicode="&#x16f;" 
d="M118.5 37q-43.5 43 -43.5 119v347q0 22 40 22h4q40 0 40 -22v-339q0 -46 26.5 -71.5t75.5 -25.5q34 0 67.5 19t58.5 51v366q0 22 40 22h4q40 0 40 -22v-355q0 -66 6 -94.5t6 -31.5q0 -12 -19 -17.5t-35 -5.5q-14 0 -20.5 15.5t-10 32.5t-4.5 22q-32 -35 -73 -55t-83 -20
q-76 0 -119.5 43zM218.5 588.5q-24.5 24.5 -24.5 59.5t24.5 60t59.5 25t60 -25t25 -60t-25 -59.5t-60 -24.5t-59.5 24.5zM313.5 613q14.5 14 14.5 35t-14.5 35.5t-35.5 14.5t-35 -14.5t-14 -35.5t14 -35t35 -14t35.5 14z" />
    <glyph glyph-name="Uhungarumlaut" unicode="&#x170;" horiz-adv-x="712" 
d="M153.5 54.5q-70.5 60.5 -70.5 169.5v456q0 22 40 22h8q40 0 40 -22v-459q0 -44 24 -78.5t66 -53.5t95 -19t95 19.5t66 54t24 77.5v459q0 22 40 22h8q40 0 40 -22v-456q0 -109 -71 -169.5t-202 -60.5q-132 0 -202.5 60.5zM238 772q0 7 14.5 34t43.5 77q8 14 23 20t39 6
q25 0 36.5 -3t11.5 -10q0 -8 -15 -26.5t-79 -89.5q-16 -18 -51 -18q-23 0 -23 10zM385 772q0 7 14.5 34t43.5 77q8 14 23 20t39 6q25 0 36.5 -3t11.5 -10q0 -8 -15 -26.5t-79 -89.5q-16 -18 -51 -18q-23 0 -23 10z" />
    <glyph glyph-name="uhungarumlaut" unicode="&#x171;" 
d="M118.5 37q-43.5 43 -43.5 119v347q0 22 40 22h4q40 0 40 -22v-339q0 -46 26.5 -71.5t75.5 -25.5q34 0 67.5 19t58.5 51v366q0 22 40 22h4q40 0 40 -22v-355q0 -66 6 -94.5t6 -31.5q0 -12 -19 -17.5t-35 -5.5q-14 0 -20.5 15.5t-10 32.5t-4.5 22q-32 -35 -73 -55t-83 -20
q-76 0 -119.5 43zM161 595q0 7 14.5 34t43.5 77q8 14 23 20t39 6q25 0 36.5 -3t11.5 -10q0 -8 -15 -26.5t-79 -89.5q-16 -18 -51 -18q-23 0 -23 10zM308 595q0 7 14.5 34t43.5 77q8 14 23 20t39 6q25 0 36.5 -3t11.5 -10q0 -8 -15 -26.5t-79 -89.5q-16 -18 -51 -18
q-23 0 -23 10z" />
    <glyph glyph-name="Uogonek" unicode="&#x172;" horiz-adv-x="712" 
d="M629 680v-456q0 -93 -51.5 -150.5t-148.5 -73.5l2 -1q-12 -31 -12 -61q0 -32 18 -41.5t44 -9.5q10 0 25 5q23 5 27 5q19 0 19 -25q0 -21 -10 -34q-9 -12 -27 -16.5t-45 -4.5q-70 0 -94 33t-24 69q0 16 4.5 37t14.5 38h-15q-132 0 -202.5 60.5t-70.5 169.5v456q0 22 40 22
h8q40 0 40 -22v-459q0 -44 24 -78.5t66 -53.5t95 -19t95 19.5t66 54t24 77.5v459q0 22 40 22h8q40 0 40 -22z" />
    <glyph glyph-name="uogonek" unicode="&#x173;" 
d="M589 -118q0 -21 -10 -34q-9 -12 -27 -16.5t-45 -4.5q-70 0 -94 33t-24 69q0 19 5 41t17 40q-8 12 -12 33t-5 26q-32 -35 -73 -55t-83 -20q-76 0 -119.5 43t-43.5 119v347q0 22 40 22h4q40 0 40 -22v-339q0 -46 26.5 -71.5t75.5 -25.5q34 0 67.5 19t58.5 51v366
q0 22 40 22h4q40 0 40 -22v-355q0 -66 6 -94.5t6 -31.5q0 -10 -16 -17q-11 -27 -11 -57q0 -32 18 -41.5t44 -9.5q10 0 25 5q23 5 27 5q19 0 19 -25z" />
    <glyph glyph-name="Wcircumflex" unicode="&#x174;" horiz-adv-x="882" 
d="M189 14l-171 657q-3 12 -3 14q0 17 43 17h10q36 0 40 -16l127 -492q5 -19 11 -53.5t7 -39.5l24 96l121 488q4 17 39 17h16q35 0 39 -17l124 -492q6 -22 11 -52.5t6 -39.5l24 95l121 490q4 16 40 16h6q43 0 43 -17l-3 -14l-173 -657q-4 -16 -40 -16h-41q-36 0 -40 16
l-109 407l-21 130l-21 -130l-109 -407q-4 -16 -40 -16h-41q-36 0 -40 16zM320 767q0 8 6 18l56 88q15 22 46 22h25q31 0 46 -22l57 -88q6 -9 6 -17q0 -15 -24 -15h-2q-19 0 -33 13l-63 74l-61 -74q-14 -13 -34 -13h-2q-23 0 -23 14z" />
    <glyph glyph-name="wcircumflex" unicode="&#x175;" horiz-adv-x="747" 
d="M167 14l-132 474q-5 15 -5 20q0 17 46 17q36 0 40 -16l84 -320q3 -9 7 -30.5t6 -32.5l10 -52h4q16 89 23 116l83 318q4 17 39 17h7q35 0 39 -17l84 -318q11 -44 16.5 -76.5t7.5 -41.5h2l7 42q11 57 15 74l84 321q4 16 41 16q40 0 40 -17q0 -5 -3 -14l-134 -480
q-4 -16 -40 -16h-30q-35 0 -39 16l-80 317q-4 13 -10 53l-4 26h-2l-4 -24q-6 -41 -10 -54l-82 -318q-4 -16 -40 -16h-30q-36 0 -40 16zM253 590q0 8 6 18l56 88q15 22 46 22h25q31 0 46 -22l57 -88q6 -9 6 -17q0 -15 -24 -15h-2q-19 0 -33 13l-63 74l-61 -74
q-14 -13 -34 -13h-2q-23 0 -23 14z" />
    <glyph glyph-name="Ycircumflex" unicode="&#x176;" horiz-adv-x="559" 
d="M235 20v339l-209 308q-8 11 -8 18q0 17 46 17h11q17 0 27 -3t16 -12l164 -246l168 247q9 14 45 14h7q21 -1 30 -5t9 -12q0 -7 -8 -18l-210 -311v-336q0 -22 -40 -22h-8q-40 0 -40 22zM159 767q0 8 6 18l56 88q15 22 46 22h25q31 0 46 -22l57 -88q6 -9 6 -17
q0 -15 -24 -15h-2q-19 0 -33 13l-63 74l-61 -74q-14 -13 -34 -13h-2q-23 0 -23 14z" />
    <glyph glyph-name="ycircumflex" unicode="&#x177;" horiz-adv-x="481" 
d="M462 508q0 -5 -3 -14l-257 -681q-8 -21 -47 -21h-15q-33 0 -33 16q0 4 5 17l84 204l-175 466q-3 9 -3 13q0 17 43 17h8q35 0 40 -16l102 -271q16 -44 32 -101h2q2 7 4 13.5t4 12.5l25 75l100 271q5 16 41 16h3q40 0 40 -17zM120 590q0 8 6 18l56 88q15 22 46 22h25
q31 0 46 -22l57 -88q6 -9 6 -17q0 -15 -24 -15h-2q-19 0 -33 13l-63 74l-61 -74q-14 -13 -34 -13h-2q-23 0 -23 14z" />
    <glyph glyph-name="Ydieresis" unicode="&#x178;" horiz-adv-x="559" 
d="M235 20v339l-209 308q-8 11 -8 18q0 17 46 17h11q17 0 27 -3t16 -12l164 -246l168 247q9 14 45 14h7q21 -1 30 -5t9 -12q0 -7 -8 -18l-210 -311v-336q0 -22 -40 -22h-8q-40 0 -40 22zM166 806v51q0 22 44 22q40 0 40 -22v-51q0 -22 -44 -22q-40 0 -40 22zM310 806v51
q0 22 44 22q40 0 40 -22v-51q0 -22 -44 -22q-40 0 -40 22z" />
    <glyph glyph-name="Zacute" unicode="&#x179;" horiz-adv-x="616" 
d="M46.5 19q-8.5 19 -8.5 34q0 8 3 12l410 559h-360q-11 0 -15.5 8t-4.5 26v8q0 18 4.5 26t15.5 8h458q6 0 14 -19t8 -34q0 -7 -3 -12l-410 -559h391q11 0 15.5 -8t4.5 -26v-8q0 -18 -4.5 -26t-15.5 -8h-487q-7 0 -15.5 19zM266 772q0 7 14.5 34t43.5 77q8 14 23 20t39 6
q25 0 36.5 -3t11.5 -10q0 -8 -15 -26.5t-79 -89.5q-16 -18 -51 -18q-23 0 -23 10z" />
    <glyph glyph-name="zacute" unicode="&#x17a;" horiz-adv-x="489" 
d="M45 18q-8 18 -8 33q0 7 3 11l293 389h-256q-10 0 -15 7t-5 23v12q0 16 5 23t15 7h351q7 0 13.5 -18.5t6.5 -33.5q0 -6 -2 -10l-292 -389h275q11 0 15.5 -7t4.5 -23v-12q0 -16 -4.5 -23t-15.5 -7h-370q-6 0 -14 18zM203 595q0 7 14.5 34t43.5 77q8 14 23 20t39 6
q25 0 36.5 -3t11.5 -10q0 -8 -15 -26.5t-79 -89.5q-16 -18 -51 -18q-23 0 -23 10z" />
    <glyph glyph-name="Zdotaccent" unicode="&#x17b;" horiz-adv-x="616" 
d="M46.5 19q-8.5 19 -8.5 34q0 8 3 12l410 559h-360q-11 0 -15.5 8t-4.5 26v8q0 18 4.5 26t15.5 8h458q6 0 14 -19t8 -34q0 -7 -3 -12l-410 -559h391q11 0 15.5 -8t4.5 -26v-8q0 -18 -4.5 -26t-15.5 -8h-487q-7 0 -15.5 19zM266 806v51q0 22 44 22q40 0 40 -22v-51
q0 -22 -44 -22q-40 0 -40 22z" />
    <glyph glyph-name="zdotaccent" unicode="&#x17c;" horiz-adv-x="489" 
d="M45 18q-8 18 -8 33q0 7 3 11l293 389h-256q-10 0 -15 7t-5 23v12q0 16 5 23t15 7h351q7 0 13.5 -18.5t6.5 -33.5q0 -6 -2 -10l-292 -389h275q11 0 15.5 -7t4.5 -23v-12q0 -16 -4.5 -23t-15.5 -7h-370q-6 0 -14 18zM203 629v51q0 22 44 22q40 0 40 -22v-51q0 -22 -44 -22
q-40 0 -40 22z" />
    <glyph glyph-name="Zcaron" unicode="&#x17d;" horiz-adv-x="616" 
d="M46.5 19q-8.5 19 -8.5 34q0 8 3 12l410 559h-360q-11 0 -15.5 8t-4.5 26v8q0 18 4.5 26t15.5 8h458q6 0 14 -19t8 -34q0 -7 -3 -12l-410 -559h391q11 0 15.5 -8t4.5 -26v-8q0 -18 -4.5 -26t-15.5 -8h-487q-7 0 -15.5 19zM249 781l-56 88q-6 11 -6 18q0 14 23 14h2
q20 0 34 -13l61 -74l63 74q14 13 33 13h2q24 0 24 -15q0 -8 -6 -17l-57 -88q-15 -22 -46 -22h-25q-31 0 -46 22z" />
    <glyph glyph-name="zcaron" unicode="&#x17e;" horiz-adv-x="489" 
d="M45 18q-8 18 -8 33q0 7 3 11l293 389h-256q-10 0 -15 7t-5 23v12q0 16 5 23t15 7h351q7 0 13.5 -18.5t6.5 -33.5q0 -6 -2 -10l-292 -389h275q11 0 15.5 -7t4.5 -23v-12q0 -16 -4.5 -23t-15.5 -7h-370q-6 0 -14 18zM186 604l-56 88q-6 11 -6 18q0 14 23 14h2q20 0 34 -13
l61 -74l63 74q14 13 33 13h2q24 0 24 -15q0 -8 -6 -17l-57 -88q-15 -22 -46 -22h-25q-31 0 -46 22z" />
    <glyph glyph-name="longs" unicode="&#x17f;" horiz-adv-x="325" 
d="M108 20v431h-40q-10 0 -15 7t-5 23v12q0 16 5 23t15 7h40v95q0 79 39 108.5t90 29.5q73 0 73 -30q0 -10 -6 -28.5t-15 -18.5q-5 0 -14.5 2.5t-28.5 2.5q-26 0 -40 -14.5t-14 -59.5v-590q0 -22 -40 -22h-4q-40 0 -40 22z" />
    <glyph glyph-name="uni018F" unicode="&#x18f;" horiz-adv-x="672" 
d="M45 322q0 9 12 25t21 16h416q-9 141 -55.5 206t-138.5 65q-59 0 -102.5 -15t-79.5 -36q-19 -11 -24 -11q-10 0 -22.5 20t-12.5 30q0 17 32.5 36.5t88 33.5t119.5 14q146 0 215.5 -91t69.5 -283q0 -170 -71 -255.5t-212 -85.5q-256 0 -256 331zM494 291h-360
q0 -116 42 -172t128 -56q180 0 190 228z" />
    <glyph glyph-name="florin" unicode="&#x192;" horiz-adv-x="332" 
d="M23 -201.5q-8 5.5 -8 16.5q0 8 44 318l44 308h-40q-17 0 -17 19q0 53 27 53h40l14 105q11 79 54.5 108.5t94.5 29.5q69 0 69 -30q-3 -13 -11 -30t-17 -17q-5 0 -14 2.5t-28 2.5q-26 0 -42.5 -14.5t-22.5 -59.5l-13 -97h87q17 0 17 -20q0 -17 -6 -34.5t-21 -17.5h-87
l-88 -626q-3 -22 -43 -22h-4q-21 0 -29 5.5z" />
    <glyph glyph-name="Ohorn" unicode="&#x1a0;" horiz-adv-x="731" 
d="M136 85.5q-79 91.5 -79 266.5t78.5 264.5t229.5 89.5q59 0 110 -14q3 -1 18 -5.5t34 -4.5q23 0 34 9.5t11 23.5q0 12 -5 22t-13.5 22.5t-8.5 17.5q0 10 9 16l24 16q5 4 12 4q16 0 29.5 -25t13.5 -49q0 -34 -19 -57t-58 -30q118 -85 118 -300q0 -175 -79 -266.5
t-230 -91.5q-150 0 -229 91.5zM527 142q56 72 56 210q0 137 -56 207.5t-162 70.5t-161.5 -70.5t-55.5 -207.5q0 -138 55.5 -210t161.5 -72t162 72z" />
    <glyph glyph-name="ohorn" unicode="&#x1a1;" horiz-adv-x="569" 
d="M114.5 62q-59.5 68 -59.5 197q0 130 60 200t172 70q42 0 80 -11q8 -2 23.5 -7.5t32.5 -5.5q22 0 32.5 9.5t10.5 23.5q0 12 -5 22t-13.5 22.5t-8.5 17.5q0 10 9 16l24 16q5 4 12 4q16 0 29.5 -25t13.5 -49q0 -36 -21.5 -59t-63.5 -29q72 -70 72 -215q0 -130 -57.5 -197.5
t-169.5 -67.5q-113 0 -172.5 68zM392 113.5q35 47.5 35 147.5t-35 148t-108 48t-107 -47.5t-34 -148.5q0 -100 34 -147.5t107 -47.5t108 47.5z" />
    <glyph glyph-name="Uhorn" unicode="&#x1af;" horiz-adv-x="712" 
d="M706.5 695q-25.5 -24 -77.5 -26v-445q0 -109 -71 -169.5t-202 -60.5q-132 0 -202.5 60.5t-70.5 169.5v456q0 22 40 22h8q40 0 40 -22v-459q0 -44 24 -78.5t66 -53.5t95 -19t95 19.5t66 54t24 77.5v459q0 22 40 22h35q30 0 42.5 9.5t12.5 23.5q0 12 -5 22t-13.5 22.5
t-8.5 17.5q0 10 9 16l24 16q5 4 12 4q16 0 29.5 -25t13.5 -49q0 -40 -25.5 -64z" />
    <glyph glyph-name="uhorn" unicode="&#x1b0;" 
d="M551.5 517q-26.5 -24 -80.5 -25v-344q0 -66 6 -94.5t6 -31.5q0 -12 -19 -17.5t-35 -5.5q-14 0 -20.5 15.5t-10 32.5t-4.5 22q-32 -35 -73 -55t-83 -20q-76 0 -119.5 43t-43.5 119v347q0 22 40 22h4q40 0 40 -22v-339q0 -46 26.5 -71.5t75.5 -25.5q34 0 67.5 19t58.5 51
v366q0 22 40 22h35q30 0 42.5 9.5t12.5 23.5q0 12 -5 22t-13.5 22.5t-8.5 17.5q0 10 9 16l24 16q5 4 12 4q16 0 29.5 -25t13.5 -49q0 -41 -26.5 -65z" />
    <glyph glyph-name="uni01C4" unicode="&#x1c4;" horiz-adv-x="1311" 
d="M104 7q-7 7 -7 23v640q0 16 7 23t23 7h202q140 0 224.5 -83.5t84.5 -266.5q0 -184 -84.5 -267t-224.5 -83h-202q-16 0 -23 7zM322 76q101 0 163 66t62 208q0 141 -62 207.5t-163 66.5h-137v-548h137zM741.5 19q-8.5 19 -8.5 34q0 8 3 12l410 559h-360q-11 0 -15.5 8
t-4.5 26v8q0 18 4.5 26t15.5 8h458q6 0 14 -19t8 -34q0 -7 -3 -12l-410 -559h391q11 0 15.5 -8t4.5 -26v-8q0 -18 -4.5 -26t-15.5 -8h-487q-7 0 -15.5 19zM944 781l-56 88q-6 11 -6 18q0 14 23 14h2q20 0 34 -13l61 -74l63 74q14 13 33 13h2q24 0 24 -15q0 -8 -6 -17
l-57 -88q-15 -22 -46 -22h-25q-31 0 -46 22z" />
    <glyph glyph-name="uni01C5" unicode="&#x1c5;" horiz-adv-x="1184" 
d="M104 7q-7 7 -7 23v640q0 16 7 23t23 7h202q140 0 224.5 -83.5t84.5 -266.5q0 -184 -84.5 -267t-224.5 -83h-202q-16 0 -23 7zM322 76q101 0 163 66t62 208q0 141 -62 207.5t-163 66.5h-137v-548h137zM740 18q-8 18 -8 33q0 7 3 11l293 389h-256q-10 0 -15 7t-5 23v12
q0 16 5 23t15 7h351q7 0 13.5 -18.5t6.5 -33.5q0 -6 -2 -10l-292 -389h275q11 0 15.5 -7t4.5 -23v-12q0 -16 -4.5 -23t-15.5 -7h-370q-6 0 -14 18zM881 604l-56 88q-6 11 -6 18q0 14 23 14h2q20 0 34 -13l61 -74l63 74q14 13 33 13h2q24 0 24 -15q0 -8 -6 -17l-57 -88
q-15 -22 -46 -22h-25q-31 0 -46 22z" />
    <glyph glyph-name="uni01C6" unicode="&#x1c6;" horiz-adv-x="1054" 
d="M143 28q-44 34 -67.5 95t-23.5 138q0 85 25.5 145.5t71.5 91.5t106 31q44 0 77.5 -13t65.5 -38v252q0 22 40 22h4q40 0 40 -22v-582q0 -66 6 -94.5t6 -31.5q0 -12 -19 -17.5t-35 -5.5q-14 0 -20.5 15.5t-10 32.5t-4.5 22q-72 -75 -159 -75q-59 0 -103 34zM332.5 85
q35.5 18 65.5 51v274q-54 45 -123 45q-67 0 -101 -48t-34 -138q0 -97 32 -149.5t91 -52.5q34 0 69.5 18zM610 18q-8 18 -8 33q0 7 3 11l293 389h-256q-10 0 -15 7t-5 23v12q0 16 5 23t15 7h351q7 0 13.5 -18.5t6.5 -33.5q0 -6 -2 -10l-292 -389h275q11 0 15.5 -7t4.5 -23
v-12q0 -16 -4.5 -23t-15.5 -7h-370q-6 0 -14 18zM751 604l-56 88q-6 11 -6 18q0 14 23 14h2q20 0 34 -13l61 -74l63 74q14 13 33 13h2q24 0 24 -15q0 -8 -6 -17l-57 -88q-15 -22 -46 -22h-25q-31 0 -46 22z" />
    <glyph glyph-name="uni01C7" unicode="&#x1c7;" horiz-adv-x="725" 
d="M104 7q-7 7 -7 23v650q0 22 40 22h8q40 0 40 -22v-604h205q11 0 15.5 -7t4.5 -23v-16q0 -16 -4.5 -23t-15.5 -7h-263q-16 0 -23 7zM358 -149q-31 7 -31 25q0 10 6 32.5t16 22.5q5 0 23.5 -4.5t39.5 -4.5q74 0 107 29t33 94v635q0 22 40 22h8q40 0 40 -22v-625
q0 -211 -212 -211q-39 0 -70 7z" />
    <glyph glyph-name="uni01C8" unicode="&#x1c8;" horiz-adv-x="760" 
d="M581 640v56q0 24 48 24q44 0 44 -24v-56q0 -24 -48 -24q-44 0 -44 24zM104 7q-7 7 -7 23v650q0 22 40 22h8q40 0 40 -22v-604h275q11 0 15.5 -7t4.5 -23v-16q0 -16 -4.5 -23t-15.5 -7h-333q-16 0 -23 7zM467 -182q0 10 6 28.5t15 18.5q5 0 14.5 -2.5t28.5 -2.5
q25 0 39.5 16t14.5 58v569q0 22 40 22h4q40 0 40 -22v-577q0 -77 -39.5 -107.5t-89.5 -30.5q-73 0 -73 30z" />
    <glyph glyph-name="uni01C9" unicode="&#x1c9;" horiz-adv-x="573" 
d="M121.5 24.5q-39.5 30.5 -39.5 107.5v598q0 22 40 22h4q40 0 40 -22v-590q0 -42 14.5 -58t39.5 -16q19 0 28.5 2.5t14.5 2.5q9 0 15 -18.5t6 -28.5q0 -30 -73 -30q-50 0 -89.5 30.5zM394 640v56q0 24 48 24q44 0 44 -24v-56q0 -24 -48 -24q-44 0 -44 24zM280 -182
q0 10 6 28.5t15 18.5q5 0 14.5 -2.5t28.5 -2.5q25 0 39.5 16t14.5 58v569q0 22 40 22h4q40 0 40 -22v-577q0 -77 -39.5 -107.5t-89.5 -30.5q-73 0 -73 30z" />
    <glyph glyph-name="uni01CA" unicode="&#x1ca;" horiz-adv-x="1121" 
d="M90 20v660q0 22 40 22h21q16 0 25.5 -4t16.5 -15l314 -474q17 -25 33 -60l4 1q-2 23 -2 68v462q0 22 40 22h7q40 0 40 -22v-660q0 -22 -40 -22h-20q-26 0 -35 14l-322 486q-17 25 -33 60l-4 -1q2 -23 2 -68v-469q0 -22 -40 -22h-7q-40 0 -40 22zM756 1q-31 7 -31 25
q0 10 6 32.5t16 22.5q5 0 23.5 -4.5t39.5 -4.5q74 0 107 29t33 94v485q0 22 40 22h8q40 0 40 -22v-475q0 -211 -212 -211q-39 0 -70 7z" />
    <glyph glyph-name="uni01CB" unicode="&#x1cb;" horiz-adv-x="995" 
d="M816 640v56q0 24 48 24q44 0 44 -24v-56q0 -24 -48 -24q-44 0 -44 24zM90 20v660q0 22 40 22h21q16 0 25.5 -4t16.5 -15l314 -474q17 -25 33 -60l4 1q-2 23 -2 68v462q0 22 40 22h7q40 0 40 -22v-660q0 -22 -40 -22h-20q-26 0 -35 14l-322 486q-17 25 -33 60l-4 -1
q2 -23 2 -68v-469q0 -22 -40 -22h-7q-40 0 -40 22zM702 -182q0 10 6 28.5t15 18.5q5 0 14.5 -2.5t28.5 -2.5q25 0 39.5 16t14.5 58v569q0 22 40 22h4q40 0 40 -22v-577q0 -77 -39.5 -107.5t-89.5 -30.5q-73 0 -73 30z" />
    <glyph glyph-name="uni01CC" unicode="&#x1cc;" horiz-adv-x="833" 
d="M86 20v351q0 66 -6 94.5t-6 31.5q0 12 19 17.5t35 5.5q14 0 20.5 -14.5t10 -30.5t4.5 -21q32 35 73 55t83 20q76 0 119.5 -43t43.5 -119v-347q0 -22 -40 -22h-4q-40 0 -40 22v339q0 46 -26.5 71.5t-75.5 25.5q-34 0 -67.5 -19t-58.5 -51v-366q0 -22 -40 -22h-4
q-40 0 -40 22zM654 640v56q0 24 48 24q44 0 44 -24v-56q0 -24 -48 -24q-44 0 -44 24zM540 -182q0 10 6 28.5t15 18.5q5 0 14.5 -2.5t28.5 -2.5q25 0 39.5 16t14.5 58v569q0 22 40 22h4q40 0 40 -22v-577q0 -77 -39.5 -107.5t-89.5 -30.5q-73 0 -73 30z" />
    <glyph glyph-name="uni01EA" unicode="&#x1ea;" horiz-adv-x="731" 
d="M614.5 110.5q-59.5 -89.5 -175.5 -110.5l4 -1q-12 -31 -12 -61q0 -32 18 -41.5t44 -9.5q10 0 25 5q22 5 27 5q19 0 19 -25q0 -21 -10 -34q-9 -12 -27 -16.5t-45 -4.5q-70 0 -94 33t-24 69q0 16 4.5 37t14.5 38h-18q-150 0 -229 91.5t-79 266.5t78.5 264.5t229.5 89.5
t230 -89.5t79 -264.5q0 -152 -59.5 -241.5zM527 142q56 72 56 210q0 137 -56 207.5t-162 70.5t-161.5 -70.5t-55.5 -207.5q0 -138 55.5 -210t161.5 -72t162 72z" />
    <glyph glyph-name="uni01EB" unicode="&#x1eb;" horiz-adv-x="569" 
d="M464 -128q0 -21 -10 -34q-9 -12 -27 -16.5t-45 -4.5q-70 0 -94 33t-24 69q0 16 4.5 37t14.5 38q-112 1 -170 69t-58 196q0 130 60 200t172 70q110 0 168.5 -69.5t58.5 -200.5q0 -112 -43.5 -178t-127.5 -82q-12 -31 -12 -61q0 -32 18 -41.5t44 -9.5q10 0 25 5q23 5 27 5
q19 0 19 -25zM177 113.5q34 -47.5 107 -47.5t108 47.5t35 147.5t-35 148t-108 48t-107 -47.5t-34 -148.5q0 -100 34 -147.5z" />
    <glyph glyph-name="uni01F1" unicode="&#x1f1;" horiz-adv-x="1311" 
d="M104 7q-7 7 -7 23v640q0 16 7 23t23 7h202q140 0 224.5 -83.5t84.5 -266.5q0 -184 -84.5 -267t-224.5 -83h-202q-16 0 -23 7zM322 76q101 0 163 66t62 208q0 141 -62 207.5t-163 66.5h-137v-548h137zM741.5 19q-8.5 19 -8.5 34q0 8 3 12l410 559h-360q-11 0 -15.5 8
t-4.5 26v8q0 18 4.5 26t15.5 8h458q6 0 14 -19t8 -34q0 -7 -3 -12l-410 -559h391q11 0 15.5 -8t4.5 -26v-8q0 -18 -4.5 -26t-15.5 -8h-487q-7 0 -15.5 19z" />
    <glyph glyph-name="uni01F2" unicode="&#x1f2;" horiz-adv-x="1184" 
d="M104 7q-7 7 -7 23v640q0 16 7 23t23 7h202q140 0 224.5 -83.5t84.5 -266.5q0 -184 -84.5 -267t-224.5 -83h-202q-16 0 -23 7zM322 76q101 0 163 66t62 208q0 141 -62 207.5t-163 66.5h-137v-548h137zM740 18q-8 18 -8 33q0 7 3 11l293 389h-256q-10 0 -15 7t-5 23v12
q0 16 5 23t15 7h351q7 0 13.5 -18.5t6.5 -33.5q0 -6 -2 -10l-292 -389h275q11 0 15.5 -7t4.5 -23v-12q0 -16 -4.5 -23t-15.5 -7h-370q-6 0 -14 18z" />
    <glyph glyph-name="uni01F3" unicode="&#x1f3;" horiz-adv-x="1054" 
d="M143 28q-44 34 -67.5 95t-23.5 138q0 85 25.5 145.5t71.5 91.5t106 31q44 0 77.5 -13t65.5 -38v252q0 22 40 22h4q40 0 40 -22v-582q0 -66 6 -94.5t6 -31.5q0 -12 -19 -17.5t-35 -5.5q-14 0 -20.5 15.5t-10 32.5t-4.5 22q-72 -75 -159 -75q-59 0 -103 34zM332.5 85
q35.5 18 65.5 51v274q-54 45 -123 45q-67 0 -101 -48t-34 -138q0 -97 32 -149.5t91 -52.5q34 0 69.5 18zM610 18q-8 18 -8 33q0 7 3 11l293 389h-256q-10 0 -15 7t-5 23v12q0 16 5 23t15 7h351q7 0 13.5 -18.5t6.5 -33.5q0 -6 -2 -10l-292 -389h275q11 0 15.5 -7t4.5 -23
v-12q0 -16 -4.5 -23t-15.5 -7h-370q-6 0 -14 18z" />
    <glyph glyph-name="Aringacute" unicode="&#x1fa;" horiz-adv-x="613" 
d="M283 823q0 7 14.5 34t43.5 77q8 14 23 20t39 6q25 0 36.5 -3t11.5 -10q0 -8 -15 -26.5t-79 -89.5q-16 -18 -51 -18q-23 0 -23 10zM601 15q0 -17 -43 -17h-8q-35 0 -40 16l-59 164h-294l-57 -164q-5 -16 -40 -16h-5q-43 0 -43 17q0 5 3 14l226 627q-18 23 -18 52
q0 35 24.5 60t59.5 25t60 -25t25 -60q0 -31 -19 -53l225 -627q3 -7 3 -13zM272 743.5q-14 -14.5 -14 -35.5t14 -35t35 -14t35.5 14t14.5 35t-14.5 35.5t-35.5 14.5t-35 -14.5zM424 254l-105 298q-5 16 -12 58h-2q-8 -40 -15 -58l-105 -298h239z" />
    <glyph glyph-name="aringacute" unicode="&#x1fb;" horiz-adv-x="545" 
d="M96 32q-47 38 -47 112q0 79 47.5 118.5t116.5 51t168 12.5v47q0 37 -26 60.5t-84 23.5q-44 0 -77 -10.5t-55 -21t-24 -10.5q-10 0 -22.5 20t-12.5 30q0 13 26.5 28t70.5 25.5t91 10.5q93 0 145 -41.5t52 -115.5v-224q0 -66 6 -94.5t6 -31.5q0 -12 -19 -17.5t-35 -5.5
q-14 0 -20.5 15.5t-10 32.5t-4.5 22q-68 -75 -168 -75q-77 0 -124 38zM308.5 85q35.5 18 72.5 51v118q-75 -1 -122.5 -6t-83.5 -28t-36 -71q0 -40 21.5 -61t63.5 -21q49 0 84.5 18zM212.5 588.5q-24.5 24.5 -24.5 59.5t24.5 60t59.5 25t60 -25t25 -60t-25 -59.5t-60 -24.5
t-59.5 24.5zM307.5 613q14.5 14 14.5 35t-14.5 35.5t-35.5 14.5t-35 -14.5t-14 -35.5t14 -35t35 -14t35.5 14zM232 772q0 7 14.5 34t43.5 77q8 14 23 20t39 6q25 0 36.5 -3t11.5 -10q0 -8 -15 -26.5t-79 -89.5q-16 -18 -51 -18q-23 0 -23 10z" />
    <glyph glyph-name="AEacute" unicode="&#x1fc;" horiz-adv-x="915" 
d="M-2.5 2q-8.5 4 -8.5 13q0 8 4 16l321 642q7 14 17 20.5t26 6.5h445q11 0 15.5 -7t4.5 -23v-16q0 -16 -4.5 -23t-15.5 -7h-362l50 -228h282q11 0 15.5 -7t4.5 -23v-16q0 -16 -4.5 -23t-15.5 -7h-266l53 -244h244q11 0 15.5 -7t4.5 -23v-16q0 -16 -4.5 -23t-15.5 -7h-287
q-30 0 -36 29l-32 149h-295l-80 -164q-7 -16 -40 -16h-5q-22 0 -30.5 4zM431 253l-64 299l-4 58h-2l-21 -58l-148 -299h239zM416 772q0 7 14.5 34t43.5 77q8 14 23 20t39 6q25 0 36.5 -3t11.5 -10q0 -8 -15 -26.5t-79 -89.5q-16 -18 -51 -18q-23 0 -23 10z" />
    <glyph glyph-name="aeacute" unicode="&#x1fd;" horiz-adv-x="819" 
d="M96 32q-47 38 -47 112q0 67 41 103.5t103.5 49.5t148.5 15q6 62 28 104q-26 41 -99 41q-44 0 -77 -10.5t-55 -21t-24 -10.5q-10 0 -22.5 20t-12.5 30q0 13 26.5 28t70.5 25.5t91 10.5q99 0 152 -48q56 48 148 48q102 0 154 -63t52 -184q0 -9 -12 -25t-21 -16h-312
q6 -91 42 -133t108 -42q42 0 72.5 10.5t50.5 21t23 10.5q10 0 22.5 -20t12.5 -30q0 -12 -25 -27.5t-66.5 -26t-88.5 -10.5q-120 0 -179 63q-34 -28 -80 -45.5t-101 -17.5q-77 0 -124 38zM685 313q0 144 -120 144q-125 0 -136 -144h256zM298.5 80.5q32.5 13.5 63.5 38.5
q-22 51 -23 121q-91 -2 -145.5 -20t-54.5 -71q0 -40 21.5 -61t63.5 -21t74.5 13.5zM377 595q0 7 14.5 34t43.5 77q8 14 23 20t39 6q25 0 36.5 -3t11.5 -10q0 -8 -15 -26.5t-79 -89.5q-16 -18 -51 -18q-23 0 -23 10z" />
    <glyph glyph-name="Oslashacute" unicode="&#x1fe;" horiz-adv-x="731" 
d="M674 352q0 -175 -79 -266.5t-230 -91.5q-149 0 -228 90l-67 -74q-7 -9 -14 -9t-14.5 7t-7.5 14t6 14l73 81q-56 88 -56 235q0 175 78.5 264.5t229.5 89.5q136 0 214 -72l54 60q7 8 14 8t14.5 -7t7.5 -13t-6 -14l-58 -64q69 -89 69 -252zM177 188l343 380q-56 62 -155 62
q-106 0 -161.5 -70.5t-55.5 -207.5q0 -98 29 -164zM527 142q56 72 56 210q0 115 -39 183l-347 -384q57 -81 168 -81q106 0 162 72zM324 772q0 7 14.5 34t43.5 77q8 14 23 20t39 6q25 0 36.5 -3t11.5 -10q0 -8 -15 -26.5t-79 -89.5q-16 -18 -51 -18q-23 0 -23 10z" />
    <glyph glyph-name="oslashacute" unicode="&#x1ff;" horiz-adv-x="569" 
d="M470 440q44 -67 44 -181q0 -130 -57.5 -197.5t-169.5 -67.5q-99 0 -156 51l-30 -35q-6 -8 -14 -8q-7 0 -15 7.5t-8 13.5q0 5 7 14l33 38q-49 67 -49 184q0 130 60 200t172 70q98 0 157 -57l35 41q8 8 14 8t14 -7.5t8 -13.5t-6 -14zM161 142l230 268q-34 47 -107 47
t-107 -47.5t-34 -148.5q0 -74 18 -119zM411 372l-228 -266q34 -40 101 -40q73 0 108 47.5t35 147.5q0 69 -16 111zM243 595q0 7 14.5 34t43.5 77q8 14 23 20t39 6q25 0 36.5 -3t11.5 -10q0 -8 -15 -26.5t-79 -89.5q-16 -18 -51 -18q-23 0 -23 10z" />
    <glyph glyph-name="Scommaaccent" unicode="&#x218;" horiz-adv-x="500" 
d="M133 8q-51 14 -77 34q-19 14 -19 25q0 12 13.5 33t21.5 21q4 0 21 -10q31 -17 66.5 -29t84.5 -12q58 0 94.5 32.5t36.5 85.5q0 37 -20 61.5t-48.5 39t-82.5 35.5q-58 23 -92 42t-58 56.5t-24 98.5q0 54 27.5 96t78 65.5t116.5 23.5q34 0 76 -9.5t65 -25.5q20 -12 20 -26
q0 -11 -12.5 -32t-19.5 -21q-5 0 -14.5 5t-12.5 7q-50 26 -104 26q-58 0 -93.5 -30t-35.5 -83q0 -34 17.5 -55t40 -31.5t78.5 -32.5q60 -23 98 -44.5t64.5 -62t26.5 -103.5q0 -90 -60 -142t-162 -52q-60 0 -111 14zM171 -231.5q-9 3.5 -9 11.5q0 9 12 31q14 26 22.5 50
t8.5 56q0 15 10 23.5t30 8.5h9q19 0 29.5 -7.5t10.5 -20.5q0 -44 -18 -80t-42.5 -56t-42.5 -20q-11 0 -20 3.5z" />
    <glyph glyph-name="scommaaccent" unicode="&#x219;" horiz-adv-x="413" 
d="M114.5 1.5q-36.5 10.5 -58 25.5t-21.5 27q0 10 12.5 30t22.5 20q2 0 19 -11t42.5 -20t56.5 -9q98 0 98 81q0 34 -22 54t-78 36q-79 23 -109 57.5t-30 92.5q0 42 21.5 75t59 51.5t85.5 18.5q51 0 91.5 -13t40.5 -30q0 -13 -11.5 -33.5t-20.5 -20.5q-3 1 -26.5 13.5
t-64.5 12.5q-38 0 -63.5 -17t-25.5 -46q0 -34 18 -54t60 -33q64 -20 97.5 -39.5t48 -48t14.5 -74.5q0 -44 -23.5 -79.5t-64 -56t-89.5 -20.5q-43 0 -79.5 10.5zM128 -231.5q-9 3.5 -9 11.5q0 9 12 31q14 26 22.5 50t8.5 56q0 15 10 23.5t30 8.5h9q19 0 29.5 -7.5t10.5 -20.5
q0 -44 -18 -80t-42.5 -56t-42.5 -20q-11 0 -20 3.5z" />
    <glyph glyph-name="uni021A" unicode="&#x21a;" horiz-adv-x="549" 
d="M232 20v604h-192q-10 0 -15 7t-5 23v16q0 16 5 23t15 7h469q11 0 15.5 -7t4.5 -23v-16q0 -16 -4.5 -23t-15.5 -7h-189v-604q0 -22 -40 -22h-8q-40 0 -40 22zM196 -231.5q-9 3.5 -9 11.5q0 9 12 31q14 26 22.5 50t8.5 56q0 15 10 23.5t30 8.5h9q19 0 29.5 -7.5t10.5 -20.5
q0 -44 -18 -80t-42.5 -56t-42.5 -20q-11 0 -20 3.5z" />
    <glyph glyph-name="uni021B" unicode="&#x21b;" horiz-adv-x="342" 
d="M146.5 24.5q-39.5 30.5 -39.5 107.5v319h-50q-10 0 -15 7t-5 23v12q0 16 5 23t15 7h50l12 105q3 22 32 22h10q30 0 30 -22v-105h84q11 0 15.5 -7t4.5 -23v-12q0 -16 -4.5 -23t-15.5 -7h-84v-311q0 -42 14.5 -58t39.5 -16q19 0 28.5 2.5t14.5 2.5q9 0 15 -18.5t6 -28.5
q0 -30 -73 -30q-50 0 -89.5 30.5zM137 -231.5q-9 3.5 -9 11.5q0 9 12 31q14 26 22.5 50t8.5 56q0 15 10 23.5t30 8.5h9q19 0 29.5 -7.5t10.5 -20.5q0 -44 -18 -80t-42.5 -56t-42.5 -20q-11 0 -20 3.5z" />
    <glyph glyph-name="uni0237" unicode="&#x237;" horiz-adv-x="276" 
d="M-17 -182q0 10 6 28.5t15 18.5q5 0 14.5 -2.5t28.5 -2.5q25 0 39.5 16t14.5 58v569q0 22 40 22h4q40 0 40 -22v-577q0 -77 -39.5 -107.5t-89.5 -30.5q-73 0 -73 30z" />
    <glyph glyph-name="uni0259" unicode="&#x259;" horiz-adv-x="539" 
d="M424 464q60 -65 60 -199q0 -133 -59 -202t-174 -69q-102 0 -154 66.5t-52 194.5q0 9 12 25t21 16h316q-6 83 -43 122t-111 39q-42 0 -72.5 -10.5t-50.5 -21t-23 -10.5q-10 0 -22.5 20t-12.5 30q0 12 25 27.5t66.5 26t88.5 10.5q125 0 185 -65zM134 224q0 -158 120 -158
q129 0 140 158h-260z" />
    <glyph glyph-name="uni02BC" unicode="&#x2bc;" horiz-adv-x="200" 
d="M42 540.5q-9 3.5 -9 11.5q0 9 12 31q14 26 22.5 50t8.5 56q0 15 10 23.5t30 8.5h9q19 0 29.5 -7.5t10.5 -20.5q0 -44 -18 -80t-42.5 -56t-42.5 -20q-11 0 -20 3.5z" />
    <glyph glyph-name="circumflex" unicode="&#x2c6;" horiz-adv-x="320" 
d="M36 590q0 8 6 18l56 88q15 22 46 22h25q31 0 46 -22l57 -88q6 -9 6 -17q0 -15 -24 -15h-2q-19 0 -33 13l-63 74l-61 -74q-14 -13 -34 -13h-2q-23 0 -23 14z" />
    <glyph glyph-name="caron" unicode="&#x2c7;" horiz-adv-x="320" 
d="M97 604l-56 88q-6 11 -6 18q0 14 23 14h2q20 0 34 -13l61 -74l63 74q14 13 33 13h2q24 0 24 -15q0 -8 -6 -17l-57 -88q-15 -22 -46 -22h-25q-31 0 -46 22z" />
    <glyph glyph-name="uni02C9" unicode="&#x2c9;" horiz-adv-x="320" 
d="M32 619q-5 7 -5 23v10q0 16 5 23t15 7h223q11 0 15.5 -7t4.5 -23v-10q0 -16 -4.5 -23t-15.5 -7h-223q-10 0 -15 7z" />
    <glyph glyph-name="breve" unicode="&#x2d8;" horiz-adv-x="320" 
d="M56 615.5q-43 30.5 -43 84.5q0 15 15 15q9 0 12 -3t5 -9.5t5 -12.5q11 -20 40 -29.5t68 -9.5t68 9.5t39 29.5q3 6 5.5 13t5.5 9.5t11 2.5q15 0 15 -15q0 -54 -43 -84.5t-101 -30.5q-59 0 -102 30.5z" />
    <glyph glyph-name="dotaccent" unicode="&#x2d9;" horiz-adv-x="320" 
d="M120 629v51q0 22 44 22q40 0 40 -22v-51q0 -22 -44 -22q-40 0 -40 22z" />
    <glyph glyph-name="ring" unicode="&#x2da;" horiz-adv-x="320" 
d="M100.5 588.5q-24.5 24.5 -24.5 59.5t24.5 60t59.5 25t60 -25t25 -60t-25 -59.5t-60 -24.5t-59.5 24.5zM195.5 613q14.5 14 14.5 35t-14.5 35.5t-35.5 14.5t-35 -14.5t-14 -35.5t14 -35t35 -14t35.5 14z" />
    <glyph glyph-name="ogonek" unicode="&#x2db;" horiz-adv-x="320" 
d="M78 -150q-24 33 -24 69q0 23 8.5 51t26.5 46l44 -17q-12 -31 -12 -61q0 -32 18 -41.5t44 -9.5q10 0 25 5q23 5 27 5q19 0 19 -25q0 -21 -10 -34q-9 -12 -27 -16.5t-45 -4.5q-70 0 -94 33z" />
    <glyph glyph-name="tilde" unicode="&#x2dc;" horiz-adv-x="365" 
d="M20 596q-10 4 -10 12q0 6 3 13q16 37 38.5 53t53.5 16q21 0 42 -5.5t55 -17.5q29 -10 45.5 -15t31.5 -5q14 0 24 6.5t20 22.5q10 15 20 15q5 0 10 -3l8 -3q12 -4 12 -12q0 -6 -5 -14q-16 -36 -38 -52t-53 -16q-36 0 -100 24q-28 10 -45 14.5t-32 4.5q-13 0 -22 -6.5
t-20 -23.5q-8 -14 -17 -14q-3 0 -11 2z" />
    <glyph glyph-name="hungarumlaut" unicode="&#x2dd;" horiz-adv-x="384" 
d="M59 595q0 7 14.5 34t43.5 77q8 14 23 20t39 6q25 0 36.5 -3t11.5 -10q0 -8 -15 -26.5t-79 -89.5q-16 -18 -51 -18q-23 0 -23 10zM206 595q0 7 14.5 34t43.5 77q8 14 23 20t39 6q25 0 36.5 -3t11.5 -10q0 -8 -15 -26.5t-79 -89.5q-16 -18 -51 -18q-23 0 -23 10z" />
    <glyph glyph-name="gravecomb" unicode="&#x300;" horiz-adv-x="0" 
d="M-18 603l-38 43q-38 44 -47 55.5t-9 17.5q0 7 11.5 10t36.5 3q24 0 39 -6t23 -20q29 -50 43.5 -77t14.5 -34q0 -10 -23 -10q-34 0 -51 18z" />
    <glyph glyph-name="acutecomb" unicode="&#x301;" horiz-adv-x="0" 
d="M-69 595q0 7 14.5 34t43.5 77q8 14 23 20t39 6q25 0 36.5 -3t11.5 -10q0 -8 -15 -26.5t-79 -89.5q-16 -18 -51 -18q-23 0 -23 10z" />
    <glyph glyph-name="uni0302" unicode="&#x302;" horiz-adv-x="0" 
d="M-119 590q0 8 6 18l56 88q15 22 46 22h25q31 0 46 -22l57 -88q6 -9 6 -17q0 -15 -24 -15h-2q-19 0 -33 13l-63 74l-61 -74q-14 -13 -34 -13h-2q-23 0 -23 14z" />
    <glyph glyph-name="tildecomb" unicode="&#x303;" horiz-adv-x="0" 
d="M-157 596q-10 4 -10 12q0 6 3 13q16 37 38.5 53t53.5 16q21 0 42 -5.5t55 -17.5q29 -10 45.5 -15t31.5 -5q14 0 24 6.5t20 22.5q10 15 20 15q6 0 10 -3l8 -3q12 -4 12 -12q0 -6 -5 -14q-16 -36 -38 -52t-53 -16q-36 0 -100 24q-28 10 -45 14.5t-32 4.5q-13 0 -22 -6.5
t-20 -23.5q-8 -14 -17 -14q-3 0 -11 2z" />
    <glyph glyph-name="uni0304" unicode="&#x304;" horiz-adv-x="0" 
d="M-132.5 619q-4.5 7 -4.5 23v10q0 16 4.5 23t15.5 7h223q11 0 15.5 -7t4.5 -23v-10q0 -16 -4.5 -23t-15.5 -7h-223q-11 0 -15.5 7z" />
    <glyph glyph-name="uni0306" unicode="&#x306;" horiz-adv-x="0" 
d="M-101 615.5q-43 30.5 -43 84.5q0 15 15 15q9 0 12 -3t5 -9.5t5 -12.5q11 -20 40 -29.5t68 -9.5t68 9.5t39 29.5q3 6 5.5 13t5.5 9.5t11 2.5q15 0 15 -15q0 -54 -43 -84.5t-101 -30.5q-59 0 -102 30.5z" />
    <glyph glyph-name="uni0307" unicode="&#x307;" horiz-adv-x="0" 
d="M-42 629v51q0 22 44 22q40 0 40 -22v-51q0 -22 -44 -22q-40 0 -40 22z" />
    <glyph glyph-name="uni0308" unicode="&#x308;" horiz-adv-x="0" 
d="M-116 629v51q0 22 44 22q40 0 40 -22v-51q0 -22 -44 -22q-40 0 -40 22zM28 629v51q0 22 44 22q40 0 40 -22v-51q0 -22 -44 -22q-40 0 -40 22z" />
    <glyph glyph-name="hookabovecomb" unicode="&#x309;" horiz-adv-x="0" 
d="M-313.5 568.5q-12.5 5.5 -12.5 11.5q0 9 5.5 15t19.5 18q17 14 27 27t10 32q0 13 -10.5 20t-26.5 7q-22 0 -32.5 -6.5t-13.5 -6.5q-6 0 -15 12.5t-9 20.5q0 10 26 20.5t52 10.5q33 0 62 -17t29 -54q0 -30 -18.5 -56t-41.5 -43t-31 -17t-20.5 5.5z" />
    <glyph glyph-name="uni030A" unicode="&#x30a;" horiz-adv-x="0" 
d="M-57.5 588.5q-24.5 24.5 -24.5 59.5t24.5 60t59.5 25t60 -25t25 -60t-25 -59.5t-60 -24.5t-59.5 24.5zM37.5 613q14.5 14 14.5 35t-14.5 35.5t-35.5 14.5t-35 -14.5t-14 -35.5t14 -35t35 -14t35.5 14z" />
    <glyph glyph-name="uni030B" unicode="&#x30b;" horiz-adv-x="0" 
d="M-131 595q0 7 14.5 34t43.5 77q8 14 23 20t39 6q25 0 36.5 -3t11.5 -10q0 -8 -15 -26.5t-79 -89.5q-16 -18 -51 -18q-23 0 -23 10zM16 595q0 7 14.5 34t43.5 77q8 14 23 20t39 6q25 0 36.5 -3t11.5 -10q0 -8 -15 -26.5t-79 -89.5q-16 -18 -51 -18q-23 0 -23 10z" />
    <glyph glyph-name="uni030C" unicode="&#x30c;" horiz-adv-x="0" 
d="M-55 604l-56 88q-6 11 -6 18q0 14 23 14h2q20 0 34 -13l61 -74l63 74q14 13 33 13h2q24 0 24 -15q0 -8 -6 -17l-57 -88q-15 -22 -46 -22h-25q-31 0 -46 22z" />
    <glyph glyph-name="dotbelowcomb" unicode="&#x323;" horiz-adv-x="0" 
d="M-40 -153v51q0 22 44 22q40 0 40 -22v-51q0 -22 -44 -22q-40 0 -40 22z" />
    <glyph glyph-name="uni0326" unicode="&#x326;" horiz-adv-x="0" 
d="M-241 -231.5q-9 3.5 -9 11.5q0 9 12 31q14 26 22.5 50t8.5 56q0 15 10 23.5t30 8.5h9q19 0 29.5 -7.5t10.5 -20.5q0 -44 -18 -80t-42.5 -56t-42.5 -20q-11 0 -20 3.5z" />
    <glyph glyph-name="uni0327" unicode="&#x327;" horiz-adv-x="0" 
d="M69 -64q28 -15 28 -57q0 -89 -115 -89q-39 0 -77 12t-38 31q0 26 19 26q8 0 25 -7q33 -13 58 -13q57 0 57 35q0 17 -10 24.5t-29 13.5q-14 4 -20.5 8t-6.5 12q0 6 4.5 21t14.5 47h43l-14 -49h4q29 0 57 -15z" />
    <glyph glyph-name="uni0394" unicode="&#x394;" horiz-adv-x="708" 
d="M42.5 7.5q-7.5 7.5 -8.5 20.5v2q0 18 8 37l264 620q10 23 35 23h26q25 0 35 -23l263 -620q8 -19 8 -34v-3q0 -30 -30 -30h-579q-14 0 -21.5 7.5zM587 68l-232 551h-5l-234 -551h471z" />
    <glyph glyph-name="uni03A9" unicode="&#x3a9;" horiz-adv-x="731" 
d="M46 7q-5 7 -5 23v8q0 16 5 23t15 7q9 0 97 -4q-101 93 -101 288q0 175 78.5 264.5t229.5 89.5t230 -89.5t79 -264.5q0 -195 -102 -288q88 4 97 4q11 0 15.5 -7t4.5 -23v-8q0 -16 -4.5 -23t-15.5 -7h-237q-10 0 -15 7t-5 23v4q0 9 1 13t6 5q83 21 123.5 94.5t40.5 205.5
q0 137 -56 207.5t-162 70.5t-161.5 -70.5t-55.5 -207.5q0 -131 40 -203.5t123 -96.5q5 -1 6 -5t1 -13v-4q0 -16 -4.5 -23t-15.5 -7h-237q-10 0 -15 7z" />
    <glyph glyph-name="uni03BC" unicode="&#x3bc;" horiz-adv-x="566" 
d="M487 53.5q6 -28.5 6 -31.5q0 -12 -19 -17.5t-35 -5.5q-14 0 -20.5 15.5t-10 32.5t-4.5 22q-32 -35 -73 -55t-83 -20t-79 15v-195q0 -22 -40 -22h-4q-40 0 -40 22v689q0 22 40 22h4q40 0 40 -22v-339q0 -46 26.5 -71.5t75.5 -25.5q34 0 67.5 19t58.5 51v366q0 22 40 22h4
q40 0 40 -22v-355q0 -66 6 -94.5z" />
    <glyph glyph-name="pi" unicode="&#x3c0;" horiz-adv-x="616" 
d="M73.5 4q-7.5 6 -7.5 15q0 3 2 9q27 82 47 202t25 221q-53 0 -76.5 -4.5t-29.5 -4.5q-11 0 -15.5 9t-4.5 28q0 24 38.5 34t109.5 10h406q12 0 18 -4t6 -15l-3 -31q-1 -13 -8.5 -17.5t-22.5 -4.5h-55v-297q0 -50 6 -96q3 -21 3 -35q0 -25 -26 -25h-24q-20 0 -29 14.5
t-11.5 44t-2.5 89.5v305h-195q-5 -102 -25.5 -228.5t-47.5 -199.5q-9 -25 -34 -25h-23q-13 0 -20.5 6z" />
    <glyph glyph-name="uni1E0C" unicode="&#x1e0c;" horiz-adv-x="695" 
d="M104 7q-7 7 -7 23v640q0 16 7 23t23 7h202q140 0 224.5 -83.5t84.5 -266.5q0 -184 -84.5 -267t-224.5 -83h-202q-16 0 -23 7zM322 76q101 0 163 66t62 208q0 141 -62 207.5t-163 66.5h-137v-548h137zM287 -153v51q0 22 44 22q40 0 40 -22v-51q0 -22 -44 -22q-40 0 -40 22
z" />
    <glyph glyph-name="uni1E0D" unicode="&#x1e0d;" horiz-adv-x="565" 
d="M143 28q-44 34 -67.5 95t-23.5 138q0 85 25.5 145.5t71.5 91.5t106 31q44 0 77.5 -13t65.5 -38v252q0 22 40 22h4q40 0 40 -22v-582q0 -66 6 -94.5t6 -31.5q0 -12 -19 -17.5t-35 -5.5q-14 0 -20.5 15.5t-10 32.5t-4.5 22q-72 -75 -159 -75q-59 0 -103 34zM332.5 85
q35.5 18 65.5 51v274q-54 45 -123 45q-67 0 -101 -48t-34 -138q0 -97 32 -149.5t91 -52.5q34 0 69.5 18zM241 -153v51q0 22 44 22q40 0 40 -22v-51q0 -22 -44 -22q-40 0 -40 22z" />
    <glyph glyph-name="uni1E24" unicode="&#x1e24;" horiz-adv-x="733" 
d="M97 20v660q0 22 40 22h8q40 0 40 -22v-283h362v283q0 22 40 22h8q40 0 40 -22v-660q0 -22 -40 -22h-8q-40 0 -40 22v301h-362v-301q0 -22 -40 -22h-8q-40 0 -40 22zM336 -153v51q0 22 44 22q40 0 40 -22v-51q0 -22 -44 -22q-40 0 -40 22z" />
    <glyph glyph-name="uni1E25" unicode="&#x1e25;" horiz-adv-x="565" 
d="M92 20v710q0 22 40 22h4q40 0 40 -22v-270q30 30 69.5 49.5t83.5 19.5q63 0 111 -35.5t48 -126.5v-347q0 -22 -40 -22h-4q-40 0 -40 22v339q0 45 -26 71t-76 26q-33 0 -61 -15.5t-46.5 -34t-18.5 -20.5v-366q0 -22 -40 -22h-4q-40 0 -40 22zM242 -153v51q0 22 44 22
q40 0 40 -22v-51q0 -22 -44 -22q-40 0 -40 22z" />
    <glyph glyph-name="uni1E44" unicode="&#x1e44;" horiz-adv-x="719" 
d="M90 20v660q0 22 40 22h21q16 0 25.5 -4t16.5 -15l314 -474q17 -25 33 -60l4 1q-2 23 -2 68v462q0 22 40 22h7q40 0 40 -22v-660q0 -22 -40 -22h-20q-26 0 -35 14l-322 486q-17 25 -33 60l-4 -1q2 -23 2 -68v-469q0 -22 -40 -22h-7q-40 0 -40 22zM318 806v51q0 22 44 22
q40 0 40 -22v-51q0 -22 -44 -22q-40 0 -40 22z" />
    <glyph glyph-name="uni1E45" unicode="&#x1e45;" 
d="M86 20v351q0 66 -6 94.5t-6 31.5q0 12 19 17.5t35 5.5q14 0 20.5 -14.5t10 -30.5t4.5 -21q32 35 73 55t83 20q76 0 119.5 -43t43.5 -119v-347q0 -22 -40 -22h-4q-40 0 -40 22v339q0 46 -26.5 71.5t-75.5 25.5q-34 0 -67.5 -19t-58.5 -51v-366q0 -22 -40 -22h-4
q-40 0 -40 22zM237 629v51q0 22 44 22q40 0 40 -22v-51q0 -22 -44 -22q-40 0 -40 22z" />
    <glyph glyph-name="uni1E5A" unicode="&#x1e5a;" horiz-adv-x="610" 
d="M97 20v650q0 16 7 23t23 7h168q120 0 180.5 -42.5t60.5 -134.5q0 -62 -30 -104.5t-85 -64.5v-4q29 -10 48.5 -39t41.5 -86l78 -197q3 -9 3 -14q0 -16 -42 -16h-10q-15 0 -26 4.5t-14 11.5l-76 196q-22 57 -55 77.5t-94 20.5h-90v-288q0 -22 -40 -22h-8q-40 0 -40 22z
M317 384q35 0 64.5 17t46.5 45t17 61q0 59 -36 88t-99 29h-125v-240h132zM265 -153v51q0 22 44 22q40 0 40 -22v-51q0 -22 -44 -22q-40 0 -40 22z" />
    <glyph glyph-name="uni1E5B" unicode="&#x1e5b;" horiz-adv-x="366" 
d="M90 20v351q0 66 -6 94.5t-6 31.5q0 12 19 17.5t35 5.5q14 0 20.5 -14.5t10 -30.5t4.5 -21q53 75 116 75q28 0 43 -11t15 -28t-6 -35.5t-14 -18.5q-5 0 -19.5 5.5t-35.5 5.5q-23 0 -43.5 -13.5t-34.5 -29.5t-14 -18v-366q0 -22 -40 -22h-4q-40 0 -40 22zM94 -155v51
q0 22 44 22q40 0 40 -22v-51q0 -22 -44 -22q-40 0 -40 22z" />
    <glyph glyph-name="uni1E62" unicode="&#x1e62;" horiz-adv-x="500" 
d="M133 8q-51 14 -77 34q-19 14 -19 25q0 12 13.5 33t21.5 21q4 0 21 -10q31 -17 66.5 -29t84.5 -12q58 0 94.5 32.5t36.5 85.5q0 37 -20 61.5t-48.5 39t-82.5 35.5q-58 23 -92 42t-58 56.5t-24 98.5q0 54 27.5 96t78 65.5t116.5 23.5q34 0 76 -9.5t65 -25.5q20 -12 20 -26
q0 -11 -12.5 -32t-19.5 -21q-5 0 -14.5 5t-12.5 7q-50 26 -104 26q-58 0 -93.5 -30t-35.5 -83q0 -34 17.5 -55t40 -31.5t78.5 -32.5q60 -23 98 -44.5t64.5 -62t26.5 -103.5q0 -90 -60 -142t-162 -52q-60 0 -111 14zM210 -153v51q0 22 44 22q40 0 40 -22v-51q0 -22 -44 -22
q-40 0 -40 22z" />
    <glyph glyph-name="uni1E63" unicode="&#x1e63;" horiz-adv-x="413" 
d="M114.5 1.5q-36.5 10.5 -58 25.5t-21.5 27q0 10 12.5 30t22.5 20q2 0 19 -11t42.5 -20t56.5 -9q98 0 98 81q0 34 -22 54t-78 36q-79 23 -109 57.5t-30 92.5q0 42 21.5 75t59 51.5t85.5 18.5q51 0 91.5 -13t40.5 -30q0 -13 -11.5 -33.5t-20.5 -20.5q-3 1 -26.5 13.5
t-64.5 12.5q-38 0 -63.5 -17t-25.5 -46q0 -34 18 -54t60 -33q64 -20 97.5 -39.5t48 -48t14.5 -74.5q0 -44 -23.5 -79.5t-64 -56t-89.5 -20.5q-43 0 -79.5 10.5zM167 -153v51q0 22 44 22q40 0 40 -22v-51q0 -22 -44 -22q-40 0 -40 22z" />
    <glyph glyph-name="uni1E6C" unicode="&#x1e6c;" horiz-adv-x="549" 
d="M232 20v604h-192q-10 0 -15 7t-5 23v16q0 16 5 23t15 7h469q11 0 15.5 -7t4.5 -23v-16q0 -16 -4.5 -23t-15.5 -7h-189v-604q0 -22 -40 -22h-8q-40 0 -40 22zM235 -153v51q0 22 44 22q40 0 40 -22v-51q0 -22 -44 -22q-40 0 -40 22z" />
    <glyph glyph-name="uni1E6D" unicode="&#x1e6d;" horiz-adv-x="342" 
d="M146.5 24.5q-39.5 30.5 -39.5 107.5v319h-50q-10 0 -15 7t-5 23v12q0 16 5 23t15 7h50l12 105q3 22 32 22h10q30 0 30 -22v-105h84q11 0 15.5 -7t4.5 -23v-12q0 -16 -4.5 -23t-15.5 -7h-84v-311q0 -42 14.5 -58t39.5 -16q19 0 28.5 2.5t14.5 2.5q9 0 15 -18.5t6 -28.5
q0 -30 -73 -30q-50 0 -89.5 30.5zM176 -153v51q0 22 44 22q40 0 40 -22v-51q0 -22 -44 -22q-40 0 -40 22z" />
    <glyph glyph-name="Wgrave" unicode="&#x1e80;" horiz-adv-x="882" 
d="M189 14l-171 657q-3 12 -3 14q0 17 43 17h10q36 0 40 -16l127 -492q5 -19 11 -53.5t7 -39.5l24 96l121 488q4 17 39 17h16q35 0 39 -17l124 -492q6 -22 11 -52.5t6 -39.5l24 95l121 490q4 16 40 16h6q43 0 43 -17l-3 -14l-173 -657q-4 -16 -40 -16h-41q-36 0 -40 16
l-109 407l-21 130l-21 -130l-109 -407q-4 -16 -40 -16h-41q-36 0 -40 16zM423 780l-38 43q-38 44 -47 55.5t-9 17.5q0 7 11.5 10t36.5 3q24 0 39 -6t23 -20q29 -50 43.5 -77t14.5 -34q0 -10 -23 -10q-34 0 -51 18z" />
    <glyph glyph-name="wgrave" unicode="&#x1e81;" horiz-adv-x="747" 
d="M167 14l-132 474q-5 15 -5 20q0 17 46 17q36 0 40 -16l84 -320q3 -9 7 -30.5t6 -32.5l10 -52h4q16 89 23 116l83 318q4 17 39 17h7q35 0 39 -17l84 -318q11 -44 16.5 -76.5t7.5 -41.5h2l7 42q11 57 15 74l84 321q4 16 41 16q40 0 40 -17q0 -5 -3 -14l-134 -480
q-4 -16 -40 -16h-30q-35 0 -39 16l-80 317q-4 13 -10 53l-4 26h-2l-4 -24q-6 -41 -10 -54l-82 -318q-4 -16 -40 -16h-30q-36 0 -40 16zM356 603l-38 43q-38 44 -47 55.5t-9 17.5q0 7 11.5 10t36.5 3q24 0 39 -6t23 -20q29 -50 43.5 -77t14.5 -34q0 -10 -23 -10q-34 0 -51 18
z" />
    <glyph glyph-name="Wacute" unicode="&#x1e82;" horiz-adv-x="882" 
d="M189 14l-171 657q-3 12 -3 14q0 17 43 17h10q36 0 40 -16l127 -492q5 -19 11 -53.5t7 -39.5l24 96l121 488q4 17 39 17h16q35 0 39 -17l124 -492q6 -22 11 -52.5t6 -39.5l24 95l121 490q4 16 40 16h6q43 0 43 -17l-3 -14l-173 -657q-4 -16 -40 -16h-41q-36 0 -40 16
l-109 407l-21 130l-21 -130l-109 -407q-4 -16 -40 -16h-41q-36 0 -40 16zM399 772q0 7 14.5 34t43.5 77q8 14 23 20t39 6q25 0 36.5 -3t11.5 -10q0 -8 -15 -26.5t-79 -89.5q-16 -18 -51 -18q-23 0 -23 10z" />
    <glyph glyph-name="wacute" unicode="&#x1e83;" horiz-adv-x="747" 
d="M167 14l-132 474q-5 15 -5 20q0 17 46 17q36 0 40 -16l84 -320q3 -9 7 -30.5t6 -32.5l10 -52h4q16 89 23 116l83 318q4 17 39 17h7q35 0 39 -17l84 -318q11 -44 16.5 -76.5t7.5 -41.5h2l7 42q11 57 15 74l84 321q4 16 41 16q40 0 40 -17q0 -5 -3 -14l-134 -480
q-4 -16 -40 -16h-30q-35 0 -39 16l-80 317q-4 13 -10 53l-4 26h-2l-4 -24q-6 -41 -10 -54l-82 -318q-4 -16 -40 -16h-30q-36 0 -40 16zM332 595q0 7 14.5 34t43.5 77q8 14 23 20t39 6q25 0 36.5 -3t11.5 -10q0 -8 -15 -26.5t-79 -89.5q-16 -18 -51 -18q-23 0 -23 10z" />
    <glyph glyph-name="Wdieresis" unicode="&#x1e84;" horiz-adv-x="882" 
d="M189 14l-171 657q-3 12 -3 14q0 17 43 17h10q36 0 40 -16l127 -492q5 -19 11 -53.5t7 -39.5l24 96l121 488q4 17 39 17h16q35 0 39 -17l124 -492q6 -22 11 -52.5t6 -39.5l24 95l121 490q4 16 40 16h6q43 0 43 -17l-3 -14l-173 -657q-4 -16 -40 -16h-41q-36 0 -40 16
l-109 407l-21 130l-21 -130l-109 -407q-4 -16 -40 -16h-41q-36 0 -40 16zM327 806v51q0 22 44 22q40 0 40 -22v-51q0 -22 -44 -22q-40 0 -40 22zM471 806v51q0 22 44 22q40 0 40 -22v-51q0 -22 -44 -22q-40 0 -40 22z" />
    <glyph glyph-name="wdieresis" unicode="&#x1e85;" horiz-adv-x="747" 
d="M167 14l-132 474q-5 15 -5 20q0 17 46 17q36 0 40 -16l84 -320q3 -9 7 -30.5t6 -32.5l10 -52h4q16 89 23 116l83 318q4 17 39 17h7q35 0 39 -17l84 -318q11 -44 16.5 -76.5t7.5 -41.5h2l7 42q11 57 15 74l84 321q4 16 41 16q40 0 40 -17q0 -5 -3 -14l-134 -480
q-4 -16 -40 -16h-30q-35 0 -39 16l-80 317q-4 13 -10 53l-4 26h-2l-4 -24q-6 -41 -10 -54l-82 -318q-4 -16 -40 -16h-30q-36 0 -40 16zM260 629v51q0 22 44 22q40 0 40 -22v-51q0 -22 -44 -22q-40 0 -40 22zM404 629v51q0 22 44 22q40 0 40 -22v-51q0 -22 -44 -22
q-40 0 -40 22z" />
    <glyph glyph-name="uni1E92" unicode="&#x1e92;" horiz-adv-x="616" 
d="M46.5 19q-8.5 19 -8.5 34q0 8 3 12l410 559h-360q-11 0 -15.5 8t-4.5 26v8q0 18 4.5 26t15.5 8h458q6 0 14 -19t8 -34q0 -7 -3 -12l-410 -559h391q11 0 15.5 -8t4.5 -26v-8q0 -18 -4.5 -26t-15.5 -8h-487q-7 0 -15.5 19zM278 -153v51q0 22 44 22q40 0 40 -22v-51
q0 -22 -44 -22q-40 0 -40 22z" />
    <glyph glyph-name="uni1E93" unicode="&#x1e93;" horiz-adv-x="489" 
d="M45 18q-8 18 -8 33q0 7 3 11l293 389h-256q-10 0 -15 7t-5 23v12q0 16 5 23t15 7h351q7 0 13.5 -18.5t6.5 -33.5q0 -6 -2 -10l-292 -389h275q11 0 15.5 -7t4.5 -23v-12q0 -16 -4.5 -23t-15.5 -7h-370q-6 0 -14 18zM198 -153v51q0 22 44 22q40 0 40 -22v-51q0 -22 -44 -22
q-40 0 -40 22z" />
    <glyph glyph-name="uni1E9E" unicode="&#x1e9e;" horiz-adv-x="700" 
d="M340.5 3q-39.5 9 -62 22t-22.5 26q0 14 13 32t22 18q12 0 23.5 -4.5t22.5 -9.5q21 -10 38 -15.5t44 -5.5q60 0 107 32t47 106q0 72 -41 102t-119 30h-35q-7 0 -15.5 19t-8.5 34q0 8 3 12l152 208q-63 21 -141 21q-97 0 -142.5 -48t-45.5 -153v-409q0 -22 -40 -22h-8
q-40 0 -40 22v410q0 134 67 204.5t196 70.5q69 0 132 -10t110 -24q6 -2 14 -20t8 -33q0 -7 -3 -12l-150 -205q90 -14 142 -62.5t52 -135.5q0 -72 -35 -119t-88.5 -68.5t-109.5 -21.5q-47 0 -86.5 9z" />
    <glyph glyph-name="uni1EA0" unicode="&#x1ea0;" horiz-adv-x="613" 
d="M12 15q0 5 3 14l237 657q6 16 40 16h29q36 0 40 -16l237 -658q3 -7 3 -13q0 -17 -43 -17h-8q-35 0 -40 16l-59 164h-294l-57 -164q-5 -16 -40 -16h-5q-43 0 -43 17zM424 254l-105 298q-5 16 -12 58h-2q-8 -40 -15 -58l-105 -298h239zM270 -153v51q0 22 44 22q40 0 40 -22
v-51q0 -22 -44 -22q-40 0 -40 22z" />
    <glyph glyph-name="uni1EA1" unicode="&#x1ea1;" horiz-adv-x="545" 
d="M96 32q-47 38 -47 112q0 79 47.5 118.5t116.5 51t168 12.5v47q0 37 -26 60.5t-84 23.5q-44 0 -77 -10.5t-55 -21t-24 -10.5q-10 0 -22.5 20t-12.5 30q0 13 26.5 28t70.5 25.5t91 10.5q93 0 145 -41.5t52 -115.5v-224q0 -66 6 -94.5t6 -31.5q0 -12 -19 -17.5t-35 -5.5
q-14 0 -20.5 15.5t-10 32.5t-4.5 22q-68 -75 -168 -75q-77 0 -124 38zM308.5 85q35.5 18 72.5 51v118q-75 -1 -122.5 -6t-83.5 -28t-36 -71q0 -40 21.5 -61t63.5 -21q49 0 84.5 18zM221 -153v51q0 22 44 22q40 0 40 -22v-51q0 -22 -44 -22q-40 0 -40 22z" />
    <glyph glyph-name="uni1EA2" unicode="&#x1ea2;" horiz-adv-x="613" 
d="M12 15q0 5 3 14l237 657q6 16 40 16h29q36 0 40 -16l237 -658q3 -7 3 -13q0 -17 -43 -17h-8q-35 0 -40 16l-59 164h-294l-57 -164q-5 -16 -40 -16h-5q-43 0 -43 17zM424 254l-105 298q-5 16 -12 58h-2q-8 -40 -15 -58l-105 -298h239zM293.5 745.5q-12.5 5.5 -12.5 11.5
q0 9 5.5 15t19.5 18q17 14 27 27t10 32q0 13 -10.5 20t-26.5 7q-22 0 -32.5 -6.5t-13.5 -6.5q-6 0 -15 12.5t-9 20.5q0 10 26 20.5t52 10.5q33 0 62 -17t29 -54q0 -30 -18.5 -56t-41.5 -43t-31 -17t-20.5 5.5z" />
    <glyph glyph-name="uni1EA3" unicode="&#x1ea3;" horiz-adv-x="545" 
d="M96 32q-47 38 -47 112q0 79 47.5 118.5t116.5 51t168 12.5v47q0 37 -26 60.5t-84 23.5q-44 0 -77 -10.5t-55 -21t-24 -10.5q-10 0 -22.5 20t-12.5 30q0 13 26.5 28t70.5 25.5t91 10.5q93 0 145 -41.5t52 -115.5v-224q0 -66 6 -94.5t6 -31.5q0 -12 -19 -17.5t-35 -5.5
q-14 0 -20.5 15.5t-10 32.5t-4.5 22q-68 -75 -168 -75q-77 0 -124 38zM308.5 85q35.5 18 72.5 51v118q-75 -1 -122.5 -6t-83.5 -28t-36 -71q0 -40 21.5 -61t63.5 -21q49 0 84.5 18zM259.5 568.5q-12.5 5.5 -12.5 11.5q0 9 5.5 15t19.5 18q17 14 27 27t10 32q0 13 -10.5 20
t-26.5 7q-22 0 -32.5 -6.5t-13.5 -6.5q-6 0 -15 12.5t-9 20.5q0 10 26 20.5t52 10.5q33 0 62 -17t29 -54q0 -30 -18.5 -56t-41.5 -43t-31 -17t-20.5 5.5z" />
    <glyph glyph-name="uni1EA4" unicode="&#x1ea4;" horiz-adv-x="613" 
d="M405 859q0 7 14.5 34t43.5 77q8 14 23 20t39 6q25 0 36.5 -3t11.5 -10q0 -8 -15 -26.5t-79 -89.5q-16 -18 -51 -18q-23 0 -23 10zM190 767q0 8 6 18l56 88q15 22 46 22h25q31 0 46 -22l57 -88q6 -9 6 -17q0 -15 -24 -15h-2q-19 0 -33 13l-63 74l-61 -74q-14 -13 -34 -13
h-2q-23 0 -23 14zM12 15q0 5 3 14l237 657q6 16 40 16h29q36 0 40 -16l237 -658q3 -7 3 -13q0 -17 -43 -17h-8q-35 0 -40 16l-59 164h-294l-57 -164q-5 -16 -40 -16h-5q-43 0 -43 17zM424 254l-105 298q-5 16 -12 58h-2q-8 -40 -15 -58l-105 -298h239z" />
    <glyph glyph-name="uni1EA5" unicode="&#x1ea5;" horiz-adv-x="545" 
d="M398 695q0 7 14.5 34t43.5 77q8 14 23 20t39 6q25 0 36.5 -3t11.5 -10q0 -8 -15 -26.5t-79 -89.5q-16 -18 -51 -18q-23 0 -23 10zM156 590q0 8 6 18l56 88q15 22 46 22h25q31 0 46 -22l57 -88q6 -9 6 -17q0 -15 -24 -15h-2q-19 0 -33 13l-63 74l-61 -74q-14 -13 -34 -13
h-2q-23 0 -23 14zM96 32q-47 38 -47 112q0 79 47.5 118.5t116.5 51t168 12.5v47q0 37 -26 60.5t-84 23.5q-44 0 -77 -10.5t-55 -21t-24 -10.5q-10 0 -22.5 20t-12.5 30q0 13 26.5 28t70.5 25.5t91 10.5q93 0 145 -41.5t52 -115.5v-224q0 -66 6 -94.5t6 -31.5
q0 -12 -19 -17.5t-35 -5.5q-14 0 -20.5 15.5t-10 32.5t-4.5 22q-68 -75 -168 -75q-77 0 -124 38zM308.5 85q35.5 18 72.5 51v118q-75 -1 -122.5 -6t-83.5 -28t-36 -71q0 -40 21.5 -61t63.5 -21q49 0 84.5 18z" />
    <glyph glyph-name="uni1EA6" unicode="&#x1ea6;" horiz-adv-x="613" 
d="M417 867l-38 43q-39 44 -47.5 55t-8.5 18t11.5 10t36.5 3q24 0 39 -6t23 -20q29 -50 43.5 -77t14.5 -34q0 -10 -23 -10q-34 0 -51 18zM190 767q0 8 6 18l56 88q15 22 46 22h25q31 0 46 -22l57 -88q6 -9 6 -17q0 -15 -24 -15h-2q-19 0 -33 13l-63 74l-61 -74
q-14 -13 -34 -13h-2q-23 0 -23 14zM12 15q0 5 3 14l237 657q6 16 40 16h29q36 0 40 -16l237 -658q3 -7 3 -13q0 -17 -43 -17h-8q-35 0 -40 16l-59 164h-294l-57 -164q-5 -16 -40 -16h-5q-43 0 -43 17zM424 254l-105 298q-5 16 -12 58h-2q-8 -40 -15 -58l-105 -298h239z" />
    <glyph glyph-name="uni1EA7" unicode="&#x1ea7;" horiz-adv-x="545" 
d="M390 732l-38 43q-38 44 -47 55.5t-9 17.5q0 7 11.5 10t36.5 3q24 0 39 -6t23 -20q29 -50 43.5 -77t14.5 -34q0 -10 -23 -10q-34 0 -51 18zM156 590q0 8 6 18l56 88q15 22 46 22h25q31 0 46 -22l57 -88q6 -9 6 -17q0 -15 -24 -15h-2q-19 0 -33 13l-63 74l-61 -74
q-14 -13 -34 -13h-2q-23 0 -23 14zM96 32q-47 38 -47 112q0 79 47.5 118.5t116.5 51t168 12.5v47q0 37 -26 60.5t-84 23.5q-44 0 -77 -10.5t-55 -21t-24 -10.5q-10 0 -22.5 20t-12.5 30q0 13 26.5 28t70.5 25.5t91 10.5q93 0 145 -41.5t52 -115.5v-224q0 -66 6 -94.5
t6 -31.5q0 -12 -19 -17.5t-35 -5.5q-14 0 -20.5 15.5t-10 32.5t-4.5 22q-68 -75 -168 -75q-77 0 -124 38zM308.5 85q35.5 18 72.5 51v118q-75 -1 -122.5 -6t-83.5 -28t-36 -71q0 -40 21.5 -61t63.5 -21q49 0 84.5 18z" />
    <glyph glyph-name="uni1EA8" unicode="&#x1ea8;" horiz-adv-x="613" 
d="M434.5 835.5q-12.5 5.5 -12.5 11.5q0 9 6 16t15 14.5t14 11.5q27 23 27 50q0 13 -10.5 20t-26.5 7q-22 0 -32.5 -6.5t-13.5 -6.5q-6 0 -15 12.5t-9 20.5q0 10 26 20.5t52 10.5q33 0 62 -17t29 -54q0 -33 -25 -65q-16 -21 -37.5 -36t-28.5 -15q-8 0 -20.5 5.5zM190 767
q0 8 6 18l56 88q15 22 46 22h25q31 0 46 -22l57 -88q6 -9 6 -17q0 -15 -24 -15h-2q-19 0 -33 13l-63 74l-61 -74q-14 -13 -34 -13h-2q-23 0 -23 14zM12 15q0 5 3 14l237 657q6 16 40 16h29q36 0 40 -16l237 -658q3 -7 3 -13q0 -17 -43 -17h-8q-35 0 -40 16l-59 164h-294
l-57 -164q-5 -16 -40 -16h-5q-43 0 -43 17zM424 254l-105 298q-5 16 -12 58h-2q-8 -40 -15 -58l-105 -298h239z" />
    <glyph glyph-name="uni1EA9" unicode="&#x1ea9;" horiz-adv-x="545" 
d="M400.5 697.5q-12.5 5.5 -12.5 11.5q0 9 5.5 15t19.5 18q17 14 27 27t10 32q0 13 -10.5 20t-26.5 7q-22 0 -32.5 -6.5t-13.5 -6.5q-6 0 -15 12.5t-9 20.5q0 10 26 20.5t52 10.5q33 0 62 -17t29 -54q0 -30 -18.5 -56t-41.5 -43t-31 -17t-20.5 5.5zM156 590q0 8 6 18l56 88
q15 22 46 22h25q31 0 46 -22l57 -88q6 -9 6 -17q0 -15 -24 -15h-2q-19 0 -33 13l-63 74l-61 -74q-14 -13 -34 -13h-2q-23 0 -23 14zM96 32q-47 38 -47 112q0 79 47.5 118.5t116.5 51t168 12.5v47q0 37 -26 60.5t-84 23.5q-44 0 -77 -10.5t-55 -21t-24 -10.5q-10 0 -22.5 20
t-12.5 30q0 13 26.5 28t70.5 25.5t91 10.5q93 0 145 -41.5t52 -115.5v-224q0 -66 6 -94.5t6 -31.5q0 -12 -19 -17.5t-35 -5.5q-14 0 -20.5 15.5t-10 32.5t-4.5 22q-68 -75 -168 -75q-77 0 -124 38zM308.5 85q35.5 18 72.5 51v118q-75 -1 -122.5 -6t-83.5 -28t-36 -71
q0 -40 21.5 -61t63.5 -21q49 0 84.5 18z" />
    <glyph glyph-name="uni1EAA" unicode="&#x1eaa;" horiz-adv-x="613" 
d="M152 921q-9 5 -9 12q0 6 3 13q15 37 35 53t49 16q18 0 37 -5.5t50 -17.5q19 -8 38.5 -14t32.5 -6q12 0 21 6.5t19 22.5q8 15 18 15q4 0 9 -3l7 -3q11 -4 11 -12q0 -6 -4 -14q-15 -36 -35 -52t-48 -16q-20 0 -41 6t-50 18q-25 10 -41 14.5t-29 4.5q-11 0 -19.5 -6.5
t-18.5 -23.5q-8 -14 -16 -14q-2 0 -10 2zM186 767q0 8 6 18l56 88q15 22 46 22h25q31 0 46 -22l57 -88q6 -9 6 -17q0 -15 -24 -15h-2q-19 0 -33 13l-63 74l-61 -74q-14 -13 -34 -13h-2q-23 0 -23 14zM12 15q0 5 3 14l237 657q6 16 40 16h29q36 0 40 -16l237 -658q3 -7 3 -13
q0 -17 -43 -17h-8q-35 0 -40 16l-59 164h-294l-57 -164q-5 -16 -40 -16h-5q-43 0 -43 17zM424 254l-105 298q-5 16 -12 58h-2q-8 -40 -15 -58l-105 -298h239z" />
    <glyph glyph-name="uni1EAB" unicode="&#x1eab;" horiz-adv-x="545" 
d="M115 752q-9 5 -9 12q0 6 3 13q15 37 35 53t49 16q18 0 37 -5.5t50 -17.5q19 -8 38.5 -14t32.5 -6q12 0 21 6.5t19 22.5q8 15 18 15q4 0 9 -3l7 -3q11 -4 11 -12q0 -6 -4 -14q-15 -36 -35 -52t-48 -16q-20 0 -41 6t-50 18q-25 10 -41 14.5t-29 4.5q-11 0 -19.5 -6.5
t-18.5 -23.5q-8 -14 -16 -14q-2 0 -10 2zM152 590q0 8 6 18l56 88q15 22 46 22h25q31 0 46 -22l57 -88q6 -9 6 -17q0 -15 -24 -15h-2q-19 0 -33 13l-63 74l-61 -74q-14 -13 -34 -13h-2q-23 0 -23 14zM96 32q-47 38 -47 112q0 79 47.5 118.5t116.5 51t168 12.5v47
q0 37 -26 60.5t-84 23.5q-44 0 -77 -10.5t-55 -21t-24 -10.5q-10 0 -22.5 20t-12.5 30q0 13 26.5 28t70.5 25.5t91 10.5q93 0 145 -41.5t52 -115.5v-224q0 -66 6 -94.5t6 -31.5q0 -12 -19 -17.5t-35 -5.5q-14 0 -20.5 15.5t-10 32.5t-4.5 22q-68 -75 -168 -75q-77 0 -124 38
zM308.5 85q35.5 18 72.5 51v118q-75 -1 -122.5 -6t-83.5 -28t-36 -71q0 -40 21.5 -61t63.5 -21q49 0 84.5 18z" />
    <glyph glyph-name="uni1EAC" unicode="&#x1eac;" horiz-adv-x="613" 
d="M12 15q0 5 3 14l237 657q6 16 40 16h29q36 0 40 -16l237 -658q3 -7 3 -13q0 -17 -43 -17h-8q-35 0 -40 16l-59 164h-294l-57 -164q-5 -16 -40 -16h-5q-43 0 -43 17zM424 254l-105 298q-5 16 -12 58h-2q-8 -40 -15 -58l-105 -298h239zM270 -153v51q0 22 44 22q40 0 40 -22
v-51q0 -22 -44 -22q-40 0 -40 22zM186 767q0 8 6 18l56 88q15 22 46 22h25q31 0 46 -22l57 -88q6 -9 6 -17q0 -15 -24 -15h-2q-19 0 -33 13l-63 74l-61 -74q-14 -13 -34 -13h-2q-23 0 -23 14z" />
    <glyph glyph-name="uni1EAD" unicode="&#x1ead;" horiz-adv-x="545" 
d="M96 32q-47 38 -47 112q0 79 47.5 118.5t116.5 51t168 12.5v47q0 37 -26 60.5t-84 23.5q-44 0 -77 -10.5t-55 -21t-24 -10.5q-10 0 -22.5 20t-12.5 30q0 13 26.5 28t70.5 25.5t91 10.5q93 0 145 -41.5t52 -115.5v-224q0 -66 6 -94.5t6 -31.5q0 -12 -19 -17.5t-35 -5.5
q-14 0 -20.5 15.5t-10 32.5t-4.5 22q-68 -75 -168 -75q-77 0 -124 38zM308.5 85q35.5 18 72.5 51v118q-75 -1 -122.5 -6t-83.5 -28t-36 -71q0 -40 21.5 -61t63.5 -21q49 0 84.5 18zM221 -153v51q0 22 44 22q40 0 40 -22v-51q0 -22 -44 -22q-40 0 -40 22zM152 590q0 8 6 18
l56 88q15 22 46 22h25q31 0 46 -22l57 -88q6 -9 6 -17q0 -15 -24 -15h-2q-19 0 -33 13l-63 74l-61 -74q-14 -13 -34 -13h-2q-23 0 -23 14z" />
    <glyph glyph-name="uni1EAE" unicode="&#x1eae;" horiz-adv-x="613" 
d="M265 887q0 7 14.5 34t43.5 77q8 14 23 20t39 6q25 0 36.5 -3t11.5 -10q0 -8 -15 -26.5t-79 -89.5q-17 -18 -51 -18q-23 0 -23 10zM206 792.5q-43 30.5 -43 84.5q0 15 15 15q9 0 12 -3t5 -9.5t5 -12.5q11 -20 40 -29.5t68 -9.5t68 9.5t39 29.5q3 6 5.5 13t5.5 9.5t11 2.5
q15 0 15 -15q0 -54 -43 -84.5t-101 -30.5q-59 0 -102 30.5zM12 15q0 5 3 14l237 657q6 16 40 16h29q36 0 40 -16l237 -658q3 -7 3 -13q0 -17 -43 -17h-8q-35 0 -40 16l-59 164h-294l-57 -164q-5 -16 -40 -16h-5q-43 0 -43 17zM424 254l-105 298q-5 16 -12 58h-2
q-8 -40 -15 -58l-105 -298h239z" />
    <glyph glyph-name="uni1EAF" unicode="&#x1eaf;" horiz-adv-x="545" 
d="M96 32q-47 38 -47 112q0 79 47.5 118.5t116.5 51t168 12.5v47q0 37 -26 60.5t-84 23.5q-44 0 -77 -10.5t-55 -21t-24 -10.5q-10 0 -22.5 20t-12.5 30q0 13 26.5 28t70.5 25.5t91 10.5q93 0 145 -41.5t52 -115.5v-224q0 -66 6 -94.5t6 -31.5q0 -12 -19 -17.5t-35 -5.5
q-14 0 -20.5 15.5t-10 32.5t-4.5 22q-68 -75 -168 -75q-77 0 -124 38zM308.5 85q35.5 18 72.5 51v118q-75 -1 -122.5 -6t-83.5 -28t-36 -71q0 -40 21.5 -61t63.5 -21q49 0 84.5 18zM171 615.5q-43 30.5 -43 84.5q0 15 15 15q9 0 12 -3t5 -9.5t5 -12.5q11 -20 40 -29.5
t68 -9.5t68 9.5t39 29.5q3 6 5.5 13t5.5 9.5t11 2.5q15 0 15 -15q0 -54 -43 -84.5t-101 -30.5q-59 0 -102 30.5zM230 772q0 7 14.5 34t43.5 77q8 14 23 20t39 6q25 0 36.5 -3t11.5 -10q0 -8 -15 -26.5t-79 -89.5q-16 -18 -51 -18q-23 0 -23 10z" />
    <glyph glyph-name="uni1EB0" unicode="&#x1eb0;" horiz-adv-x="613" 
d="M277 895l-38 43q-39 44 -47.5 55t-8.5 18t11.5 10t36.5 3q24 0 39 -6t23 -20q29 -50 43.5 -77t14.5 -34q0 -10 -23 -10q-34 0 -51 18zM206 792.5q-43 30.5 -43 84.5q0 15 15 15q9 0 12 -3t5 -9.5t5 -12.5q11 -20 40 -29.5t68 -9.5t68 9.5t39 29.5q3 6 5.5 13t5.5 9.5
t11 2.5q15 0 15 -15q0 -54 -43 -84.5t-101 -30.5q-59 0 -102 30.5zM12 15q0 5 3 14l237 657q6 16 40 16h29q36 0 40 -16l237 -658q3 -7 3 -13q0 -17 -43 -17h-8q-35 0 -40 16l-59 164h-294l-57 -164q-5 -16 -40 -16h-5q-43 0 -43 17zM424 254l-105 298q-5 16 -12 58h-2
q-8 -40 -15 -58l-105 -298h239z" />
    <glyph glyph-name="uni1EB1" unicode="&#x1eb1;" horiz-adv-x="545" 
d="M96 32q-47 38 -47 112q0 79 47.5 118.5t116.5 51t168 12.5v47q0 37 -26 60.5t-84 23.5q-44 0 -77 -10.5t-55 -21t-24 -10.5q-10 0 -22.5 20t-12.5 30q0 13 26.5 28t70.5 25.5t91 10.5q93 0 145 -41.5t52 -115.5v-224q0 -66 6 -94.5t6 -31.5q0 -12 -19 -17.5t-35 -5.5
q-14 0 -20.5 15.5t-10 32.5t-4.5 22q-68 -75 -168 -75q-77 0 -124 38zM308.5 85q35.5 18 72.5 51v118q-75 -1 -122.5 -6t-83.5 -28t-36 -71q0 -40 21.5 -61t63.5 -21q49 0 84.5 18zM171 615.5q-43 30.5 -43 84.5q0 15 15 15q9 0 12 -3t5 -9.5t5 -12.5q11 -20 40 -29.5
t68 -9.5t68 9.5t39 29.5q3 6 5.5 13t5.5 9.5t11 2.5q15 0 15 -15q0 -54 -43 -84.5t-101 -30.5q-59 0 -102 30.5zM254 780l-38 43q-38 44 -47 55.5t-9 17.5q0 7 11.5 10t36.5 3q24 0 39 -6t23 -20q29 -50 43.5 -77t14.5 -34q0 -10 -23 -10q-34 0 -51 18z" />
    <glyph glyph-name="uni1EB2" unicode="&#x1eb2;" horiz-adv-x="613" 
d="M294.5 863.5q-12.5 5.5 -12.5 11.5q0 9 6 16t15 14.5t14 11.5q27 23 27 50q0 13 -10.5 20t-26.5 7q-22 0 -32.5 -6.5t-13.5 -6.5q-6 0 -15 12.5t-9 20.5q0 10 26 20.5t52 10.5q33 0 62 -17t29 -54q0 -33 -25 -65q-16 -21 -37.5 -36t-28.5 -15q-8 0 -20.5 5.5zM206 792.5
q-43 30.5 -43 84.5q0 15 15 15q9 0 12 -3t5 -9.5t5 -12.5q11 -20 40 -29.5t68 -9.5t68 9.5t39 29.5q3 6 5.5 13t5.5 9.5t11 2.5q15 0 15 -15q0 -54 -43 -84.5t-101 -30.5q-59 0 -102 30.5zM12 15q0 5 3 14l237 657q6 16 40 16h29q36 0 40 -16l237 -658q3 -7 3 -13
q0 -17 -43 -17h-8q-35 0 -40 16l-59 164h-294l-57 -164q-5 -16 -40 -16h-5q-43 0 -43 17zM424 254l-105 298q-5 16 -12 58h-2q-8 -40 -15 -58l-105 -298h239z" />
    <glyph glyph-name="uni1EB3" unicode="&#x1eb3;" horiz-adv-x="545" 
d="M96 32q-47 38 -47 112q0 79 47.5 118.5t116.5 51t168 12.5v47q0 37 -26 60.5t-84 23.5q-44 0 -77 -10.5t-55 -21t-24 -10.5q-10 0 -22.5 20t-12.5 30q0 13 26.5 28t70.5 25.5t91 10.5q93 0 145 -41.5t52 -115.5v-224q0 -66 6 -94.5t6 -31.5q0 -12 -19 -17.5t-35 -5.5
q-14 0 -20.5 15.5t-10 32.5t-4.5 22q-68 -75 -168 -75q-77 0 -124 38zM308.5 85q35.5 18 72.5 51v118q-75 -1 -122.5 -6t-83.5 -28t-36 -71q0 -40 21.5 -61t63.5 -21q49 0 84.5 18zM171 615.5q-43 30.5 -43 84.5q0 15 15 15q9 0 12 -3t5 -9.5t5 -12.5q11 -20 40 -29.5
t68 -9.5t68 9.5t39 29.5q3 6 5.5 13t5.5 9.5t11 2.5q15 0 15 -15q0 -54 -43 -84.5t-101 -30.5q-59 0 -102 30.5zM258.5 745.5q-12.5 5.5 -12.5 11.5q0 9 5.5 15t19.5 18q17 14 27 27t10 32q0 13 -10.5 20t-26.5 7q-22 0 -32.5 -6.5t-13.5 -6.5q-6 0 -15 12.5t-9 20.5
q0 10 26 20.5t52 10.5q33 0 62 -17t29 -54q0 -30 -18.5 -56t-41.5 -43t-31 -17t-20.5 5.5z" />
    <glyph glyph-name="uni1EB4" unicode="&#x1eb4;" horiz-adv-x="613" 
d="M154 914q-9 5 -9 12q0 6 3 13q15 37 35 53t49 16q18 0 37 -5.5t50 -17.5q19 -8 38.5 -14t32.5 -6q12 0 21 6.5t19 22.5q8 15 18 15q4 0 9 -3l7 -3q11 -4 11 -12q0 -6 -4 -14q-15 -36 -35 -52t-48 -16q-20 0 -41 6t-50 18q-25 10 -41 14.5t-29 4.5q-11 0 -19.5 -6.5
t-18.5 -23.5q-8 -14 -16 -14q-2 0 -10 2zM206 792.5q-43 30.5 -43 84.5q0 15 15 15q9 0 12 -3t5 -9.5t5 -12.5q11 -20 40 -29.5t68 -9.5t68 9.5t39 29.5q3 6 5.5 13t5.5 9.5t11 2.5q15 0 15 -15q0 -54 -43 -84.5t-101 -30.5q-59 0 -102 30.5zM12 15q0 5 3 14l237 657
q6 16 40 16h29q36 0 40 -16l237 -658q3 -7 3 -13q0 -17 -43 -17h-8q-35 0 -40 16l-59 164h-294l-57 -164q-5 -16 -40 -16h-5q-43 0 -43 17zM424 254l-105 298q-5 16 -12 58h-2q-8 -40 -15 -58l-105 -298h239z" />
    <glyph glyph-name="uni1EB5" unicode="&#x1eb5;" horiz-adv-x="545" 
d="M96 32q-47 38 -47 112q0 79 47.5 118.5t116.5 51t168 12.5v47q0 37 -26 60.5t-84 23.5q-44 0 -77 -10.5t-55 -21t-24 -10.5q-10 0 -22.5 20t-12.5 30q0 13 26.5 28t70.5 25.5t91 10.5q93 0 145 -41.5t52 -115.5v-224q0 -66 6 -94.5t6 -31.5q0 -12 -19 -17.5t-35 -5.5
q-14 0 -20.5 15.5t-10 32.5t-4.5 22q-68 -75 -168 -75q-77 0 -124 38zM308.5 85q35.5 18 72.5 51v118q-75 -1 -122.5 -6t-83.5 -28t-36 -71q0 -40 21.5 -61t63.5 -21q49 0 84.5 18zM171 615.5q-43 30.5 -43 84.5q0 15 15 15q9 0 12 -3t5 -9.5t5 -12.5q11 -20 40 -29.5
t68 -9.5t68 9.5t39 29.5q3 6 5.5 13t5.5 9.5t11 2.5q15 0 15 -15q0 -54 -43 -84.5t-101 -30.5q-59 0 -102 30.5zM109 773q-10 4 -10 12q0 6 3 13q16 37 38.5 53t53.5 16q21 0 42 -5.5t55 -17.5q29 -10 45.5 -15t31.5 -5q14 0 24 6.5t20 22.5q10 15 20 15q6 0 10 -3l8 -3
q12 -4 12 -12q0 -6 -5 -14q-16 -36 -38 -52t-53 -16q-36 0 -100 24q-28 10 -45 14.5t-32 4.5q-13 0 -22 -6.5t-20 -23.5q-8 -14 -17 -14q-3 0 -11 2z" />
    <glyph glyph-name="uni1EB6" unicode="&#x1eb6;" horiz-adv-x="613" 
d="M12 15q0 5 3 14l237 657q6 16 40 16h29q36 0 40 -16l237 -658q3 -7 3 -13q0 -17 -43 -17h-8q-35 0 -40 16l-59 164h-294l-57 -164q-5 -16 -40 -16h-5q-43 0 -43 17zM424 254l-105 298q-5 16 -12 58h-2q-8 -40 -15 -58l-105 -298h239zM270 -153v51q0 22 44 22q40 0 40 -22
v-51q0 -22 -44 -22q-40 0 -40 22zM205 792.5q-43 30.5 -43 84.5q0 15 15 15q9 0 12 -3t5 -9.5t5 -12.5q11 -20 40 -29.5t68 -9.5t68 9.5t39 29.5q3 6 5.5 13t5.5 9.5t11 2.5q15 0 15 -15q0 -54 -43 -84.5t-101 -30.5q-59 0 -102 30.5z" />
    <glyph glyph-name="uni1EB7" unicode="&#x1eb7;" horiz-adv-x="545" 
d="M96 32q-47 38 -47 112q0 79 47.5 118.5t116.5 51t168 12.5v47q0 37 -26 60.5t-84 23.5q-44 0 -77 -10.5t-55 -21t-24 -10.5q-10 0 -22.5 20t-12.5 30q0 13 26.5 28t70.5 25.5t91 10.5q93 0 145 -41.5t52 -115.5v-224q0 -66 6 -94.5t6 -31.5q0 -12 -19 -17.5t-35 -5.5
q-14 0 -20.5 15.5t-10 32.5t-4.5 22q-68 -75 -168 -75q-77 0 -124 38zM308.5 85q35.5 18 72.5 51v118q-75 -1 -122.5 -6t-83.5 -28t-36 -71q0 -40 21.5 -61t63.5 -21q49 0 84.5 18zM221 -153v51q0 22 44 22q40 0 40 -22v-51q0 -22 -44 -22q-40 0 -40 22zM171 615.5
q-43 30.5 -43 84.5q0 15 15 15q9 0 12 -3t5 -9.5t5 -12.5q11 -20 40 -29.5t68 -9.5t68 9.5t39 29.5q3 6 5.5 13t5.5 9.5t11 2.5q15 0 15 -15q0 -54 -43 -84.5t-101 -30.5q-59 0 -102 30.5z" />
    <glyph glyph-name="uni1EB8" unicode="&#x1eb8;" horiz-adv-x="546" 
d="M104 7q-7 7 -7 23v640q0 16 7 23t23 7h349q11 0 15.5 -7t4.5 -23v-16q0 -16 -4.5 -23t-15.5 -7h-291v-228h261q11 0 15.5 -7t4.5 -23v-16q0 -16 -4.5 -23t-15.5 -7h-261v-244h292q11 0 15.5 -7t4.5 -23v-16q0 -16 -4.5 -23t-15.5 -7h-350q-16 0 -23 7zM260 -153v51
q0 22 44 22q40 0 40 -22v-51q0 -22 -44 -22q-40 0 -40 22z" />
    <glyph glyph-name="uni1EB9" unicode="&#x1eb9;" horiz-adv-x="539" 
d="M115 59q-60 65 -60 199q0 133 59 202t174 69q102 0 154 -66.5t52 -194.5q0 -9 -12 -25t-21 -16h-316q6 -83 43 -122t111 -39q42 0 72.5 10.5t50.5 21t23 10.5q10 0 22.5 -20t12.5 -30q0 -12 -25 -27.5t-66.5 -26t-88.5 -10.5q-125 0 -185 65zM405 299q0 158 -120 158
q-129 0 -140 -158h260zM230 -153v51q0 22 44 22q40 0 40 -22v-51q0 -22 -44 -22q-40 0 -40 22z" />
    <glyph glyph-name="uni1EBA" unicode="&#x1eba;" horiz-adv-x="546" 
d="M104 7q-7 7 -7 23v640q0 16 7 23t23 7h349q11 0 15.5 -7t4.5 -23v-16q0 -16 -4.5 -23t-15.5 -7h-291v-228h261q11 0 15.5 -7t4.5 -23v-16q0 -16 -4.5 -23t-15.5 -7h-261v-244h292q11 0 15.5 -7t4.5 -23v-16q0 -16 -4.5 -23t-15.5 -7h-350q-16 0 -23 7zM282.5 745.5
q-12.5 5.5 -12.5 11.5q0 9 5.5 15t19.5 18q17 14 27 27t10 32q0 13 -10.5 20t-26.5 7q-22 0 -32.5 -6.5t-13.5 -6.5q-6 0 -15 12.5t-9 20.5q0 10 26 20.5t52 10.5q33 0 62 -17t29 -54q0 -30 -18.5 -56t-41.5 -43t-31 -17t-20.5 5.5z" />
    <glyph glyph-name="uni1EBB" unicode="&#x1ebb;" horiz-adv-x="539" 
d="M115 59q-60 65 -60 199q0 133 59 202t174 69q102 0 154 -66.5t52 -194.5q0 -9 -12 -25t-21 -16h-316q6 -83 43 -122t111 -39q42 0 72.5 10.5t50.5 21t23 10.5q10 0 22.5 -20t12.5 -30q0 -12 -25 -27.5t-66.5 -26t-88.5 -10.5q-125 0 -185 65zM405 299q0 158 -120 158
q-129 0 -140 -158h260zM256.5 568.5q-12.5 5.5 -12.5 11.5q0 9 5.5 15t19.5 18q17 14 27 27t10 32q0 13 -10.5 20t-26.5 7q-22 0 -32.5 -6.5t-13.5 -6.5q-6 0 -15 12.5t-9 20.5q0 10 26 20.5t52 10.5q33 0 62 -17t29 -54q0 -30 -18.5 -56t-41.5 -43t-31 -17t-20.5 5.5z" />
    <glyph glyph-name="uni1EBC" unicode="&#x1ebc;" horiz-adv-x="546" 
d="M104 7q-7 7 -7 23v640q0 16 7 23t23 7h349q11 0 15.5 -7t4.5 -23v-16q0 -16 -4.5 -23t-15.5 -7h-291v-228h261q11 0 15.5 -7t4.5 -23v-16q0 -16 -4.5 -23t-15.5 -7h-261v-244h292q11 0 15.5 -7t4.5 -23v-16q0 -16 -4.5 -23t-15.5 -7h-350q-16 0 -23 7zM133 773
q-10 4 -10 12q0 6 3 13q16 37 38.5 53t53.5 16q21 0 42 -5.5t55 -17.5q29 -10 45.5 -15t31.5 -5q14 0 24 6.5t20 22.5q10 15 20 15q6 0 10 -3l8 -3q12 -4 12 -12q0 -6 -5 -14q-16 -36 -38 -52t-53 -16q-36 0 -100 24q-28 10 -45 14.5t-32 4.5q-13 0 -22 -6.5t-20 -23.5
q-8 -14 -17 -14q-3 0 -11 2z" />
    <glyph glyph-name="uni1EBD" unicode="&#x1ebd;" horiz-adv-x="539" 
d="M115 59q-60 65 -60 199q0 133 59 202t174 69q102 0 154 -66.5t52 -194.5q0 -9 -12 -25t-21 -16h-316q6 -83 43 -122t111 -39q42 0 72.5 10.5t50.5 21t23 10.5q10 0 22.5 -20t12.5 -30q0 -12 -25 -27.5t-66.5 -26t-88.5 -10.5q-125 0 -185 65zM405 299q0 158 -120 158
q-129 0 -140 -158h260zM107 596q-10 4 -10 12q0 6 3 13q16 37 38.5 53t53.5 16q21 0 42 -5.5t55 -17.5q29 -10 45.5 -15t31.5 -5q14 0 24 6.5t20 22.5q10 15 20 15q6 0 10 -3l8 -3q12 -4 12 -12q0 -6 -5 -14q-16 -36 -38 -52t-53 -16q-36 0 -100 24q-28 10 -45 14.5t-32 4.5
q-13 0 -22 -6.5t-20 -23.5q-8 -14 -17 -14q-3 0 -11 2z" />
    <glyph glyph-name="uni1EBE" unicode="&#x1ebe;" horiz-adv-x="546" 
d="M394 859q0 7 14.5 34t43.5 77q8 14 23 20t39 6q25 0 36.5 -3t11.5 -10q0 -8 -15 -26.5t-79 -89.5q-16 -18 -51 -18q-23 0 -23 10zM179 767q0 8 6 18l56 88q15 22 46 22h25q31 0 46 -22l57 -88q6 -9 6 -17q0 -15 -24 -15h-2q-19 0 -33 13l-63 74l-61 -74q-14 -13 -34 -13
h-2q-23 0 -23 14zM104 7q-7 7 -7 23v640q0 16 7 23t23 7h349q11 0 15.5 -7t4.5 -23v-16q0 -16 -4.5 -23t-15.5 -7h-291v-228h261q11 0 15.5 -7t4.5 -23v-16q0 -16 -4.5 -23t-15.5 -7h-261v-244h292q11 0 15.5 -7t4.5 -23v-16q0 -16 -4.5 -23t-15.5 -7h-350q-16 0 -23 7z" />
    <glyph glyph-name="uni1EBF" unicode="&#x1ebf;" horiz-adv-x="539" 
d="M395 695q0 7 14.5 34t43.5 77q8 14 23 20t39 6q25 0 36.5 -3t11.5 -10q0 -8 -15 -26.5t-79 -89.5q-16 -18 -51 -18q-23 0 -23 10zM153 590q0 8 6 18l56 88q15 22 46 22h25q31 0 46 -22l57 -88q6 -9 6 -17q0 -15 -24 -15h-2q-19 0 -33 13l-63 74l-61 -74q-14 -13 -34 -13
h-2q-23 0 -23 14zM115 59q-60 65 -60 199q0 133 59 202t174 69q102 0 154 -66.5t52 -194.5q0 -9 -12 -25t-21 -16h-316q6 -83 43 -122t111 -39q42 0 72.5 10.5t50.5 21t23 10.5q10 0 22.5 -20t12.5 -30q0 -12 -25 -27.5t-66.5 -26t-88.5 -10.5q-125 0 -185 65zM405 299
q0 158 -120 158q-129 0 -140 -158h260z" />
    <glyph glyph-name="uni1EC0" unicode="&#x1ec0;" horiz-adv-x="546" 
d="M406 867l-38 43q-38 44 -47 55.5t-9 17.5q0 7 11.5 10t36.5 3q24 0 39 -6t23 -20q29 -50 43.5 -77t14.5 -34q0 -10 -23 -10q-34 0 -51 18zM179 767q0 8 6 18l56 88q15 22 46 22h25q31 0 46 -22l57 -88q6 -9 6 -17q0 -15 -24 -15h-2q-19 0 -33 13l-63 74l-61 -74
q-14 -13 -34 -13h-2q-23 0 -23 14zM104 7q-7 7 -7 23v640q0 16 7 23t23 7h349q11 0 15.5 -7t4.5 -23v-16q0 -16 -4.5 -23t-15.5 -7h-291v-228h261q11 0 15.5 -7t4.5 -23v-16q0 -16 -4.5 -23t-15.5 -7h-261v-244h292q11 0 15.5 -7t4.5 -23v-16q0 -16 -4.5 -23t-15.5 -7h-350
q-16 0 -23 7z" />
    <glyph glyph-name="uni1EC1" unicode="&#x1ec1;" horiz-adv-x="539" 
d="M387 732l-38 43q-39 44 -47.5 55.5t-8.5 17.5q0 7 11.5 10t36.5 3q24 0 39 -6t23 -20q29 -50 43.5 -77t14.5 -34q0 -10 -23 -10q-35 0 -51 18zM153 590q0 8 6 18l56 88q15 22 46 22h25q31 0 46 -22l57 -88q6 -9 6 -17q0 -15 -24 -15h-2q-19 0 -33 13l-63 74l-61 -74
q-14 -13 -34 -13h-2q-23 0 -23 14zM115 59q-60 65 -60 199q0 133 59 202t174 69q102 0 154 -66.5t52 -194.5q0 -9 -12 -25t-21 -16h-316q6 -83 43 -122t111 -39q42 0 72.5 10.5t50.5 21t23 10.5q10 0 22.5 -20t12.5 -30q0 -12 -25 -27.5t-66.5 -26t-88.5 -10.5
q-125 0 -185 65zM405 299q0 158 -120 158q-129 0 -140 -158h260z" />
    <glyph glyph-name="uni1EC2" unicode="&#x1ec2;" horiz-adv-x="546" 
d="M423.5 835.5q-12.5 5.5 -12.5 11.5q0 9 6 16t15 14.5t14 11.5q27 23 27 50q0 13 -10.5 20t-26.5 7q-22 0 -32.5 -6.5t-13.5 -6.5q-6 0 -15 12.5t-9 20.5q0 10 26 20.5t52 10.5q33 0 62 -17t29 -54q0 -33 -25 -65q-16 -21 -37.5 -36t-28.5 -15q-8 0 -20.5 5.5zM179 767
q0 8 6 18l56 88q15 22 46 22h25q31 0 46 -22l57 -88q6 -9 6 -17q0 -15 -24 -15h-2q-19 0 -33 13l-63 74l-61 -74q-14 -13 -34 -13h-2q-23 0 -23 14zM104 7q-7 7 -7 23v640q0 16 7 23t23 7h349q11 0 15.5 -7t4.5 -23v-16q0 -16 -4.5 -23t-15.5 -7h-291v-228h261q11 0 15.5 -7
t4.5 -23v-16q0 -16 -4.5 -23t-15.5 -7h-261v-244h292q11 0 15.5 -7t4.5 -23v-16q0 -16 -4.5 -23t-15.5 -7h-350q-16 0 -23 7z" />
    <glyph glyph-name="uni1EC3" unicode="&#x1ec3;" horiz-adv-x="539" 
d="M397.5 697.5q-12.5 5.5 -12.5 11.5q0 9 5.5 15t19.5 18q17 14 27 27t10 32q0 13 -10.5 20t-26.5 7q-22 0 -32.5 -6.5t-13.5 -6.5q-6 0 -15 12.5t-9 20.5q0 10 26 20.5t52 10.5q33 0 62 -17t29 -54q0 -30 -18.5 -56t-41.5 -43t-31 -17t-20.5 5.5zM153 590q0 8 6 18l56 88
q15 22 46 22h25q31 0 46 -22l57 -88q6 -9 6 -17q0 -15 -24 -15h-2q-19 0 -33 13l-63 74l-61 -74q-14 -13 -34 -13h-2q-23 0 -23 14zM115 59q-60 65 -60 199q0 133 59 202t174 69q102 0 154 -66.5t52 -194.5q0 -9 -12 -25t-21 -16h-316q6 -83 43 -122t111 -39q42 0 72.5 10.5
t50.5 21t23 10.5q10 0 22.5 -20t12.5 -30q0 -12 -25 -27.5t-66.5 -26t-88.5 -10.5q-125 0 -185 65zM405 299q0 158 -120 158q-129 0 -140 -158h260z" />
    <glyph glyph-name="uni1EC4" unicode="&#x1ec4;" horiz-adv-x="546" 
d="M144 914q-9 5 -9 12q0 6 3 13q15 37 35 53t49 16q18 0 37 -5.5t50 -17.5q19 -8 38.5 -14t32.5 -6q12 0 21 6.5t19 22.5q8 15 18 15q5 0 9 -3l7 -3q11 -4 11 -12q0 -6 -4 -14q-15 -36 -35 -52t-48 -16q-20 0 -41 6t-50 18q-25 10 -41 14.5t-29 4.5q-11 0 -19.5 -6.5
t-18.5 -23.5q-8 -14 -16 -14q-2 0 -10 2zM175 767q0 8 6 18l56 88q15 22 46 22h25q31 0 46 -22l57 -88q6 -9 6 -17q0 -15 -24 -15h-2q-19 0 -33 13l-63 74l-61 -74q-14 -13 -34 -13h-2q-23 0 -23 14zM104 7q-7 7 -7 23v640q0 16 7 23t23 7h349q11 0 15.5 -7t4.5 -23v-16
q0 -16 -4.5 -23t-15.5 -7h-291v-228h261q11 0 15.5 -7t4.5 -23v-16q0 -16 -4.5 -23t-15.5 -7h-261v-244h292q11 0 15.5 -7t4.5 -23v-16q0 -16 -4.5 -23t-15.5 -7h-350q-16 0 -23 7z" />
    <glyph glyph-name="uni1EC5" unicode="&#x1ec5;" horiz-adv-x="539" 
d="M117 786q-9 5 -9 12q0 6 3 13q15 37 35 53t49 16q18 0 37 -5.5t50 -17.5q19 -8 38.5 -14t32.5 -6q12 0 21 6.5t19 22.5q8 15 18 15q5 0 9 -3l7 -3q11 -4 11 -12q0 -6 -4 -14q-15 -36 -35 -52t-48 -16q-20 0 -41 6t-50 18q-25 10 -41 14.5t-29 4.5q-11 0 -19.5 -6.5
t-18.5 -23.5q-8 -14 -16 -14q-2 0 -10 2zM149 590q0 8 6 18l56 88q15 22 46 22h25q31 0 46 -22l57 -88q6 -9 6 -17q0 -15 -24 -15h-2q-19 0 -33 13l-63 74l-61 -74q-14 -13 -34 -13h-2q-23 0 -23 14zM115 59q-60 65 -60 199q0 133 59 202t174 69q102 0 154 -66.5t52 -194.5
q0 -9 -12 -25t-21 -16h-316q6 -83 43 -122t111 -39q42 0 72.5 10.5t50.5 21t23 10.5q10 0 22.5 -20t12.5 -30q0 -12 -25 -27.5t-66.5 -26t-88.5 -10.5q-125 0 -185 65zM405 299q0 158 -120 158q-129 0 -140 -158h260z" />
    <glyph glyph-name="uni1EC6" unicode="&#x1ec6;" horiz-adv-x="546" 
d="M104 7q-7 7 -7 23v640q0 16 7 23t23 7h349q11 0 15.5 -7t4.5 -23v-16q0 -16 -4.5 -23t-15.5 -7h-291v-228h261q11 0 15.5 -7t4.5 -23v-16q0 -16 -4.5 -23t-15.5 -7h-261v-244h292q11 0 15.5 -7t4.5 -23v-16q0 -16 -4.5 -23t-15.5 -7h-350q-16 0 -23 7zM260 -153v51
q0 22 44 22q40 0 40 -22v-51q0 -22 -44 -22q-40 0 -40 22zM175 767q0 8 6 18l56 88q15 22 46 22h25q31 0 46 -22l57 -88q6 -9 6 -17q0 -15 -24 -15h-2q-19 0 -33 13l-63 74l-61 -74q-14 -13 -34 -13h-2q-23 0 -23 14z" />
    <glyph glyph-name="uni1EC7" unicode="&#x1ec7;" horiz-adv-x="539" 
d="M115 59q-60 65 -60 199q0 133 59 202t174 69q102 0 154 -66.5t52 -194.5q0 -9 -12 -25t-21 -16h-316q6 -83 43 -122t111 -39q42 0 72.5 10.5t50.5 21t23 10.5q10 0 22.5 -20t12.5 -30q0 -12 -25 -27.5t-66.5 -26t-88.5 -10.5q-125 0 -185 65zM405 299q0 158 -120 158
q-129 0 -140 -158h260zM230 -153v51q0 22 44 22q40 0 40 -22v-51q0 -22 -44 -22q-40 0 -40 22zM149 590q0 8 6 18l56 88q15 22 46 22h25q31 0 46 -22l57 -88q6 -9 6 -17q0 -15 -24 -15h-2q-19 0 -33 13l-63 74l-61 -74q-14 -13 -34 -13h-2q-23 0 -23 14z" />
    <glyph glyph-name="uni1EC8" unicode="&#x1ec8;" horiz-adv-x="282" 
d="M97 20v660q0 22 40 22h8q40 0 40 -22v-660q0 -22 -40 -22h-8q-40 0 -40 22zM127.5 745.5q-12.5 5.5 -12.5 11.5q0 9 5.5 15t19.5 18q17 14 27 27t10 32q0 13 -10.5 20t-26.5 7q-22 0 -32.5 -6.5t-13.5 -6.5q-6 0 -15 12.5t-9 20.5q0 10 26 20.5t52 10.5q33 0 62 -17
t29 -54q0 -30 -18.5 -56t-41.5 -43t-31 -17t-20.5 5.5z" />
    <glyph glyph-name="uni1EC9" unicode="&#x1ec9;" horiz-adv-x="265" 
d="M91 20v483q0 22 40 22h4q40 0 40 -22v-483q0 -22 -40 -22h-4q-40 0 -40 22zM119.5 568.5q-12.5 5.5 -12.5 11.5q0 9 5.5 15t19.5 18q17 14 27 27t10 32q0 13 -10.5 20t-26.5 7q-22 0 -32.5 -6.5t-13.5 -6.5q-6 0 -15 12.5t-9 20.5q0 10 26 20.5t52 10.5q33 0 62 -17
t29 -54q0 -30 -18.5 -56t-41.5 -43t-31 -17t-20.5 5.5z" />
    <glyph glyph-name="uni1ECA" unicode="&#x1eca;" horiz-adv-x="282" 
d="M97 20v660q0 22 40 22h8q40 0 40 -22v-660q0 -22 -40 -22h-8q-40 0 -40 22zM100 -153v51q0 22 44 22q40 0 40 -22v-51q0 -22 -44 -22q-40 0 -40 22z" />
    <glyph glyph-name="uni1ECB" unicode="&#x1ecb;" horiz-adv-x="265" 
d="M87 640v56q0 24 48 24q44 0 44 -24v-56q0 -24 -48 -24q-44 0 -44 24zM91 20v483q0 22 40 22h4q40 0 40 -22v-483q0 -22 -40 -22h-4q-40 0 -40 22zM91 -153v51q0 22 44 22q40 0 40 -22v-51q0 -22 -44 -22q-40 0 -40 22z" />
    <glyph glyph-name="uni1ECC" unicode="&#x1ecc;" horiz-adv-x="731" 
d="M136 85.5q-79 91.5 -79 266.5t78.5 264.5t229.5 89.5t230 -89.5t79 -264.5t-79 -266.5t-230 -91.5q-150 0 -229 91.5zM527 142q56 72 56 210q0 137 -56 207.5t-162 70.5t-161.5 -70.5t-55.5 -207.5q0 -138 55.5 -210t161.5 -72t162 72zM327 -153v51q0 22 44 22
q40 0 40 -22v-51q0 -22 -44 -22q-40 0 -40 22z" />
    <glyph glyph-name="uni1ECD" unicode="&#x1ecd;" horiz-adv-x="569" 
d="M114.5 62q-59.5 68 -59.5 197q0 130 60 200t172 70q110 0 168.5 -69.5t58.5 -200.5q0 -130 -57.5 -197.5t-169.5 -67.5q-113 0 -172.5 68zM392 113.5q35 47.5 35 147.5t-35 148t-108 48t-107 -47.5t-34 -148.5q0 -100 34 -147.5t107 -47.5t108 47.5zM251 -153v51
q0 22 44 22q40 0 40 -22v-51q0 -22 -44 -22q-40 0 -40 22z" />
    <glyph glyph-name="uni1ECE" unicode="&#x1ece;" horiz-adv-x="731" 
d="M136 85.5q-79 91.5 -79 266.5t78.5 264.5t229.5 89.5t230 -89.5t79 -264.5t-79 -266.5t-230 -91.5q-150 0 -229 91.5zM527 142q56 72 56 210q0 137 -56 207.5t-162 70.5t-161.5 -70.5t-55.5 -207.5q0 -138 55.5 -210t161.5 -72t162 72zM352.5 745.5q-12.5 5.5 -12.5 11.5
q0 9 5.5 15t19.5 18q17 14 27 27t10 32q0 13 -10.5 20t-26.5 7q-22 0 -32.5 -6.5t-13.5 -6.5q-6 0 -15 12.5t-9 20.5q0 10 26 20.5t52 10.5q33 0 62 -17t29 -54q0 -30 -18.5 -56t-41.5 -43t-31 -17t-20.5 5.5z" />
    <glyph glyph-name="uni1ECF" unicode="&#x1ecf;" horiz-adv-x="569" 
d="M114.5 62q-59.5 68 -59.5 197q0 130 60 200t172 70q110 0 168.5 -69.5t58.5 -200.5q0 -130 -57.5 -197.5t-169.5 -67.5q-113 0 -172.5 68zM392 113.5q35 47.5 35 147.5t-35 148t-108 48t-107 -47.5t-34 -148.5q0 -100 34 -147.5t107 -47.5t108 47.5zM271.5 568.5
q-12.5 5.5 -12.5 11.5q0 9 5.5 15t19.5 18q17 14 27 27t10 32q0 13 -10.5 20t-26.5 7q-22 0 -32.5 -6.5t-13.5 -6.5q-6 0 -15 12.5t-9 20.5q0 10 26 20.5t52 10.5q33 0 62 -17t29 -54q0 -30 -18.5 -56t-41.5 -43t-31 -17t-20.5 5.5z" />
    <glyph glyph-name="uni1ED0" unicode="&#x1ed0;" horiz-adv-x="731" 
d="M464 859q0 7 14.5 34t43.5 77q8 14 23 20t39 6q25 0 36.5 -3t11.5 -10q0 -8 -15 -26.5t-79 -89.5q-16 -18 -51 -18q-23 0 -23 10zM249 767q0 8 6 18l56 88q15 22 46 22h25q31 0 46 -22l57 -88q6 -9 6 -17q0 -15 -24 -15h-2q-19 0 -33 13l-63 74l-61 -74q-14 -13 -34 -13
h-2q-23 0 -23 14zM136 85.5q-79 91.5 -79 266.5t78.5 264.5t229.5 89.5t230 -89.5t79 -264.5t-79 -266.5t-230 -91.5q-150 0 -229 91.5zM527 142q56 72 56 210q0 137 -56 207.5t-162 70.5t-161.5 -70.5t-55.5 -207.5q0 -138 55.5 -210t161.5 -72t162 72z" />
    <glyph glyph-name="uni1ED1" unicode="&#x1ed1;" horiz-adv-x="569" 
d="M410 695q0 7 14.5 34t43.5 77q8 14 23 20t39 6q25 0 36.5 -3t11.5 -10q0 -8 -15 -26.5t-79 -89.5q-16 -18 -51 -18q-23 0 -23 10zM168 590q0 8 6 18l56 88q15 22 46 22h25q31 0 46 -22l57 -88q6 -9 6 -17q0 -15 -24 -15h-2q-19 0 -33 13l-63 74l-61 -74q-14 -13 -34 -13
h-2q-23 0 -23 14zM114.5 62q-59.5 68 -59.5 197q0 130 60 200t172 70q110 0 168.5 -69.5t58.5 -200.5q0 -130 -57.5 -197.5t-169.5 -67.5q-113 0 -172.5 68zM392 113.5q35 47.5 35 147.5t-35 148t-108 48t-107 -47.5t-34 -148.5q0 -100 34 -147.5t107 -47.5t108 47.5z" />
    <glyph glyph-name="uni1ED2" unicode="&#x1ed2;" horiz-adv-x="731" 
d="M476 867l-38 43q-38 44 -47 55.5t-9 17.5q0 7 11.5 10t36.5 3q24 0 39 -6t23 -20q29 -50 43.5 -77t14.5 -34q0 -10 -23 -10q-34 0 -51 18zM249 767q0 8 6 18l56 88q15 22 46 22h25q31 0 46 -22l57 -88q6 -9 6 -17q0 -15 -24 -15h-2q-19 0 -33 13l-63 74l-61 -74
q-14 -13 -34 -13h-2q-23 0 -23 14zM136 85.5q-79 91.5 -79 266.5t78.5 264.5t229.5 89.5t230 -89.5t79 -264.5t-79 -266.5t-230 -91.5q-150 0 -229 91.5zM527 142q56 72 56 210q0 137 -56 207.5t-162 70.5t-161.5 -70.5t-55.5 -207.5q0 -138 55.5 -210t161.5 -72t162 72z
" />
    <glyph glyph-name="uni1ED3" unicode="&#x1ed3;" horiz-adv-x="569" 
d="M402 732l-38 43q-39 44 -47.5 55.5t-8.5 17.5q0 7 11.5 10t36.5 3q24 0 39 -6t23 -20q29 -50 43.5 -77t14.5 -34q0 -10 -23 -10q-34 0 -51 18zM168 590q0 8 6 18l56 88q15 22 46 22h25q31 0 46 -22l57 -88q6 -9 6 -17q0 -15 -24 -15h-2q-19 0 -33 13l-63 74l-61 -74
q-14 -13 -34 -13h-2q-23 0 -23 14zM114.5 62q-59.5 68 -59.5 197q0 130 60 200t172 70q110 0 168.5 -69.5t58.5 -200.5q0 -130 -57.5 -197.5t-169.5 -67.5q-113 0 -172.5 68zM392 113.5q35 47.5 35 147.5t-35 148t-108 48t-107 -47.5t-34 -148.5q0 -100 34 -147.5t107 -47.5
t108 47.5z" />
    <glyph glyph-name="uni1ED4" unicode="&#x1ed4;" horiz-adv-x="731" 
d="M493.5 835.5q-12.5 5.5 -12.5 11.5q0 9 6 16t15 14.5t14 11.5q27 23 27 50q0 13 -10.5 20t-26.5 7q-22 0 -32.5 -6.5t-13.5 -6.5q-6 0 -15 12.5t-9 20.5q0 10 26 20.5t52 10.5q33 0 62 -17t29 -54q0 -33 -25 -65q-16 -21 -37.5 -36t-28.5 -15q-8 0 -20.5 5.5zM249 767
q0 8 6 18l56 88q15 22 46 22h25q31 0 46 -22l57 -88q6 -9 6 -17q0 -15 -24 -15h-2q-19 0 -33 13l-63 74l-61 -74q-14 -13 -34 -13h-2q-23 0 -23 14zM136 85.5q-79 91.5 -79 266.5t78.5 264.5t229.5 89.5t230 -89.5t79 -264.5t-79 -266.5t-230 -91.5q-150 0 -229 91.5z
M527 142q56 72 56 210q0 137 -56 207.5t-162 70.5t-161.5 -70.5t-55.5 -207.5q0 -138 55.5 -210t161.5 -72t162 72z" />
    </font>
</defs>
</svg>
